<svg id="图层_1" data-name="图层 1" xmlns="http://www.w3.org/2000/svg" viewBox="0 0 90 90"><defs><style>.cls-1{fill:#808fa3;}</style></defs><title></title><path class="cls-1" d="M31,66.57a2.5,2.5,0,0,1-2.5-2.5v-1h1v1a1.5,1.5,0,0,0,3,0v-1h1v1A2.5,2.5,0,0,1,31,66.57Z"/><path class="cls-1" d="M61,66.57a2.5,2.5,0,0,1-2.5-2.5v-1h1v1a1.5,1.5,0,0,0,3,0v-1h1v1A2.5,2.5,0,0,1,61,66.57Z"/><path class="cls-1" d="M64,63.43H26a2.5,2.5,0,0,1-2.5-2.5v-35a2.5,2.5,0,0,1,2.5-2.5H64a2.5,2.5,0,0,1,2.5,2.5v35A2.5,2.5,0,0,1,64,63.43ZM26,24.43a1.5,1.5,0,0,0-1.5,1.5v35a1.5,1.5,0,0,0,1.5,1.5H64a1.5,1.5,0,0,0,1.5-1.5v-35a1.5,1.5,0,0,0-1.5-1.5Z"/><path class="cls-1" d="M61.74,60.43H28.26a1.5,1.5,0,0,1-1.5-1.5v-31a1.5,1.5,0,0,1,1.5-1.5H61.74a1.5,1.5,0,0,1,1.5,1.5v31A1.5,1.5,0,0,1,61.74,60.43Zm-33.48-33a.5.5,0,0,0-.5.5v31a.5.5,0,0,0,.5.5H61.74a.5.5,0,0,0,.5-.5v-31a.5.5,0,0,0-.5-.5Z"/><rect class="cls-1" x="44.5" y="26.93" width="1" height="33"/><path class="cls-1" d="M38.48,45.93a2.5,2.5,0,1,1,2.5-2.5A2.5,2.5,0,0,1,38.48,45.93Zm0-4a1.5,1.5,0,1,0,1.5,1.5A1.5,1.5,0,0,0,38.48,41.93Z"/><path class="cls-1" d="M51.48,45.93a2.5,2.5,0,1,1,2.5-2.5A2.5,2.5,0,0,1,51.48,45.93Zm0-4a1.5,1.5,0,1,0,1.5,1.5A1.5,1.5,0,0,0,51.48,41.93Z"/></svg>