<?xml version="1.0" encoding="UTF-8"?>
<svg width="37px" height="37px" viewBox="0 0 37 37" version="1.1" xmlns="http://www.w3.org/2000/svg" xmlns:xlink="http://www.w3.org/1999/xlink">
    <!-- Generator: Sketch 52.2 (67145) - http://www.bohemiancoding.com/sketch -->
    <g id="相机剪切+相机位置" stroke="none" stroke-width="1" fill="none" fill-rule="evenodd">
        <g id="鸟瞰相机" transform="translate(-1155.000000, -194.000000)">
            <g id="分组" transform="translate(1156.000000, 195.000000)">
                <circle id="Oval-4" fill="#FFFFFF" fill-rule="nonzero" opacity="0.600000024" cx="17.5" cy="18.1560125" r="10.2083333"></circle>
                <circle id="Oval-4" stroke="#FFFFFF" fill="#479FFF" fill-rule="nonzero" cx="17.5" cy="18.1560125" r="5.83333333"></circle>
                <path d="M19.9513008,32.5958128 L16.0279379,29.5759062 C15.8769972,29.4599663 15.6768368,29.5846564 15.6768368,29.7924732 L15.6768368,35.8322865 C15.6768368,36.0411971 15.8769972,36.1647934 16.0279379,36.0499473 L19.9513008,33.0289469 C20.0858349,32.9261322 20.0858349,32.6986275 19.9513008,32.5958128" id="Fill-1" stroke="#FFFFFF" fill="#479FFF" transform="translate(17.864519, 32.812682) rotate(90.000000) translate(-17.864519, -32.812682) "></path>
                <path d="M19.9513008,1.97081285 L16.0279379,-1.04909381 C15.8769972,-1.16503373 15.6768368,-1.04034363 15.6768368,-0.832526802 L15.6768368,5.20728652 C15.6768368,5.41619712 15.8769972,5.53979344 16.0279379,5.4249473 L19.9513008,2.40394687 C20.0858349,2.30113223 20.0858349,2.07362749 19.9513008,1.97081285" id="Fill-1-Copy" stroke="#FFFFFF" fill="#479FFF" transform="translate(17.864519, 2.187682) scale(1, -1) rotate(90.000000) translate(-17.864519, -2.187682) "></path>
                <path d="M34.899464,16.1893163 L30.9761011,13.1694097 C30.8251604,13.0534697 30.625,13.1781598 30.625,13.3859767 L30.625,19.42579 C30.625,19.6347006 30.8251604,19.7582969 30.9761011,19.6434508 L34.899464,16.6224503 C35.0339981,16.5196357 35.0339981,16.292131 34.899464,16.1893163" id="Fill-1" stroke="#FFFFFF" fill="#479FFF"></path>
                <path d="M4.27446404,17.6476496 L0.351101064,14.627743 C0.20016042,14.5118031 2.55351296e-14,14.6364932 2.55351296e-14,14.84431 L2.55351296e-14,20.8841233 C2.55351296e-14,21.0930339 0.20016042,21.2166302 0.351101064,21.1017841 L4.27446404,18.0807837 C4.4089981,17.977969 4.4089981,17.7504643 4.27446404,17.6476496" id="Fill-1-Copy" stroke="#FFFFFF" fill="#479FFF" transform="translate(2.187682, 17.864519) scale(-1, -1) translate(-2.187682, -17.864519) "></path>
            </g>
        </g>
    </g>
</svg>