<svg id="图层_1" data-name="图层 1" xmlns="http://www.w3.org/2000/svg" viewBox="0 0 24 24"><defs><style>.cls-1{fill:#1d9390;}</style></defs><rect class="cls-1" x="8.99" y="9" width="6" height="6" rx="3" ry="3"/><path class="cls-1" d="M10.69,4.7,11,4.41v6a1,1,0,0,0,2,0v-6l.29.29A1,1,0,0,0,14,5a1,1,0,0,0,.71-1.71l-2-2a1,1,0,0,0-1.42,0l-2,2A1,1,0,0,0,10.69,4.7Z"/><path class="cls-1" d="M4.41,13h6a1,1,0,0,0,0-2h-6l.29-.3A1,1,0,0,0,3.29,9.28l-2,2a1,1,0,0,0,0,1.41l2,2A1,1,0,0,0,4,15a1,1,0,0,0,.71-1.71Z"/><path class="cls-1" d="M13.29,19.29l-.29.29v-6a1,1,0,0,0-2,0v6l-.29-.29a1,1,0,0,0-1.42,0,1,1,0,0,0,0,1.41l2,2a1,1,0,0,0,1.42,0l2-2a1,1,0,0,0,0-1.41A1,1,0,0,0,13.29,19.29Z"/><path class="cls-1" d="M22.7,11.3l-2-2a1,1,0,0,0-1.42,0,1,1,0,0,0,0,1.41l.29.3h-6a1,1,0,0,0,0,2h6l-.29.29A1,1,0,0,0,20,15a1,1,0,0,0,.71-.3l2-2A1,1,0,0,0,22.7,11.3Z"/></svg>