<svg id="图层_1" data-name="图层 1" xmlns="http://www.w3.org/2000/svg" viewBox="0 0 90 90"><defs><style>.cls-1{fill:#808fa3;}</style></defs><path class="cls-1" d="M63,24.5H27A2.5,2.5,0,0,0,24.5,27V63A2.5,2.5,0,0,0,27,65.5H63A2.5,2.5,0,0,0,65.5,63V27A2.5,2.5,0,0,0,63,24.5Zm-36,1H63a1.51,1.51,0,0,1,.64.15l-5.26,5.27A2.44,2.44,0,0,0,57,30.5H33a2.44,2.44,0,0,0-1.38.42l-5.26-5.27A1.51,1.51,0,0,1,27,25.5ZM58.5,33V57A1.5,1.5,0,0,1,57,58.5H33A1.5,1.5,0,0,1,31.5,57V33A1.5,1.5,0,0,1,33,31.5H57A1.5,1.5,0,0,1,58.5,33Zm-33,30V27a1.51,1.51,0,0,1,.15-.64l5.27,5.26A2.44,2.44,0,0,0,30.5,33V57a2.44,2.44,0,0,0,.42,1.38l-5.27,5.26A1.51,1.51,0,0,1,25.5,63ZM63,64.5H27a1.51,1.51,0,0,1-.64-.15l5.26-5.27A2.44,2.44,0,0,0,33,59.5H57a2.44,2.44,0,0,0,1.38-.42l5.26,5.27A1.51,1.51,0,0,1,63,64.5ZM64.5,63a1.51,1.51,0,0,1-.15.64l-5.27-5.26A2.44,2.44,0,0,0,59.5,57V33a2.44,2.44,0,0,0-.42-1.38l5.27-5.26a1.51,1.51,0,0,1,.15.64Z"/></svg>