<svg id="图层_1" data-name="图层 1" xmlns="http://www.w3.org/2000/svg" viewBox="0 0 24 24"><defs><style>.cls-1{fill:#1d9390;}</style></defs><title></title><path class="cls-1" d="M18.94,2H6.06a3,3,0,0,0-3,3V16a3,3,0,0,0,2,2.84A.76.76,0,0,0,5,19v1a1,1,0,0,0,2,0V19H18v1a1,1,0,0,0,2,0V19a.76.76,0,0,0,0-.16A3,3,0,0,0,22,16V5.06A3,3,0,0,0,18.94,2ZM13,4V17.09H12V4ZM5,5.06A1.09,1.09,0,0,1,6.06,4H10V17.09H6.06A1.09,1.09,0,0,1,5,16ZM20,16a1.09,1.09,0,0,1-1.09,1.09H15V4h3.94A1.09,1.09,0,0,1,20,5.06Z"/><circle class="cls-1" cx="17" cy="10.53" r="1"/><circle class="cls-1" cx="8" cy="10.53" r="1"/></svg>