<svg id="图层_1" data-name="图层 1" xmlns="http://www.w3.org/2000/svg" viewBox="0 0 24 24"><defs><style>.cls-1{fill:#1d9390;}</style></defs><path class="cls-1" d="M18.22,3H5.78A2.79,2.79,0,0,0,3,5.78V18.22A2.79,2.79,0,0,0,5.78,21H18.22A2.79,2.79,0,0,0,21,18.22V5.78A2.79,2.79,0,0,0,18.22,3Zm-.39,12L17,14.17V9.83L17.83,9H19v6ZM5,15V9H6.17L7,9.83v4.34L6.17,15Zm4.83,0L9,14.17V9.83L9.83,9h4.34l.83.83v4.34l-.83.83ZM15,6.17,14.17,7H9.83L9,6.17V5h6ZM9,17.83,9.83,17h4.34l.83.83V19H9Zm10-12V7H17.83L17,6.17V5h1.22A.78.78,0,0,1,19,5.78ZM5.78,5H7V6.17L6.17,7H5V5.78A.78.78,0,0,1,5.78,5ZM5,18.22V17H6.17l.83.83V19H5.78A.78.78,0,0,1,5,18.22ZM18.22,19H17V17.83l.83-.83H19v1.22A.78.78,0,0,1,18.22,19Z"/></svg>