<svg id="图层_1" data-name="图层 1" xmlns="http://www.w3.org/2000/svg" viewBox="0 0 24 24"><defs><style>.cls-1{fill:#1d9390;}</style></defs><path class="cls-1" d="M12,1.44l-4,4A2.89,2.89,0,0,0,8,9.53l.05.05-.28.28A2.82,2.82,0,0,0,7,12.94c.34,1,.31,1-.39,1.29C4.79,15.05,3,16.7,3.1,18.87a2.64,2.64,0,0,0,2.38,2.38h.26c2,0,3.59-1.76,4.38-3.46.32-.71.34-.73,1.29-.39a2.84,2.84,0,0,0,3.11-.86c.06-.06.16-.15.26-.26a2.86,2.86,0,0,0,4-.06l4-4ZM13.1,15.13c-.43.42-.63.53-1,.39C9.73,14.67,8.88,15.7,8.3,17c-.11.25-1.16,2.42-2.67,2.3a.62.62,0,0,1-.53-.53C5,17.21,7.15,16.16,7.4,16.05c1.25-.58,2.28-1.43,1.43-3.79-.14-.38,0-.57.43-1L9.47,11l2,2,1.86,1.86Zm4.26-.33a.88.88,0,0,1-1.25,0l-3-3L10.18,8.87h0l-.75-.75a.88.88,0,0,1,0-1.25L12,4.27,20,12.2Z"/></svg>