<svg id="图层_1" data-name="图层 1" xmlns="http://www.w3.org/2000/svg" viewBox="0 0 90 90"><defs><style>.cls-1{fill:#808fa3;}</style></defs><title>icon</title><path class="cls-1" d="M63,24.5H27A2.5,2.5,0,0,0,24.5,27V63A2.5,2.5,0,0,0,27,65.5H63A2.5,2.5,0,0,0,65.5,63V27A2.5,2.5,0,0,0,63,24.5Zm-9.62,10,2.12-2.12,2.12,2.12L55.5,36.62Zm1.62,3V52.46L52.46,55H37.54L35,52.46V37.54L37.54,35H52.46Zm-20-12H55v6L52.46,34H37.54L35,31.46Zm1.62,9L34.5,36.62,32.38,34.5l2.12-2.12ZM25.5,27A1.5,1.5,0,0,1,27,25.5h7v6L31.46,34h-6Zm0,8h6L34,37.54V52.46L31.46,55h-6ZM34,64.5H27A1.5,1.5,0,0,1,25.5,63V56h6L34,58.54Zm-1.62-9,2.12-2.12,2.12,2.12L34.5,57.62ZM55,64.5H35v-6L37.54,56H52.46L55,58.54Zm-1.62-9,2.12-2.12,2.12,2.12L55.5,57.62ZM64.5,63A1.5,1.5,0,0,1,63,64.5H56v-6L58.54,56h6Zm0-8h-6L56,52.46V37.54L58.54,35h6Zm0-21h-6L56,31.46v-6h7A1.5,1.5,0,0,1,64.5,27Z"/></svg>