<svg id="图层_1" data-name="图层 1" xmlns="http://www.w3.org/2000/svg" viewBox="0 0 24 24"><defs><style>.cls-1{fill:#181a1c;}.cls-2{fill:#fff;}</style></defs>
    <path class="cls-1" fill="#181a1c" d="M5.61,5.18l2,9.87a.41.41,0,0,0,.25.32L14.49,18a.42.42,0,0,0,.44-.09l3.87-3.87a.4.4,0,0,0,.08-.43L16.24,7a.41.41,0,0,0-.32-.25l-9.86-2A.39.39,0,0,0,5.61,5.18Z"/>
    <path class="cls-2" fill="#fff" d="M5.72,4.85a.42.42,0,0,1,.34-.11l9.86,2a.41.41,0,0,1,.32.25l2.64,6.61a.4.4,0,0,1-.08.43l-3.87,3.87a.42.42,0,0,1-.44.09l-6.6-2.64a.41.41,0,0,1-.25-.32l-2-9.87a.38.38,0,0,1,.11-.33M5,4.14a1.38,1.38,0,0,0-.4,1.17v.07l2,9.84a1.43,1.43,0,0,0,.87,1.08l6.6,2.64a1.39,1.39,0,0,0,1.51-.31l3.87-3.87a1.39,1.39,0,0,0,.31-1.51L17.17,6.64a1.39,1.39,0,0,0-1.08-.86l-9.83-2H6.18A1.43,1.43,0,0,0,5,4.14Z"/>
    <path class="cls-2" fill="#fff" d="M12.66,11.25,5.81,4.41l-.53.53,6.85,6.85a1.37,1.37,0,0,0,2.17,1.63,1.37,1.37,0,0,0-1.64-2.17Z"/>
    <path class="cls-1" fill="#181a1c" d="M15.51,20.85a4.2,4.2,0,0,1,.3-5.92,4.21,4.21,0,0,1,5.93-.3Z"/>
    <path class="cls-2" fill="#fff" d="M16,15.1a4.26,4.26,0,0,1,5.43-.48l-5.92,5.92A4.27,4.27,0,0,1,16,15.1m-.53-.53a5,5,0,0,0,0,7.07l7.07-7.07a5,5,0,0,0-7.07,0Z"/>
</svg>