<svg id="图层_1" data-name="图层 1" xmlns="http://www.w3.org/2000/svg" viewBox="0 0 24 24"><defs><style>.cls-1{fill:#1d9390;}</style></defs><path class="cls-1" d="M20.81,3.44a3.49,3.49,0,0,0-4.95,0L14.09,5.21,12.68,3.8a1,1,0,0,0-1.41,0,1,1,0,0,0,0,1.41l1.41,1.41L5.25,14.05a3.41,3.41,0,0,0-1,2.42l0,.05a2.5,2.5,0,0,0,3.54,3.53l0,0a3.45,3.45,0,0,0,2.43-1l7.43-7.43L19,13a1,1,0,0,0,.71.29,1,1,0,0,0,.71-.29,1,1,0,0,0,0-1.42L19,10.16l1.77-1.77A3.51,3.51,0,0,0,20.81,3.44Zm-12,14.14A1.48,1.48,0,0,1,7.52,18L7,17.93l-.72.71a.5.5,0,0,1-.7,0,.51.51,0,0,1,0-.71l.71-.71-.07-.49a1.51,1.51,0,0,1,.42-1.27L14.09,8l2.12,2.13ZM19.39,7,17.63,8.74,15.5,6.62l1.77-1.77a1.51,1.51,0,0,1,1.06-.44A1.5,1.5,0,0,1,19.39,7Z"/></svg>