<svg id="图层_1" data-name="图层 1" xmlns="http://www.w3.org/2000/svg" viewBox="0 0 24 24"><defs><style>.cls-1{fill:#1d9390;}</style></defs><path class="cls-1" d="M22,5a.7.7,0,0,0,0-.14.78.78,0,0,0,0-.21,1.08,1.08,0,0,0-.11-.18.42.42,0,0,0-.07-.13l0,0a1.18,1.18,0,0,0-.18-.13l-.14-.1-.16,0A.78.78,0,0,0,21,4H13a.7.7,0,0,0-.14,0,.78.78,0,0,0-.21,0,1.08,1.08,0,0,0-.18.11.42.42,0,0,0-.13.07l-8,7,0,0a1.18,1.18,0,0,0-.13.18l-.1.14a.94.94,0,0,0,0,.16A.85.85,0,0,0,4,12v8a1,1,0,0,0,1,1H9a1,1,0,0,0,1-1V17.41l.41-.41H13a1.16,1.16,0,0,0,.37-.07c.05,0,.08-.06.13-.08l.16-.1,8-7,0,0a1.18,1.18,0,0,0,.13-.18l.1-.14a.94.94,0,0,0,0-.16A.85.85,0,0,0,22,9V5ZM13.38,6h5l-5.72,5h-5ZM14,12.45,20,7.2V8.55L14,13.8ZM12,15H10a1,1,0,0,0-.71.29l-1,1A1,1,0,0,0,8,17v2H6V13h6Z"/></svg>