<svg id="图层_1" data-name="图层 1" xmlns="http://www.w3.org/2000/svg" viewBox="0 0 24 24"><defs><style>.cls-1{fill:#1d9390;}</style></defs><path class="cls-1" d="M19,7H17.76a2.87,2.87,0,0,0-4.32-3.45A5.17,5.17,0,0,0,12,6.07a5.17,5.17,0,0,0-1.44-2.52A2.86,2.86,0,0,0,8.42,3,2.86,2.86,0,0,0,6.24,7H5A2,2,0,0,0,3,9v2a2,2,0,0,0,1,1.74A2.06,2.06,0,0,0,4,13v6a2,2,0,0,0,2,2H18a2,2,0,0,0,2-2V13a2.06,2.06,0,0,0,0-.26A2,2,0,0,0,21,11V9A2,2,0,0,0,19,7Zm0,4H13V9h6ZM14.61,5.17A.89.89,0,0,1,15.26,5a.86.86,0,0,1,.57.35A.84.84,0,0,1,16,6a.86.86,0,0,1-.35.57,5,5,0,0,1-1.76.2A4.79,4.79,0,0,1,14.61,5.17Zm-6.44.19A.86.86,0,0,1,8.74,5h.14a.87.87,0,0,1,.51.17,4.79,4.79,0,0,1,.73,1.61,4.29,4.29,0,0,1-1.76-.2A.86.86,0,0,1,8,6,.84.84,0,0,1,8.17,5.36ZM5,9h6v2H5Zm1,4h5v6H6Zm7,6V13h5v6Z"/></svg>