<?xml version="1.0" encoding="utf-8"?>
<!-- Generator: Adobe Illustrator 23.0.1, SVG Export Plug-In . SVG Version: 6.00 Build 0)  -->
<svg version="1.1" id="图层_1" xmlns="http://www.w3.org/2000/svg" xmlns:xlink="http://www.w3.org/1999/xlink" x="0px" y="0px"
	 viewBox="0 0 16 19" style="enable-background:new 0 0 16 19;" xml:space="preserve">
<style type="text/css">
	.st0{filter:url(#Adobe_OpacityMaskFilter);}
	.st1{fill-rule:evenodd;clip-rule:evenodd;fill:#FFFFFF;}
	.st2{mask:url(#mask-2_1_);fill-rule:evenodd;clip-rule:evenodd;fill:#B6CFFF;}
	.st3{fill-rule:evenodd;clip-rule:evenodd;fill:#72A5FF;}
	.st4{fill-rule:evenodd;clip-rule:evenodd;fill:#4387FF;}
	.st5{fill-rule:evenodd;clip-rule:evenodd;fill:#B6CFFF;}
	.st6{filter:url(#Adobe_OpacityMaskFilter_1_);}
	.st7{mask:url(#mask-4_1_);fill-rule:evenodd;clip-rule:evenodd;fill:#4387FF;}
	.st8{filter:url(#Adobe_OpacityMaskFilter_2_);}
	.st9{mask:url(#mask-6_1_);fill-rule:evenodd;clip-rule:evenodd;fill:#72A5FF;}
</style>
<title></title>
<desc>Created with Sketch.</desc>
<g transform="translate(0.000000, 2.172032)">
	<g id="Clip-2">
	</g>
	<defs>
		<filter id="Adobe_OpacityMaskFilter" filterUnits="userSpaceOnUse" x="0" y="0.1" width="15.9" height="16.2">
			<feColorMatrix  type="matrix" values="1 0 0 0 0  0 1 0 0 0  0 0 1 0 0  0 0 0 1 0"/>
		</filter>
	</defs>
	<mask maskUnits="userSpaceOnUse" x="0" y="0.1" width="15.9" height="16.2" id="mask-2_1_">
		<g class="st0">
			<polygon id="path-1_1_" class="st1" fill='#fff' points="0,0.1 15.9,0.1 15.9,16.3 0,16.3 			"/>
		</g>
	</mask>
	<path id="Fill-1" class="st2" fill='#B6CFFF' d="M15.9,8.2c0,4.5-3.6,8.1-8,8.1c-4.4,0-8-3.6-8-8.1s3.6-8.1,8-8.1C12.4,0.1,15.9,3.7,15.9,8.2"/>
</g>
<path id="Fill-3" class="st3" fill='#72A5FF' d="M9.6,12c0,0.9-0.7,1.7-1.6,1.7c-0.9,0-1.6-0.7-1.6-1.7s0.7-1.7,1.6-1.7C8.8,10.3,9.6,11.1,9.6,12"
	/>
<path id="Fill-5" class="st4" fill='#4387FF' d="M7.7,4.6C5.2,4.8,3.3,6.9,3.3,9.4c0,1.3,0.5,2.4,1.2,3.3c0.3,0.4,0.9,0.4,1.3,0.1
	c0.5-0.5,1.3-0.8,2.1-0.8c0.9,0,1.7,0.4,2.3,0.9c0.3,0.3,0.8,0.3,1.1,0c0.9-0.9,1.4-2.1,1.4-3.4C12.7,6.7,10.4,4.5,7.7,4.6"/>
<path id="Fill-7" class="st5"  fill='#B6CFFF' d="M11.6,8.4c-0.1,0-0.2-0.1-0.2-0.2C11,7.1,10.1,6.3,9.1,6C8.9,5.9,8.7,5.9,8.5,5.9
	c-0.1,0-0.2-0.1-0.2-0.3c0-0.1,0.1-0.2,0.3-0.2c0.2,0,0.5,0.1,0.7,0.1c1.2,0.4,2.2,1.3,2.6,2.5C11.8,8.2,11.8,8.3,11.6,8.4
	C11.6,8.4,11.6,8.4,11.6,8.4"/>
<path id="Fill-9" class="st5" fill='#B6CFFF' d="M8,5.6c0,0.2-0.1,0.3-0.3,0.3c-0.2,0-0.3-0.1-0.3-0.3s0.1-0.3,0.3-0.3C7.8,5.3,8,5.4,8,5.6"/>
<g transform="translate(7.407407, 0.060921)">
	<g id="Clip-12">
	</g>
	<defs>
		<filter id="Adobe_OpacityMaskFilter_1_" filterUnits="userSpaceOnUse" x="0.3" y="0.2" width="0.7" height="4.4">
			<feColorMatrix  type="matrix" values="1 0 0 0 0  0 1 0 0 0  0 0 1 0 0  0 0 0 1 0"/>
		</filter>
	</defs>
	<mask maskUnits="userSpaceOnUse" x="0.3" y="0.2" width="0.7" height="4.4" id="mask-4_1_">
		<g class="st6">
			<polygon id="path-3_1_" class="st1" points="0.3,0.2 1,0.2 1,4.7 0.3,4.7 			"/>
		</g>
	</mask>
	<path id="Fill-11" class="st7" fill='#4387FF' d="M0.3,4.7h0.6c0,0,0.1,0,0.1,0V0.3c0,0,0,0-0.1,0H0.3c0,0-0.1,0-0.1,0L0.3,4.7
		C0.3,4.6,0.3,4.7,0.3,4.7"/>
</g>
<polygon id="Fill-13" class="st3" fill='#72A5FF' points="4.7,15.5 4.3,15.1 5.1,14.2 5.5,14.6 "/>
<polygon id="Fill-15" class="st3" fill='#72A5FF' points="11.1,15.5 10.2,14.6 10.6,14.2 11.5,15.1 "/>
<g id="Clip-18">
</g>
<defs>
	<filter id="Adobe_OpacityMaskFilter_2_" filterUnits="userSpaceOnUse" x="7.6" y="15" width="0.6" height="1.3">
		<feColorMatrix  type="matrix" values="1 0 0 0 0  0 1 0 0 0  0 0 1 0 0  0 0 0 1 0"/>
	</filter>
</defs>
<mask maskUnits="userSpaceOnUse" x="7.6" y="15" width="0.6" height="1.3" id="mask-6_1_">
	<g class="st8">
		<polygon id="path-5_1_" class="st1" fill='#fff' points="0,18.5 15.9,18.5 15.9,0.3 0,0.3 		"/>
	</g>
</mask>
<polygon id="Fill-17" class="st9" fill='#72A5FF' points="7.6,16.3 8.2,16.3 8.2,15 7.6,15 "/>
</svg>
