<?xml version="1.0" encoding="UTF-8"?>
<svg width="16px" height="19px" viewBox="0 0 16 19" version="1.1" xmlns="http://www.w3.org/2000/svg" xmlns:xlink="http://www.w3.org/1999/xlink">
    <!-- Generator: Sketch 52.2 (67145) - http://www.bohemiancoding.com/sketch -->
    <title>分组 copy</title>
    <desc>Created with Sketch.</desc>
    <defs>
        <polygon id="path-1" points="2.96296296e-05 0.0824238095 15.9191111 0.0824238095 15.9191111 16.2857143 2.96296296e-05 16.2857143"></polygon>
        <polygon id="path-3" points="0.280566667 0.240666667 0.961566667 0.240666667 0.961566667 4.66151429 0.280566667 4.66151429"></polygon>
        <polygon id="path-5" points="0 18.457746 15.9191111 18.457746 15.9191111 0.301587302 0 0.301587302"></polygon>
    </defs>
    <g id="Page-1" stroke="none" stroke-width="1" fill="none" fill-rule="evenodd">
        <g id="主界面/清空历史2" transform="translate(-49.000000, -60.000000)">
            <g id="分组-copy" transform="translate(49.000000, 60.000000)">
                <g id="分组" transform="translate(0.000000, 2.172032)">
                    <mask id="mask-2" fill="white">
                        <use xlink:href="#path-1"></use>
                    </mask>
                    <g id="Clip-2"></g>
                    <path d="M15.9191407,8.18396349 C15.9191407,12.6583127 12.3555852,16.2858048 7.95943704,16.2858048 C3.56358519,16.2858048 2.96296296e-05,12.6583127 2.96296296e-05,8.18396349 C2.96296296e-05,3.70961429 3.56358519,0.0824238095 7.95943704,0.0824238095 C12.3555852,0.0824238095 15.9191407,3.70961429 15.9191407,8.18396349" id="Fill-1" fill="#B4B7BE" mask="url(#mask-2)"></path>
                </g>
                <path d="M9.57034074,11.9851397 C9.57034074,12.9092032 8.83434074,13.658346 7.92648889,13.658346 C7.01834074,13.658346 6.28234074,12.9092032 6.28234074,11.9851397 C6.28234074,11.0610762 7.01834074,10.3116317 7.92648889,10.3116317 C8.83434074,10.3116317 9.57034074,11.0610762 9.57034074,11.9851397" id="Fill-3" fill="#6C717F"></path>
                <path d="M7.70157037,4.6479127 C5.23460741,4.78181746 3.25712593,6.90830952 3.25179259,9.42264286 C3.24942222,10.6799603 3.7234963,11.8232778 4.50008889,12.678881 C4.83727407,13.0507381 5.41060741,13.0670238 5.78186667,12.7304524 C6.31460741,12.2470079 7.07371852,11.9445159 7.91786667,11.9445159 C8.82838519,11.9445159 9.64053333,12.2961667 10.1765333,12.8471667 C10.4707556,13.1499603 10.9436444,13.1629286 11.2434963,12.8658651 C12.1217185,11.9954841 12.6672,10.778881 12.6672,9.43259524 C12.6672,6.69930952 10.4186074,4.50043651 7.70157037,4.6479127" id="Fill-5" fill="#434C5D"></path>
                <path d="M11.5662815,8.35695397 C11.4682074,8.35695397 11.3769481,8.29422381 11.3434667,8.1947 C10.9870222,7.13341429 10.1440593,6.30917619 9.08865185,5.98949365 C8.88539259,5.92796984 8.67502222,5.88574762 8.46317037,5.86373175 C8.33368889,5.85016032 8.23946667,5.73254127 8.2528,5.60104921 C8.26583704,5.46925556 8.3810963,5.37516032 8.51087407,5.38662063 C8.75176296,5.41165238 8.99146667,5.45990635 9.22287407,5.5298746 C10.4243556,5.89389048 11.3834667,6.83182698 11.7890963,8.03968413 C11.8311704,8.16484286 11.7653926,8.30116032 11.6424296,8.34398571 C11.6172444,8.35273175 11.5914667,8.35695397 11.5662815,8.35695397" id="Fill-7" fill="#FFFFFF"></path>
                <path d="M7.95155556,5.62571905 C7.95155556,5.80365556 7.80992593,5.94781429 7.63540741,5.94781429 C7.46059259,5.94781429 7.31896296,5.80365556 7.31896296,5.62571905 C7.31896296,5.44778254 7.46059259,5.30362381 7.63540741,5.30362381 C7.80992593,5.30362381 7.95155556,5.44778254 7.95155556,5.62571905" id="Fill-9" fill="#FFFFFF"></path>
                <g id="分组" transform="translate(7.407407, 0.060921)">
                    <mask id="mask-4" fill="white">
                        <use xlink:href="#path-3"></use>
                    </mask>
                    <g id="Clip-12"></g>
                    <path d="M0.3319,4.66151429 L0.910233333,4.66151429 C0.938566667,4.66151429 0.961566667,4.64070476 0.961566667,4.61537143 L0.961566667,0.286990476 C0.961566667,0.261355556 0.938566667,0.240546032 0.910233333,0.240546032 L0.3319,0.240546032 C0.303566667,0.240546032 0.280566667,0.261355556 0.280566667,0.286990476 L0.280566667,4.61537143 C0.280566667,4.64070476 0.303566667,4.66151429 0.3319,4.66151429" id="Fill-11" fill="#434C5D" mask="url(#mask-4)"></path>
                </g>
                <polygon id="Fill-13" fill="#434C5D" points="4.67955556 15.5018286 4.26059259 15.0753841 5.12459259 14.195654 5.54355556 14.6220984"></polygon>
                <polygon id="Fill-15" fill="#434C5D" points="11.0505185 15.5018286 10.1865185 14.6220984 10.6054815 14.195654 11.4694815 15.0753841"></polygon>
                <mask id="mask-6" fill="white">
                    <use xlink:href="#path-5"></use>
                </mask>
                <g id="Clip-18"></g>
                <polygon id="Fill-17" fill="#434C5D" mask="url(#mask-6)" points="7.62577778 16.2965714 8.21837037 16.2965714 8.21837037 15.0425714 7.62577778 15.0425714"></polygon>
            </g>
        </g>
    </g>
</svg>