<svg id="图层_1" data-name="图层 1" xmlns="http://www.w3.org/2000/svg" viewBox="0 0 24 24">
<defs><style>.cls-1,.cls-2{fill:#4387ff;}.cls-2{opacity:0.4;}</style></defs>
<path fill='#4387ff' class="cls-1" d="M15.37,2.94H8.7A3.67,3.67,0,0,0,5,6.61V7.94H7a1,1,0,0,1,1,1v2a1,1,0,0,0,1,1h6a1,1,0,0,0,1-1v-2a1,1,0,0,1,1-1h2V6.61A3.66,3.66,0,0,0,15.37,2.94Z"/>
<path fill='#4387ff' opacity='0.4' class="cls-2" d="M18,10.94a3,3,0,0,1-3,3H9a3,3,0,0,1-3-3v-1H5v3.33a3.67,3.67,0,0,0,3.06,3.61c-.11.15-.23.3-.35.44-.61.79-1.18,1.53-1.54,2.06a1,1,0,1,0,1.67,1.11c.31-.47.89-1.21,1.45-1.94s.89-1.14,1.23-1.61h3c.34.47.78,1,1.23,1.61S15.89,20,16.2,20.49a1,1,0,0,0,.83.45,1,1,0,0,0,.56-.17,1,1,0,0,0,.28-1.39c-.36-.53-.94-1.27-1.55-2.06L16,16.88A3.66,3.66,0,0,0,19,13.27V9.94H18Z"/>
</svg>