<svg id="图层_1" data-name="图层 1" xmlns="http://www.w3.org/2000/svg" viewBox="0 0 24 24"><defs><style>.cls-1{fill:#1d9390;}</style></defs><path class="cls-1" d="M18,3H6A3,3,0,0,0,3,6V18a3,3,0,0,0,3,3H18a3,3,0,0,0,3-3V6A3,3,0,0,0,18,3Zm1,15a1,1,0,0,1-1,1H13v-.5a1,1,0,0,0-2,0V19H6a1,1,0,0,1-1-1V6A1,1,0,0,1,6,5h5v.5a1,1,0,0,0,2,0V5h5a1,1,0,0,1,1,1Z"/><path class="cls-1" d="M12,14a1,1,0,0,0-1,1v.87a1,1,0,1,0,2,0V15A1,1,0,0,0,12,14Z"/><path class="cls-1" d="M12,10.57a1,1,0,0,0-1,1v.86a1,1,0,0,0,2,0v-.86A1,1,0,0,0,12,10.57Z"/><path class="cls-1" d="M12,7.1a1,1,0,0,0-1,1V9a1,1,0,0,0,2,0V8.1A1,1,0,0,0,12,7.1Z"/></svg>