<svg id="图层_1" data-name="图层 1" xmlns="http://www.w3.org/2000/svg" xmlns:xlink="http://www.w3.org/1999/xlink" viewBox="0 0 24 24">
<defs><style>.cls-1{fill:none;}.cls-2{clip-path:url(#clip-path);}.cls-3,.cls-5,.cls-6{fill:#4387ff;}.cls-3,.cls-4{opacity:0.4;}.cls-5{opacity:0.7;}</style>
<clipPath id="clip-path">
<path class="cls-1" fill='none' d="M-61.65-46c-.5,0-1,.51-1.27.89-.31-.38-.78-.89-1.28-.89a1.64,1.64,0,0,0-1.64,1.65,2.12,2.12,0,0,0,.47,1.24,11.9,11.9,0,0,0,2.23,2,.38.38,0,0,0,.43,0,11.9,11.9,0,0,0,2.23-2A2.12,2.12,0,0,0-60-44.37,1.64,1.64,0,0,0-61.65-46Z"/></clipPath>
</defs>
<path class="cls-3" fill='#4387ff' opacity='0.4' d="M12,2.94A9,9,0,0,0,6.48,19L11,12.94c.88,1.39,1.75,2.79,2.62,4.18L16,13.94l2.58,4.13A9,9,0,0,0,12,2.94Z"/>
<path class="cls-4" fill='#4387ff' opacity='0.4' d="M6.48,19a8.92,8.92,0,0,0,4.37,1.84c.93-1.24,1.86-2.49,2.8-3.73-.87-1.39-1.74-2.79-2.62-4.18Z"/>
<path class="cls-5" fill='#4387ff' opacity='0.7' d="M6.48,19a8.92,8.92,0,0,0,4.37,1.84c.93-1.24,1.86-2.49,2.8-3.73-.87-1.39-1.74-2.79-2.62-4.18Z"/>
<path class="cls-6" fill='#4387ff' d="M18.61,18.07,16,13.94l-5.18,6.91a9.23,9.23,0,0,0,1.18.09A9,9,0,0,0,18.61,18.07Z"/>
<circle class="cls-6" fill='#4387ff' cx="15.53" cy="8.44" r="1.5"/></svg>