<svg id="图层_1" data-name="图层 1" xmlns="http://www.w3.org/2000/svg" viewBox="0 0 24 24"><defs><style>.cls-1{fill:#1d9390;}</style></defs><path class="cls-1" d="M12,2.5A9.5,9.5,0,1,0,21.5,12,9.51,9.51,0,0,0,12,2.5ZM4.5,12A7.5,7.5,0,0,1,19.15,9.73a6.92,6.92,0,0,0-4.86.57,11.66,11.66,0,0,0-1.56,1,2.79,2.79,0,0,1-1.57.8,3.15,3.15,0,0,1-1.31-.24,5,5,0,0,0-2-.35,6.61,6.61,0,0,0-3.29,1.21A6.62,6.62,0,0,1,4.5,12ZM12,19.5a7.52,7.52,0,0,1-6.95-4.68l.25-.16a5.27,5.27,0,0,1,2.64-1.1,2.77,2.77,0,0,1,1.25.24,5,5,0,0,0,2.07.35,4.61,4.61,0,0,0,2.68-1.21,9.37,9.37,0,0,1,1.29-.88,5.32,5.32,0,0,1,4.26-.16.31.31,0,0,1,0,.1A7.5,7.5,0,0,1,12,19.5Z"/><path class="cls-1" d="M10.69,9.72A1.63,1.63,0,1,0,9.07,8.09,1.63,1.63,0,0,0,10.69,9.72Z"/></svg>