<svg id="图层_1" data-name="图层 1" xmlns="http://www.w3.org/2000/svg" xmlns:xlink="http://www.w3.org/1999/xlink" viewBox="0 0 24 24">
<defs>
<style>.cls-1{fill:none;}.cls-2,.cls-4{fill:#434c5d;}.cls-2{opacity:0.4;}.cls-3{clip-path:url(#clip-path);}</style>
<clipPath id="clip-path">
<path class="cls-1" d="M-11.65-16.06c-.5,0-1,.51-1.27.89-.31-.38-.78-.89-1.28-.89a1.64,1.64,0,0,0-1.64,1.65,2.12,2.12,0,0,0,.47,1.24,11.9,11.9,0,0,0,2.23,2,.38.38,0,0,0,.43,0,11.9,11.9,0,0,0,2.23-2A2.12,2.12,0,0,0-10-14.41,1.64,1.64,0,0,0-11.65-16.06Z"/>
</clipPath>
</defs>
<polygon class="cls-2" fill="#434c5d" opacity="0.4" points="3.04 2.94 2.99 18.16 10.44 18.16 12.21 13.02 19.03 13.02 19.03 2.94 3.04 2.94"/>
<path class="cls-2" fill="#434c5d" opacity="0.4" d="M9,4.94H5L5,16.16H9L10.78,11H17V4.94Z"/>
<rect class="cls-4" fill="#434c5d" x="3.03" y="2.94" width="3" height="18"/>
<rect class="cls-4" fill="#434c5d" x="5.03" y="2.94" width="16" height="3"/>
</svg>