<svg id="图层_1" data-name="图层 1" xmlns="http://www.w3.org/2000/svg" xmlns:xlink="http://www.w3.org/1999/xlink" viewBox="0 0 24 24">
<defs>
<style>.cls-1{fill:none;}.cls-2{clip-path:url(#clip-path);}.cls-3,.cls-4{fill:#434c5d;}.cls-3{opacity:0.4;}</style>
<clipPath id="clip-path">
<path class="cls-1" d="M38.35-16.06c-.5,0-1,.51-1.27.89-.31-.38-.78-.89-1.28-.89a1.64,1.64,0,0,0-1.64,1.65,2.12,2.12,0,0,0,.47,1.24,11.9,11.9,0,0,0,2.23,2,.38.38,0,0,0,.43,0,11.9,11.9,0,0,0,2.23-2A2.12,2.12,0,0,0,40-14.41,1.64,1.64,0,0,0,38.35-16.06Z"/>
</clipPath>
</defs>
<path class="cls-1" fill="none" d="M13,20.94V14.76a3,3,0,0,1-1,.18,3.05,3.05,0,0,1-1-.18v6.18Z"/>
<path class="cls-3" fill="#434c5d" opacity="0.4" d="M11,9.12V3H4A1,1,0,0,0,3,4v6.94H9.22A3,3,0,0,1,11,9.12Z"/>
<path class="cls-3" fill="#434c5d" opacity="0.4" d="M21,4a1,1,0,0,0-1-1H13V9.12a3,3,0,0,1,1.82,1.82H21Z"/>
<circle class="cls-4" fill="#434c5d" cx="12.03" cy="11.94" r="2"/>
<path class="cls-3" fill="#434c5d" opacity="0.4" d="M14.85,12.94A3,3,0,0,1,13,14.76V21h7a1,1,0,0,0,1-1V12.94Z"/>
<path class="cls-3" fill="#434c5d" opacity="0.4" d="M11,20.94V14.76a3,3,0,0,1-1.81-1.82H3V20a1,1,0,0,0,1,1h7Z"/>
</svg>