<?xml version="1.0" encoding="UTF-8"?>
<svg width="163px" height="148px" viewBox="0 0 163 148" version="1.1" xmlns="http://www.w3.org/2000/svg" xmlns:xlink="http://www.w3.org/1999/xlink">
    <!-- Generator: Sketch 49.3 (51167) - http://www.bohemiancoding.com/sketch -->
    <desc>Created with Sketch.</desc>
    <defs></defs>
    <g id="Artboard" stroke="none" stroke-width="1" fill="none" fill-rule="evenodd">
        <path d="M145.88,64.64 L129.67,74 L113.47,83.36 L113.47,120.79 L129.67,130.15 L145.88,139.51 L160.25,147.8 C160.6286,148.023418 161.09812,148.025877 161.47903,147.806436 C161.85995,147.586994 162.09335,147.179592 162.09,146.74 L162.09,111.44 L162.09,92.72 L162.09,74 L162.09004,55.28 L145.88,64.64 Z" id="Shape" fill="#DBE3EE" fill-rule="nonzero"></path>
        <path d="M160.25,0.2 L145.88,8.49 L129.67,17.85 L113.47,27.21 L97.26,36.56 L81.03,45.92 L81.03,83.36 L81.03,102.07 L97.23,92.71 L113.44,83.36 L129.64,74 L145.85,64.64 L162.06,55.28 L162.06,1.28 C162.06433,0.846071 161.83784,0.442501 161.46519,0.220144 C161.09254,-0.002212 160.62982,-0.009883 160.25,0.2 Z" id="Shape" fill="#FFFFFF" fill-rule="nonzero"></path>
        <path d="M48.62,83.36 L0.02,111.43 L0.02,146.72 C0.02339,147.159241 0.2589,147.563911 0.63914,147.783831 C1.01937,148.003751 1.48758,148.006098 1.87,147.79 L48.62,120.78 L48.62,83.36 Z" id="Shape" fill="#DBE3EE" fill-rule="nonzero"></path>
        <polygon id="Shape" fill="#B6C6DF" fill-rule="nonzero" points="16.21 64.64 0 55.29 0 74 0 92.71 0 111.43 16.2 102.07 32.41 92.71 48.62 83.36 32.42 74"></polygon>
        <path d="M64.84,36.56 L48.63,27.21 L32.42,17.85 L16.21,8.49 L1.85,0.2 C1.46994,-0.021818 1.00033,-0.023695 0.6185,0.195079 C0.23668,0.413853 0.00083,0.819943 0,1.26 L0,36.56 L0,55.27 L16.2,64.62 L32.4,73.98 L48.6,83.34 L64.8,92.69 L81,102.04 L81,83.36 L81,45.92 L64.84,36.56 Z" id="Shape" fill="#DBE3EE" fill-rule="nonzero"></path>
    </g>
</svg>