<svg id="图层_1" data-name="图层 1" xmlns="http://www.w3.org/2000/svg" viewBox="0 0 24 24"><defs>
<style>.cls-1,.cls-2,.cls-3{fill:#434c5d;}.cls-1{opacity:0.4;}.cls-2{opacity:0.7;}</style>
</defs><title></title>
<path class="cls-1" fill='#434c5d' opacity='0.4' d="M22.75,7.07,20.62,4.54A1.35,1.35,0,0,0,19.52,4h-15a1.36,1.36,0,0,0-1.1.54L1.29,7.07C.22,8.54,2.39,9,2.39,9s6.72,1.44,4.77,5.17S4,18.1,4.63,19,16.8,20.73,20,19s-4.13-3.18-5.8-4.5S16.09,10,20.73,9C20.73,9,23.83,8.54,22.75,7.07Z"/>
<path class="cls-2" fill='#434c5d' opacity='0.7' d="M20.18,7.66H4a.7.7,0,0,1-.62-1.14l1-1.37a.83.83,0,0,1,.62-.27H19.14a.84.84,0,0,1,.63.27l1,1.37A.7.7,0,0,1,20.18,7.66Z"/>
<path class="cls-3" fill='#434c5d' d="M20,19c3.14-1.76-4.13-3.18-5.8-4.5S15.73,10.27,20,9.15h0S11,9.07,9.49,19.87h0C13.24,20.13,18.07,20,20,19Z"/></svg>