<?xml version="1.0" encoding="UTF-8"?>
<svg width="54px" height="35px" viewBox="0 0 54 35" version="1.1" xmlns="http://www.w3.org/2000/svg" xmlns:xlink="http://www.w3.org/1999/xlink">
    <!-- Generator: Sketch 52.4 (67378) - http://www.bohemiancoding.com/sketch -->
    <title></title>
    <desc>Created with Sketch.</desc>
    <g id="橱柜定制" stroke="none" stroke-width="1" fill="none" fill-rule="evenodd">
        <g id="水槽属性面板" transform="translate(-264.000000, -376.000000)">
            <g id="矩形洞-copy-2" transform="translate(242.000000, 345.000000)">
                <g id="分组-3" transform="translate(22.000000, 33.000000)">
                    <rect id="矩形-copy-3" fill="#4387FF" fill-rule="nonzero" x="0" y="6" width="8" height="8" rx="1"></rect>
                    <rect id="矩形-copy-4" fill="#4387FF" fill-rule="nonzero" x="46" y="6" width="8" height="8" rx="1"></rect>
                    <polygon id="矩形" fill="#E4F1FF" fill-rule="nonzero" points="12 8 19 8 18 15 13 15"></polygon>
                    <path d="M27,15.6967673 L27,2.8 C27,1.2536 28.3431429,-8.79296636e-14 30,-8.79296636e-14 C31.6568571,-8.79296636e-14 33,1.2536 33,2.8 L33,4.85421429" id="Stroke-1" stroke="#E4F1FF" stroke-width="3"></path>
                    <path d="M5,18 L49,18 L48.2358372,22.862854 C47.3186583,28.6994469 42.2895292,33 36.3813117,33 L17.6186883,33 C11.7104708,33 6.68134166,28.6994469 5.76416277,22.862854 L5,18 Z" id="矩形" fill="#E4F1FF" fill-rule="nonzero"></path>
                    <rect id="矩形" fill="#9BCBFF" fill-rule="nonzero" x="1" y="15" width="52" height="2" rx="1"></rect>
                </g>
            </g>
        </g>
    </g>
</svg>