<svg id="图层_1" data-name="图层 1" xmlns="http://www.w3.org/2000/svg" viewBox="0 0 24 24"><defs><style>.cls-1{fill:#1d9390;}</style></defs><title></title><path class="cls-1" d="M18,4H14.62a3.2,3.2,0,0,0-.72-.88,3,3,0,0,0-2.49-.62l-6,1.2A3,3,0,0,0,3,6.64V17.36A3,3,0,0,0,5.41,20.3l6,1.2a3,3,0,0,0,.59.06,3,3,0,0,0,1.9-.68,3.2,3.2,0,0,0,.72-.88H18a3,3,0,0,0,3-3V7A3,3,0,0,0,18,4ZM11.8,19.54l-6-1.2a1,1,0,0,1-.8-1V6.64a1,1,0,0,1,.8-1l6-1.2.2,0a1,1,0,0,1,1,1V18.56a1,1,0,0,1-.37.77A1,1,0,0,1,11.8,19.54ZM19,17a1,1,0,0,1-1,1H15V6h3a1,1,0,0,1,1,1Z"/><path class="cls-1" d="M11,9a1,1,0,0,0-1,1v3a1,1,0,0,0,2,0V10A1,1,0,0,0,11,9Z"/></svg>