<?xml version="1.0" encoding="UTF-8"?>
<svg width="33px" height="28px" viewBox="0 0 33 28" version="1.1" xmlns="http://www.w3.org/2000/svg" xmlns:xlink="http://www.w3.org/1999/xlink">
    <!-- Generator: Sketch 52.4 (67378) - http://www.bohemiancoding.com/sketch -->
    <title></title>
    <desc>Created with Sketch.</desc>
    <g id="橱柜定制" stroke="none" stroke-width="1" fill="none" fill-rule="evenodd">
        <g id="台面弹框-不选后挡水" transform="translate(-786.000000, -486.000000)" fill-rule="nonzero">
            <g id="矩形洞-copy" transform="translate(768.000000, 466.000000)">
                <g id="分组-2" transform="translate(18.000000, 20.000000)">
                    <rect id="矩形" fill="#F0F1F2" x="2" y="11" width="30" height="17"></rect>
                    <rect id="矩形" fill="#F0F1F2" transform="translate(10.500000, 16.000000) rotate(90.000000) translate(-10.500000, -16.000000) " x="-1.5" y="7.5" width="24" height="17"></rect>
                    <path d="M2,0.5 C1.17157288,0.5 0.5,1.17157288 0.5,2 C0.5,2.82842712 1.17157288,3.5 2,3.5 L18,3.5 C18.8284271,3.5 19.5,2.82842712 19.5,2 C19.5,1.17157288 18.8284271,0.5 18,0.5 L2,0.5 Z M18,10.5 C17.1715729,10.5 16.5,11.1715729 16.5,12 C16.5,12.8284271 17.1715729,13.5 18,13.5 L31,13.5 C31.8284271,13.5 32.5,12.8284271 32.5,12 C32.5,11.1715729 31.8284271,10.5 31,10.5 L18,10.5 Z" id="合并形状" stroke="#89C6FF" fill="#4387FF"></path>
                </g>
            </g>
        </g>
    </g>
</svg>