<svg id="图层_1" data-name="图层 1" xmlns="http://www.w3.org/2000/svg" viewBox="0 0 24 24"><title>0</title><path d="M21,12.2c0-1.77-2-3.21-5.08-3.88C15.29,5.13,13.84,3,12,3,9.62,3,7.8,6.85,7.8,12a19.88,19.88,0,0,0,.14,2.37c-2.12-.55-3.36-1.46-3.36-2.17,0-.4.39-.86,1.06-1.27L6,10.75l.12.21a.38.38,0,0,0,.51.15A.31.31,0,0,0,6.75,11l1-2a.36.36,0,0,0-.18-.49l-.13,0L5.23,8.28a.4.4,0,0,0-.4.37.41.41,0,0,0,0,.19l.29.5-.36.19A3.16,3.16,0,0,0,3,12.19c0,1.8,2.11,3.27,5.27,3.92C8.92,19.06,10.33,21,12,21s3.07-1.82,3.8-4.91C18.94,15.43,21,14,21,12.2ZM12,4.51c.75,0,1.74,1.29,2.29,3.54A19.15,19.15,0,0,0,12,7.91c-.63,0-1.62.09-2.22.14C10.32,5.8,11.28,4.51,12,4.51Zm0,15c-.71,0-1.59-1.13-2.16-3.11a20.58,20.58,0,0,0,2.12.11,19.42,19.42,0,0,0,2.2-.13C13.61,18.41,12.71,19.48,12,19.48Zm0-4.63a18.51,18.51,0,0,1-2.46-.17,18.11,18.11,0,0,1,0-5,.91.91,0,0,0,.17,0h.2c.42,0,1.55-.15,2.15-.15a17.56,17.56,0,0,1,2.62.2,15.67,15.67,0,0,1,.11,1.59h-.44a.38.38,0,0,0-.37.38.37.37,0,0,0,.07.2l1.22,1.86a.37.37,0,0,0,.51.1.32.32,0,0,0,.1-.1L17,11.9a.36.36,0,0,0-.1-.51.37.37,0,0,0-.2-.07h-.49c0-.43,0-.86-.07-1.27,2,.56,3.2,1.45,3.2,2.14C19.37,13.28,16.48,14.85,12,14.85Z"/></svg>