<svg xmlns="http://www.w3.org/2000/svg" viewBox="0 0 24 24"><defs><style>.cls-1{fill:#666;}</style></defs><title>画板 1 副本 3</title><g id="杂乱涂层"><path class="cls-1" d="M15.535,11.989l-5.854,0H8.464a.51.51,0,0,0,0,1.016l7.071-.006a.51.51,0,0,0,0-1.016Z"/><path class="cls-1" d="M19,2H15.512L15.5,2l-.012,0H8.512L8.5,2,8.488,2H5A1,1,0,0,0,4,3V21a1,1,0,0,0,1,1H19a1,1,0,0,0,1-1V3A1,1,0,0,0,19,2ZM9,3h6V5.5a.5.5,0,0,1-.5.5h-5A.5.5,0,0,1,9,5.5ZM19,21H5V3H8V5.5A1.5,1.5,0,0,0,9.5,7h5A1.5,1.5,0,0,0,16,5.5V3h3Z"/><path class="cls-1" d="M15.535,14.989l-5.854,0H8.464a.51.51,0,0,0,0,1.016l7.071-.006a.51.51,0,0,0,0-1.016Z"/></g></svg>