<svg xmlns="http://www.w3.org/2000/svg" viewBox="0 0 24 24"><defs><style>.cls-1{fill:#666;}</style></defs><title>画板 1 副本 4</title><g id="撤回"><path class="cls-1" d="M21.828,18.084A13.721,13.721,0,0,0,11.575,6.98V3.5a.5.5,0,0,0-.8-.4L2.2,9.623a.5.5,0,0,0,0,.8l8.574,6.515a.5.5,0,0,0,.525.049.5.5,0,0,0,.278-.448V13.521a12.592,12.592,0,0,1,9.4,8.146.5.5,0,0,0,.471.333.43.43,0,0,0,.062,0,.5.5,0,0,0,.436-.45A13.9,13.9,0,0,0,21.828,18.084ZM11.151,12.43a.477.477,0,0,0-.076-.006.5.5,0,0,0-.5.5v2.6L3.327,10.021l7.248-5.512V7.38a.5.5,0,0,0,.4.489A12.707,12.707,0,0,1,20.84,18.241c.052.325.091.653.117.981A13.6,13.6,0,0,0,11.151,12.43Z"/></g></svg>