<svg xmlns="http://www.w3.org/2000/svg" viewBox="0 0 24 24"><defs><style>.cls-1{fill:none;}.cls-2{fill:#999;}.cls-3{fill:#666;}</style></defs><title>画板 1 副本</title><g id="文件"><polygon class="cls-1" points="19.93 7.706 19.929 7.706 19.929 7.706 19.93 7.706"/><path class="cls-1" d="M19.994,7.974l0,.012v0L20,8Z"/><polygon class="cls-2" points="19.949 7.949 19.963 8.136 19.964 7.964 19.949 7.949"/><polygon class="cls-2" points="19.99 7.99 19.991 7.991 19.991 7.986 19.99 7.99"/><polygon class="cls-2" points="19.964 7.964 19.964 7.848 19.93 7.706 19.929 7.706 19.949 7.949 19.964 7.964"/><path class="cls-2" d="M19.991,7.986l0-.012,0-.009Z"/><path class="cls-2" d="M19.983,7.928l-.019-.08v.116l.026.026V7.965Z"/><path class="cls-2" d="M19.963,8.136a.483.483,0,0,0,.027-.146l-.026-.026Z"/><polygon class="cls-2" points="19.93 7.706 19.929 7.706 19.93 7.706 19.93 7.706"/><path class="cls-2" d="M20,8l-.006-.027h0Z"/><path class="cls-2" d="M19.964,7.848V7.841a1.2,1.2,0,0,0-.034-.135h0Z"/><path class="cls-2" d="M19.964,7.841v.007l.019.08Z"/></g><g id="杂乱涂层"><path class="cls-3" d="M8.5,12h7a.5.5,0,0,0,0-1h-7a.5.5,0,0,0,0,1Z"/><path class="cls-3" d="M8.5,9h7a.5.5,0,0,0,0-1h-7a.5.5,0,0,0,0,1Z"/><path class="cls-3" d="M8.5,15h7a.5.5,0,0,0,0-1h-7a.5.5,0,0,0,0,1Z"/><path class="cls-3" d="M19,2H5A1,1,0,0,0,4,3V21a1,1,0,0,0,1,1H19a1,1,0,0,0,1-1V3A1,1,0,0,0,19,2Zm0,19H5V3H19Z"/></g></svg>