<svg xmlns="http://www.w3.org/2000/svg" viewBox="0 0 24 24"><defs><style>.cls-1{fill:#616161;}</style></defs><title>画板 1 副本 6</title><g id="撤回"><path class="cls-1" d="M21.8,8.623,13.228,2.1a.5.5,0,0,0-.8.4V5.98A13.721,13.721,0,0,0,2.172,17.085a13.887,13.887,0,0,0-.112,3.461A.5.5,0,0,0,2.5,21a.43.43,0,0,0,.062,0,.5.5,0,0,0,.471-.333,12.592,12.592,0,0,1,9.4-8.146v3.015a.5.5,0,0,0,.278.448.506.506,0,0,0,.525-.049L21.8,9.42a.5.5,0,0,0,0-.8Zm-8.378,5.9v-2.6a.5.5,0,0,0-.576-.494,13.6,13.6,0,0,0-9.806,6.792c.026-.327.065-.655.117-.98A12.707,12.707,0,0,1,13.028,6.869a.5.5,0,0,0,.4-.489V3.509l7.248,5.512Z"/></g></svg>