<svg xmlns="http://www.w3.org/2000/svg" viewBox="0 0 24 24"><defs><style>.cls-1{fill:#666;}</style></defs><title>画板 1 副本 11</title><g id="帮助"><path class="cls-1" d="M12.5,7A3.5,3.5,0,0,0,9,10.5a.5.5,0,0,0,1,0A2.5,2.5,0,1,1,12.5,13a.5.5,0,0,0-.5.5v2a.5.5,0,0,0,1,0V13.949A3.492,3.492,0,0,0,12.5,7Z"/><path class="cls-1" d="M12.149,17.149A.476.476,0,0,0,12,17.5a.4.4,0,0,0,.04.189.359.359,0,0,0,.109.161A.473.473,0,0,0,12.5,18a.4.4,0,0,0,.189-.04.527.527,0,0,0,.271-.271A.4.4,0,0,0,13,17.5a.473.473,0,0,0-.15-.351A.5.5,0,0,0,12.149,17.149Z"/><path class="cls-1" d="M19.39,18.721c.137-.151.274-.3.4-.461.072-.09.137-.184.206-.276.124-.165.247-.329.36-.5.063-.1.119-.2.178-.294.108-.177.215-.353.312-.537.054-.1.1-.208.151-.313.09-.186.18-.372.258-.564.045-.111.083-.226.124-.339.07-.192.141-.383.2-.581.036-.12.063-.244.094-.366.05-.2.1-.392.14-.593.024-.127.039-.257.059-.386.031-.2.062-.4.08-.608.012-.13.014-.263.02-.394.009-.17.026-.337.026-.508,0-.042-.006-.082-.006-.124,0-.024,0-.049,0-.074,0-.105-.017-.208-.022-.313-.011-.211-.02-.422-.044-.63-.014-.122-.037-.241-.055-.361-.031-.209-.062-.418-.106-.623-.026-.117-.06-.231-.089-.347-.052-.2-.1-.4-.166-.6-.036-.113-.081-.222-.122-.333-.07-.193-.139-.387-.22-.574-.048-.11-.1-.214-.155-.321-.087-.183-.173-.366-.27-.542-.058-.1-.124-.2-.185-.3-.1-.172-.206-.345-.32-.511-.065-.095-.138-.183-.206-.275-.121-.164-.241-.329-.372-.486-.07-.083-.146-.16-.219-.241-.14-.156-.278-.313-.428-.46-.071-.07-.149-.134-.223-.2-.159-.148-.318-.3-.487-.434-.07-.056-.144-.106-.215-.16-.181-.14-.363-.28-.554-.407-.065-.044-.134-.08-.2-.122-.2-.129-.408-.257-.621-.371-.057-.031-.118-.055-.176-.085-.228-.116-.457-.23-.694-.329-.041-.017-.084-.029-.125-.046-.258-.1-.519-.2-.787-.283-.019-.006-.038-.009-.057-.015A9.983,9.983,0,0,0,12,2c-.017,0-.033,0-.05,0H11.8c-.1,0-.2.016-.3.021-.218.011-.435.021-.648.046-.12.014-.237.036-.356.054-.213.032-.426.064-.634.11-.118.025-.232.059-.348.089-.2.052-.407.1-.606.169-.115.037-.226.083-.339.124-.193.071-.386.141-.573.223-.113.049-.221.106-.331.159-.181.087-.362.174-.536.272-.108.06-.21.127-.316.191-.169.1-.339.206-.5.319-.1.07-.2.146-.293.219-.159.12-.319.238-.47.367-.092.077-.178.161-.267.242-.148.134-.3.269-.436.412-.082.085-.158.174-.238.262-.136.149-.272.3-.4.457-.073.09-.139.186-.209.28-.122.163-.244.326-.356.5-.065.1-.122.2-.182.3-.107.174-.213.349-.309.53-.055.1-.1.213-.153.32-.089.184-.178.368-.256.558-.046.113-.084.23-.126.345-.07.19-.14.379-.2.575-.036.122-.064.248-.1.372-.05.2-.1.388-.139.586-.025.13-.04.263-.06.394-.03.2-.061.4-.079.6-.012.133-.014.268-.021.4-.008.167-.025.332-.025.5,0,.041.006.081.006.122,0,.026,0,.05,0,.076,0,.107.017.212.022.319.011.209.02.417.044.622.014.125.037.247.056.37.031.206.061.412.1.614.026.12.061.237.091.356.051.2.1.4.163.592.038.116.084.228.125.341.07.191.137.382.218.567.048.112.1.218.157.327.086.181.171.362.268.537.058.105.125.2.187.307.1.171.2.343.317.507.066.1.139.185.208.278.121.163.24.328.371.483.07.084.147.161.219.242.14.156.278.313.427.46.072.07.149.133.222.2.16.149.32.3.49.436.067.055.139.1.207.155.184.142.368.284.562.413.061.041.126.075.188.114.208.132.416.262.633.379.052.027.107.05.16.077.233.119.467.235.71.336.036.015.073.026.109.04.263.106.529.206.8.29l.031.008A10.009,10.009,0,0,0,12,22c.017,0,.033,0,.05,0H12.2c.1,0,.2-.016.3-.021.218-.011.435-.021.649-.046.119-.014.236-.036.354-.054.213-.032.427-.064.636-.11.116-.025.23-.059.345-.089.205-.052.409-.1.608-.169.114-.037.225-.082.337-.123.194-.071.387-.142.575-.224.112-.049.219-.105.329-.158.182-.088.363-.175.539-.273.106-.06.208-.126.312-.189.171-.1.342-.208.506-.322.1-.069.193-.144.289-.216.161-.12.321-.24.474-.369.09-.077.175-.159.263-.239.149-.136.3-.271.44-.416C19.237,18.9,19.312,18.806,19.39,18.721ZM21,11.822A9,9,0,0,1,12.178,21L12,21A9,9,0,0,1,11.822,3l.183,0A9.043,9.043,0,0,1,21,11.822Z"/></g></svg>