<svg xmlns="http://www.w3.org/2000/svg" viewBox="0 0 24 24"><defs><style>.cls-1{fill:#666;}</style></defs><title>画板 1 副本 9</title><g id="显示"><path class="cls-1" d="M11.844,4.9c-5.523,0-10,7-10,7s4.477,7,10,7,10-7,10-7S17.367,4.9,11.844,4.9Zm0,13c-4.058,0-7.643-4.434-8.782-6,1.139-1.566,4.724-6,8.782-6s7.643,4.434,8.782,6C19.487,13.468,15.9,17.9,11.844,17.9Z"/><path class="cls-1" d="M11.932,9a3,3,0,1,0,2.932,3A2.967,2.967,0,0,0,11.932,9Zm0,5a2,2,0,1,1,1.932-2A1.969,1.969,0,0,1,11.932,14Z"/></g></svg>