<svg class="arrow-left" width="60px" height="60px" viewBox="0 0 60 60" version="1.1" xmlns="http://www.w3.org/2000/svg" xmlns:xlink="http://www.w3.org/1999/xlink">
    <defs>
        <polygon id="path-1" points="0 0.087 59.91288 0.087 59.91288 59.99997 0 59.99997"></polygon>
    </defs>
    <g id="Page-2" stroke="none" stroke-width="1" fill="none" fill-rule="evenodd">
        <g id="查看渲染图-details-view" transform="translate(-1286.000000, -287.000000)">
            <g id="翻页" transform="translate(1286.000000, 287.000000)">
                <g id="Group-3">
                    <mask id="mask-2" fill="white">
                        <use xlink:href="#path-1"></use>
                    </mask>
                    <g id="Clip-2"></g>
                    <path d="M29.9984978,0 C46.5419859,0 60,13.4595163 60,29.9984978 C60,46.5404837 46.5419859,60 30.0003004,60 C13.4580141,60 0,46.5404837 0,29.9984978 C0,13.4580141 13.4565119,0 29.9984978,0"
                          id="Fill-1" fill="#FFFFFF" opacity="0.1" mask="url(#mask-2)"></path>
                    <path d="M36.7530741,29.8367666 C36.7118513,29.7946334 24.3993837,17.2523792 24.3993837,17.2523792 C24.0701492,16.9158736 23.5762974,16.9158736 23.2469259,17.2523792 C22.9176914,17.5888849 22.9176914,18.1357765 23.2469259,18.430289 L34.9830961,30.4677846 L23.2469259,42.5082198 C22.9176914,42.8448654 22.9176914,43.3916171 23.2469259,43.6861296 C23.5762974,43.980642 24.0701492,44.0227752 24.3993837,43.6861296 C24.3993837,43.6861296 36.7118513,31.1438754 36.7530741,31.1017422 C36.9176914,30.9334894 37,30.7231034 37,30.4707242 C37,30.2603381 36.9176914,30.0050194 36.7530741,29.8367666"
                          id="Fill-1" fill="#D1DBE2" mask="url(#mask-2)"></path>
                </g>
            </g>
        </g>
    </g>
</svg>