<svg xmlns="http://www.w3.org/2000/svg" viewBox="0 0 18.97 13.12"><defs><style>.cls-1{fill:#1d9390;}</style></defs><g id="图层_2" data-name="图层 2"><g id="图层_1-2" data-name="图层 1"><path class="cls-1" d="M8.78.24h0L.29,7.32a.74.74,0,0,0,0,1.18,1.14,1.14,0,0,0,1.42,0L9.49,2,17.26,8.5a1.14,1.14,0,0,0,1.42,0,.74.74,0,0,0,0-1.18L10.19.24A1.16,1.16,0,0,0,8.78.24Z"/><path class="cls-1" d="M8.78,4.62h0L.29,11.7a.74.74,0,0,0,0,1.18,1.14,1.14,0,0,0,1.42,0L9.49,6.39l7.77,6.49a1.14,1.14,0,0,0,1.42,0,.74.74,0,0,0,0-1.18L10.19,4.62A1.13,1.13,0,0,0,8.78,4.62Z"/></g></g></svg>