<svg xmlns="http://www.w3.org/2000/svg" viewBox="0 0 17.41 19.97"><g id="图层_2" data-name="图层 2"><g id="图层_1-2" data-name="图层 1"><path d="M16.73,14.51l-1-1a1.31,1.31,0,0,1,0-.49V8.71A7,7,0,0,0,11,2.25a2.28,2.28,0,0,0-4.55,0A7,7,0,0,0,1.71,8.71V13a1.37,1.37,0,0,1,0,.48l-1,1A2.36,2.36,0,0,0,0,16a1.42,1.42,0,0,0,1.49,1.35H5.13A3.51,3.51,0,0,0,8.54,20a3.86,3.86,0,0,0,3.7-2.56l3.68,0A1.42,1.42,0,0,0,17.41,16,2.36,2.36,0,0,0,16.73,14.51ZM8.54,18.19a1.74,1.74,0,0,1-1.47-.82H10A1.74,1.74,0,0,1,8.54,18.19ZM2.23,15.41,3,14.78A3.06,3.06,0,0,0,3.71,13V8.71A5,5,0,0,1,7.54,3.79a.89.89,0,0,0,.68-.87V2.27c0-.24.31-.27.49-.27s.48.09.48.27v.65a.89.89,0,0,0,.69.87A5,5,0,0,1,13.7,8.71V13a3,3,0,0,0,.77,1.79l.63.63Z"/></g></g></svg>