<svg id="图层_1" data-name="图层 1" xmlns="http://www.w3.org/2000/svg" viewBox="0 0 28 28"><defs><style>.cls-1{fill:#1d9390;}</style></defs><title></title><path class="cls-1" d="M22.12,21.12l-.05.05S22.1,21.13,22.12,21.12Z"/><path class="cls-1" d="M12,18.4A4.38,4.38,0,1,1,16.35,14,4.38,4.38,0,0,1,12,18.4Zm0-7A2.63,2.63,0,1,0,14.6,14,2.63,2.63,0,0,0,12,11.4Z"/><circle class="cls-1" cx="18.98" cy="11.02" r="1"/><path class="cls-1" d="M27.39,15.84l-3.23-3.23A1,1,0,0,0,23,12.45V10a3,3,0,0,0-3-3H18.7l-.32-.95A3,3,0,0,0,15.54,4H8.42A3,3,0,0,0,5.57,6.07L5.26,7H4a3,3,0,0,0-3,3v9a3,3,0,0,0,3,3H16v1a1,1,0,0,0,1,1h3.23a1,1,0,0,0,.71-.29l6.47-6.47a1,1,0,0,0,.29-.71A1,1,0,0,0,27.39,15.84ZM4,20a1,1,0,0,1-1-1V10A1,1,0,0,1,4,9H6a1,1,0,0,0,.95-.68l.54-1.63a1,1,0,0,1,1-.69h7.12a1,1,0,0,1,.94.69L17,8.34A1,1,0,0,0,18,9h2a1,1,0,0,1,1,1v4.35l-4.71,4.71a1,1,0,0,0-.29.71V20ZM19.8,22H18V20.2l5.47-5.47,1.82,1.82Z"/></svg>