<svg id="图层_1" data-name="图层 1" xmlns="http://www.w3.org/2000/svg" viewBox="0 0 24 24"><defs><style>.cls-1{fill:#1d9390;}</style></defs><path class="cls-1" d="M20,6H18.72l-.32-1a3,3,0,0,0-2.84-2H8.44A3,3,0,0,0,5.6,5.05L5.28,6H4A3,3,0,0,0,1,9v9a3,3,0,0,0,3,3H20a3,3,0,0,0,3-3V9A3,3,0,0,0,20,6Zm1,12a1,1,0,0,1-1,1H4a1,1,0,0,1-1-1V9A1,1,0,0,1,4,8H6a1,1,0,0,0,1-.68l.54-1.64A1,1,0,0,1,8.44,5h7.12a1,1,0,0,1,1,.68l.54,1.64A1,1,0,0,0,18,8h2a1,1,0,0,1,1,1Z"/><path class="cls-1" d="M12,8.63A4.38,4.38,0,1,0,16.38,13,4.38,4.38,0,0,0,12,8.63Zm0,7A2.63,2.63,0,1,1,14.62,13,2.62,2.62,0,0,1,12,15.63Z"/><circle class="cls-1" cx="19" cy="10" r="1"/></svg>