<svg id="图层_1" data-name="图层 1" xmlns="http://www.w3.org/2000/svg" viewBox="0 0 24 24"><defs>
<style>.cls-1{fill:#fff;}.cls-2{fill:#65ebfc;}</style>
</defs>
<circle fill="#fff" class="cls-1" cx="12" cy="12.01" r="4.5"/>
<path fill="#65ebfc" class="cls-2" d="M12,17a5,5,0,1,1,5-5A5,5,0,0,1,12,17Zm0-9a4,4,0,1,0,4,4A4,4,0,0,0,12,8Z"/>
<path fill="#65ebfc" class="cls-2" d="M11.85,3.08,9.78,5.77c-.08.1,0,.24.15.24h4.14c.14,0,.23-.14.15-.24L12.15,3.08A.2.2,0,0,0,11.85,3.08Z"/>
<path fill="#65ebfc" class="cls-2" d="M12.15,20.94l2.07-2.69c.08-.1,0-.24-.15-.24H9.93c-.14,0-.23.14-.15.24l2.07,2.69A.2.2,0,0,0,12.15,20.94Z"/>
</svg>