<svg id="图层_1" data-name="图层 1" xmlns="http://www.w3.org/2000/svg" xmlns:xlink="http://www.w3.org/1999/xlink" viewBox="0 0 24 24"><defs><style>.cls-1{fill:none;}.cls-2{clip-path:url(#clip-path);}.cls-3{clip-path:url(#clip-path-2);}</style><clipPath id="clip-path"><circle  class="cls-1" cx="360" cy="96" r="20"/></clipPath><clipPath id="clip-path-2"><rect class="cls-1"  x="356" y="86" width="10.48" height="18.97"/></clipPath></defs><path d="M20.41,10,15.7,5.54a2,2,0,0,0-2.65,0L11,3.54a2,2,0,0,0-2.71,0L3.59,8A1.87,1.87,0,0,0,3,9.39V17.1A1.92,1.92,0,0,0,4.94,19H7.69v.1A1.92,1.92,0,0,0,9.63,21h9.43A1.92,1.92,0,0,0,21,19.1V11.39A1.87,1.87,0,0,0,20.41,10ZM8.28,10a1.91,1.91,0,0,0-.59,1.36V17H5L5,9.48,9.63,5l2,1.87ZM19,19H9.69l0-7.52L14.35,7,19,11.39Z"/></svg>