<svg id="图层_1" data-name="图层 1" xmlns="http://www.w3.org/2000/svg" viewBox="0 0 24 24"><defs><style>.cls-1{fill:#1d9390;}</style></defs><path class="cls-1" d="M16.06,4a4.94,4.94,0,0,0-4,2.17A5,5,0,0,0,7.94,4,5,5,0,0,0,3,9.07a5.15,5.15,0,0,0,1.33,3.47l7.05,7.23a.88.88,0,0,0,1.26,0l7.05-7.23A5.12,5.12,0,0,0,21,9.07,5,5,0,0,0,16.06,4Zm3.08,5.08a3.14,3.14,0,0,1-.83,2.16L12,17.77,5.7,11.24a3.21,3.21,0,0,1-.84-2.17A3.11,3.11,0,0,1,7.94,5.93a3.2,3.2,0,0,1,3,2.22A1.15,1.15,0,0,0,12,8.91a1.19,1.19,0,0,0,1.09-.77,3.08,3.08,0,0,1,6,.94Z"/></svg>