<svg id="图层_1" data-name="图层 1" xmlns="http://www.w3.org/2000/svg" viewBox="0 0 24 24"><path d="M12.11,2h-.22a7.25,7.25,0,0,0-7,7.22,7.16,7.16,0,0,0,2,4.93l.35.36c.87.9,1.11,1.15,1.11,2.27v.69a.29.29,0,0,0,.3.3h.47a1.23,1.23,0,0,0,0,.19v2a2,2,0,0,0,2,2h2a2,2,0,0,0,2-2v-2c0-.06,0-.13,0-.19h.47a.3.3,0,0,0,.3-.3v-.69c0-1.06.26-1.34,1-2.17l.07-.08c.17-.18.36-.38.55-.6A7.19,7.19,0,0,0,12.11,2Zm1,18h-2v-2h2ZM16,12.57c-.2.24-.4.44-.57.63A4.67,4.67,0,0,0,14,15.74h-3.7a4.64,4.64,0,0,0-1.59-2.66l-.34-.34A5.19,5.19,0,0,1,6.89,9.16a5.25,5.25,0,0,1,5.05-5.23h.17a5.24,5.24,0,0,1,5.22,5.22A5.14,5.14,0,0,1,16,12.57Z"/><path d="M14,6.91H10a1,1,0,0,0,0,2h4a1,1,0,0,0,0-2Z"/><path d="M14,9.91H10a1,1,0,0,0,0,2h4a1,1,0,0,0,0-2Z"/></svg>