<svg id="图层_1" data-name="图层 1" xmlns="http://www.w3.org/2000/svg" viewBox="0 0 24 24"><defs><style>.cls-1{fill:#1d9390;}</style></defs><path class="cls-1" d="M4.91,17.09A1,1,0,0,0,4,16.5a1,1,0,0,0-1,1V18a1,1,0,0,0,1,1h.5a1,1,0,0,0,1-1A1,1,0,0,0,4.91,17.09Z"/><path class="cls-1" d="M8.5,17h-1a1,1,0,0,0,0,2h1a1,1,0,0,0,0-2Z"/><path class="cls-1" d="M16.5,17h-1a1,1,0,0,0,0,2h1a1,1,0,0,0,0-2Z"/><path class="cls-1" d="M20,16.5a1,1,0,0,0-.91.59,1,1,0,0,0-.59.91,1,1,0,0,0,1,1H20a1,1,0,0,0,1-1v-.5A1,1,0,0,0,20,16.5Z"/><path class="cls-1" d="M20,12.5a1,1,0,0,0-1,1v1a1,1,0,0,0,2,0v-1A1,1,0,0,0,20,12.5Z"/><path class="cls-1" d="M20,8.5a1,1,0,0,0-1,1v1a1,1,0,0,0,2,0v-1A1,1,0,0,0,20,8.5Z"/><path class="cls-1" d="M20,5h-.5a1,1,0,0,0-1,1,1,1,0,0,0,.59.91A1,1,0,0,0,20,7.5a1,1,0,0,0,1-1V6A1,1,0,0,0,20,5Z"/><path class="cls-1" d="M13.5,6A1,1,0,0,0,13,5.14V4a1,1,0,0,0-2,0V5.14a1,1,0,0,0,0,1.72V17.14a1,1,0,0,0,0,1.72V20a1,1,0,0,0,2,0V18.86a1,1,0,0,0,0-1.72V6.86A1,1,0,0,0,13.5,6Z"/><path class="cls-1" d="M16.5,5h-1a1,1,0,0,0,0,2h1a1,1,0,0,0,0-2Z"/><path class="cls-1" d="M8.5,5h-1a1,1,0,0,0,0,2h1a1,1,0,0,0,0-2Z"/><path class="cls-1" d="M4.5,5H4A1,1,0,0,0,3,6v.5a1,1,0,0,0,1,1,1,1,0,0,0,.91-.59A1,1,0,0,0,5.5,6,1,1,0,0,0,4.5,5Z"/><path class="cls-1" d="M4,11.5a1,1,0,0,0,1-1v-1a1,1,0,0,0-2,0v1A1,1,0,0,0,4,11.5Z"/><path class="cls-1" d="M4,15.5a1,1,0,0,0,1-1v-1a1,1,0,0,0-2,0v1A1,1,0,0,0,4,15.5Z"/></svg>