<svg id="图层_1" data-name="图层 1" xmlns="http://www.w3.org/2000/svg" viewBox="0 0 24 24"><defs><style>.cls-1{fill:#1d9390;}</style></defs><path class="cls-1" d="M6,22.39a1,1,0,0,1-.46-1.14l1.92-6.73-3.22-.19a1,1,0,0,1-.9-.74,1,1,0,0,1,.41-1.09l2.83-1.87L3.92,7.25a1,1,0,0,1,.93-1.61l4.25.62.21-3.38A1,1,0,0,1,10.05,2a1,1,0,0,1,1.09.42L13,5.16l3.87-3.43a1,1,0,0,1,1.64.94l-1,5.07,3.32.2a1,1,0,0,1,.49,1.83l-2.83,1.87L21.08,15a1,1,0,0,1,.08,1.11,1,1,0,0,1-1,.49L15.9,16l-.21,3.38a1,1,0,0,1-1.83.49l-1.78-2.69-4.86,5A1,1,0,0,1,6,22.39Zm3.27-9.66a1,1,0,0,1,.31.29,1,1,0,0,1,.15.85L8.56,18l2.95-3.06a1,1,0,0,1,.81-.3,1,1,0,0,1,.75.45l.81,1.23L14,14.81a1,1,0,0,1,.36-.72,1,1,0,0,1,.78-.21l2.85.41L16.18,12a1,1,0,0,1,.23-1.45l1.23-.81-1.47-.09a1,1,0,0,1-.73-.39,1,1,0,0,1-.19-.81l.67-3.26L13.43,7.42a1,1,0,0,1-.79.24,1,1,0,0,1-.71-.44L11.12,6,11,7.46a1,1,0,0,1-.36.72,1,1,0,0,1-.78.21L7,8l1.78,2.27a1,1,0,0,1-.23,1.45l-1.23.81,1.47.09A1.12,1.12,0,0,1,9.27,12.73Z"/></svg>