<svg id="图层_1" data-name="图层 1" xmlns="http://www.w3.org/2000/svg" viewBox="0 0 24 24"><defs><style>.cls-1{fill:#1d9390;}</style></defs><circle class="cls-1" cx="19.79" cy="4.22" r="1"/><path class="cls-1" d="M3.53,19.07a1,1,0,1,0,1.42,0A1,1,0,0,0,3.53,19.07Z"/><path class="cls-1" d="M17,5.64,13.3,9.3A2.91,2.91,0,0,0,12,9a3,3,0,0,0-3,3,3.13,3.13,0,0,0,.3,1.29L5.65,17a1,1,0,0,0,.71,1.71,1,1,0,0,0,.7-.3l3.67-3.66A2.9,2.9,0,0,0,12,15a3,3,0,0,0,2.7-4.29l3.67-3.66a1,1,0,0,0,0-1.41A1,1,0,0,0,17,5.64ZM12,13a1,1,0,1,1,1-1A1,1,0,0,1,12,13Z"/></svg>