<svg id="图层_1" data-name="图层 1" xmlns="http://www.w3.org/2000/svg" xmlns:xlink="http://www.w3.org/1999/xlink" viewBox="0 0 24 24"><defs><style>.cls-1{fill:none;}.cls-2{clip-path:url(#clip-path);}.cls-3{clip-path:url(#clip-path-2);}</style><clipPath id="clip-path"><circle class="cls-1" cx="360" cy="144" r="20"/></clipPath><clipPath id="clip-path-2"><rect class="cls-1" x="356" y="134" width="10.48" height="18.97"/></clipPath></defs><path d="M20,16.17H6.41l1.13-1.12a1,1,0,0,0,0-1.41,1,1,0,0,0-1.42,0L3.29,16.46a1,1,0,0,0-.29.71,1,1,0,0,0,.29.71l2.83,2.83a1,1,0,0,0,.71.29,1,1,0,0,0,.71-.29,1,1,0,0,0,0-1.42L6.41,18.17H20a1,1,0,0,0,0-2Z"/><path d="M20.71,6.12,17.88,3.29a1,1,0,0,0-1.42,1.42l1.13,1.12H4a1,1,0,0,0,0,2H17.59L16.46,9a1,1,0,0,0,0,1.41,1,1,0,0,0,.71.3,1,1,0,0,0,.71-.3l2.83-2.82A1,1,0,0,0,21,6.83,1,1,0,0,0,20.71,6.12Z"/></svg>