<svg id="图层_1" data-name="图层 1" xmlns="http://www.w3.org/2000/svg" viewBox="0 0 24 24"><defs><style>.cls-1{fill:#1d9390;}</style></defs><circle class="cls-1" cx="20" cy="5" r="1"/><circle class="cls-1" cx="6" cy="20" r="1"/><path class="cls-1" d="M17,4a13.25,13.25,0,0,0-6.41,1.47A3,3,0,0,0,9,5,3,3,0,0,0,6,8a3,3,0,0,0,.52,1.68A15.12,15.12,0,0,0,5,17.08,1,1,0,0,0,6,18h.08A1,1,0,0,0,7,16.92a13.17,13.17,0,0,1,1.16-6.05A3.35,3.35,0,0,0,9,11a3,3,0,0,0,3-3,2.93,2.93,0,0,0-.15-.9A11.29,11.29,0,0,1,17,6a1,1,0,0,0,0-2ZM9,9a1,1,0,1,1,1-1A1,1,0,0,1,9,9Z"/></svg>