<svg id="图层_1" data-name="图层 1" xmlns="http://www.w3.org/2000/svg" xmlns:xlink="http://www.w3.org/1999/xlink" viewBox="0 0 10 10"><defs><style>.cls-1{fill:none;}.cls-2{clip-path:url(#clip-path);}.cls-3{clip-path:url(#clip-path-2);}.cls-4{fill:#4387ff;}</style><clipPath id="clip-path"><circle class="cls-1" cx="112" cy="185" r="20"/></clipPath><clipPath id="clip-path-2"><rect class="cls-1" x="108" y="175" width="10.48" height="18.97"/></clipPath></defs><path class="cls-4" d="M6.41,5l2.3-2.29A1,1,0,0,0,7.29,1.29L5,3.59,2.71,1.29A1,1,0,0,0,1.29,2.71L3.59,5,1.29,7.29a1,1,0,0,0,0,1.42,1,1,0,0,0,1.42,0L5,6.41l2.29,2.3a1,1,0,0,0,1.42,0,1,1,0,0,0,0-1.42Z"/></svg>