<?xml version="1.0" encoding="utf-8"?>
<!-- Generator: Adobe Illustrator 22.0.0, SVG Export Plug-In . SVG Version: 6.00 Build 0)  -->
<svg version="1.1" id="图层_1" xmlns="http://www.w3.org/2000/svg" xmlns:xlink="http://www.w3.org/1999/xlink" x="0px" y="0px"
	 viewBox="0 0 24 24" style="enable-background:new 0 0 24 24;" xml:space="preserve">
<style type="text/css">
	.st0{fill:#C6CCD7;}
</style>
<g id="Symbols">
	<g id="材质_x2F_填充替换" transform="translate(-67.000000, -19.000000)">
		<g id="Group" transform="translate(67.000000, 19.000000)">
			<path id="Rectangle" class="st0" d="M1,10.5h2c0.6,0,1,0.4,1,1v2c0,0.6-0.4,1-1,1H1c-0.6,0-1-0.4-1-1v-2C0,10.9,0.4,10.5,1,10.5z
				"/>
			<path id="Rectangle-Copy" class="st0" d="M11,10.5h2c0.6,0,1,0.4,1,1v2c0,0.6-0.4,1-1,1h-2c-0.6,0-1-0.4-1-1v-2
				C10,10.9,10.4,10.5,11,10.5z"/>
			<path id="Rectangle-Copy-3" class="st0" d="M21,10.5h2c0.6,0,1,0.4,1,1v2c0,0.6-0.4,1-1,1h-2c-0.6,0-1-0.4-1-1v-2
				C20,10.9,20.4,10.5,21,10.5z"/>
		</g>
	</g>
</g>
</svg>
