<?xml version="1.0" encoding="UTF-8"?>
<svg width="54px" height="54px" viewBox="0 0 54 54" version="1.1" xmlns="http://www.w3.org/2000/svg" xmlns:xlink="http://www.w3.org/1999/xlink">
    <!-- Generator: Sketch 52.2 (67145) - http://www.bohemiancoding.com/sketch -->
    <title></title>
    <desc>Created with Sketch.</desc>
    <defs>
        <filter x="-5.6%" y="-7.8%" width="111.1%" height="115.6%" filterUnits="objectBoundingBox" id="filter-1">
            <feOffset dx="0" dy="6" in="SourceAlpha" result="shadowOffsetOuter1"></feOffset>
            <feGaussianBlur stdDeviation="10" in="shadowOffsetOuter1" result="shadowBlurOuter1"></feGaussianBlur>
            <feColorMatrix values="0 0 0 0 0.137254902   0 0 0 0 0.156862745   0 0 0 0 0.188235294  0 0 0 0.3 0" type="matrix" in="shadowBlurOuter1" result="shadowMatrixOuter1"></feColorMatrix>
            <feMerge>
                <feMergeNode in="shadowMatrixOuter1"></feMergeNode>
                <feMergeNode in="SourceGraphic"></feMergeNode>
            </feMerge>
        </filter>
    </defs>
    <g id="Page-1" stroke="none" stroke-width="1" fill="none" fill-rule="evenodd">
        <g id="欢迎页面-copy" transform="translate(-244.000000, -182.000000)">
            <g id="弹窗" filter="url(#filter-1)" transform="translate(233.000000, 64.000000)">
                <g id="欢迎页面/new" transform="translate(30.000000, 131.000000)">
                    <rect id="矩形" fill="#FF4663" fill-rule="nonzero" x="0" y="0" width="16" height="16" rx="8"></rect>
                    <path d="M4.22127851,4.92934783 C4.23729234,4.90905787 4.24730084,4.90398546 4.2513043,4.91413043 C4.25530776,4.91920292 4.25730946,4.92427534 4.25730946,4.92934783 L4.25730946,5.19565217 C4.23328871,5.19565217 4.21827596,5.18297114 4.21227077,5.1576087 C4.20626559,5.13224625 4.20326304,5.10434798 4.20326304,5.07391304 C4.20326304,5.04347811 4.20626559,5.01431173 4.21227077,4.98641304 C4.21827596,4.95851435 4.22127851,4.9394928 4.22127851,4.92934783 Z M4.22127851,5.24130435 C4.23729234,5.24130435 4.24830169,5.24891297 4.25430688,5.26413043 C4.26031206,5.2793479 4.26331461,5.29836945 4.26331461,5.32119565 C4.26331461,5.34402185 4.26231376,5.36684771 4.26031203,5.38967391 C4.2583103,5.41250011 4.25730946,5.42898546 4.25730946,5.43913043 C4.22528179,5.43913043 4.21126989,5.41123216 4.21527335,5.35543478 C4.21927681,5.2996374 4.22127851,5.2615943 4.22127851,5.24130435 Z M3.33852037,5.27934783 C3.35053074,5.31992774 3.35353329,5.35163032 3.3475281,5.37445652 C3.34152292,5.39728272 3.33852037,5.4289853 3.33852037,5.46956522 C3.35053074,5.46956522 3.35853754,5.45815229 3.362541,5.43532609 C3.36654446,5.41249989 3.36754531,5.38713782 3.36554358,5.35923913 C3.36354185,5.33134044 3.3605393,5.30851458 3.35653584,5.29076087 C3.35253238,5.27300716 3.34652729,5.26920285 3.33852037,5.27934783 Z M3.33852037,5.5076087 C3.33852037,5.54818861 3.33151442,5.59384033 3.31750232,5.64456522 C3.30349021,5.69529011 3.31850296,5.74094183 3.362541,5.78152174 C3.35053062,5.72572436 3.35053062,5.67246402 3.362541,5.62173913 C3.37455137,5.57101424 3.36654458,5.53297114 3.33852037,5.5076087 Z M5.01996445,6.09347826 C5.01996445,6.22536298 5.0209653,6.37373106 5.02296703,6.53858696 C5.02496876,6.70344285 5.0339764,6.86449197 5.04999024,7.02173913 C5.06600407,6.88985441 5.06600407,6.74655874 5.04999024,6.59184783 C5.0339764,6.43713691 5.0339764,6.27101538 5.04999024,6.09347826 L5.01996445,6.09347826 Z M4.06514442,6.13152174 C4.08516171,6.13152174 4.0971719,6.13786226 4.10117536,6.15054348 C4.10517882,6.1632247 4.11518732,6.16956522 4.13120115,6.16956522 C4.14721498,6.18985517 4.15121838,6.20253621 4.14321146,6.2076087 C4.13520455,6.21268118 4.13120115,6.22536222 4.13120115,6.24565217 L4.04112379,6.24565217 C4.04112379,6.23043471 4.04312549,6.21521747 4.04712895,6.2 C4.0511324,6.18985502 4.0531341,6.17844209 4.0531341,6.16576087 C4.0531341,6.15307965 4.0571375,6.14166672 4.06514442,6.13152174 Z M3.24243785,6.78586957 C3.22642402,6.81123201 3.21841722,6.8454708 3.21841722,6.88858696 C3.21841722,6.93170311 3.22642402,6.9634057 3.24243785,6.98369565 C3.24243785,6.94311574 3.24644125,6.90000023 3.25444816,6.85434783 C3.26245508,6.80869542 3.25845168,6.78586957 3.24243785,6.78586957 Z M4.94554212,6.94089196 C4.94658026,6.94905714 4.94536535,6.95698445 4.9418974,6.96467391 C4.93389049,6.98242763 4.92988709,7.00144917 4.92988709,7.02173913 C4.937894,7.06739153 4.94089655,7.11938377 4.93889482,7.17771739 L4.93288967,7.35271739 C4.93088794,7.41105102 4.93088794,7.46938377 4.93288967,7.52771739 C4.93489139,7.58605102 4.94389904,7.63804325 4.95991287,7.68369565 C4.97592671,7.62282578 4.98493435,7.55688441 4.98693608,7.48586957 C4.98893781,7.41485472 4.98693611,7.34257283 4.98093093,7.26902174 C4.97492574,7.19547065 4.96691894,7.12065255 4.9569103,7.04456522 C4.95220401,7.00878725 4.94771905,6.97413109 4.94345539,6.94059652 L4.94554212,6.94089196 Z M4.22127851,7.13586957 C4.22127851,7.16123201 4.20926832,7.17518115 4.18524757,7.17771739 C4.16122682,7.18025364 4.13320303,7.18152174 4.10117536,7.18152174 C4.08115807,7.14094183 4.08115807,7.10797114 4.10117536,7.0826087 C4.12119265,7.05724625 4.13120115,7.02427557 4.13120115,6.98369565 C4.17523919,6.98369565 4.20626553,7.00018099 4.22428109,7.03315217 C4.24229665,7.06612335 4.2412958,7.10036214 4.22127851,7.13586957 Z M5.04999024,7.02173913 C5.04999024,7.07753651 5.04698769,7.12699254 5.0409825,7.1701087 C5.03497731,7.21322485 5.04798836,7.25507226 5.08001602,7.29565217 C5.07200911,7.27536222 5.06900656,7.25126826 5.07100829,7.22336957 C5.07301002,7.19547088 5.07501171,7.16884071 5.07701344,7.14347826 C5.07901517,7.11811582 5.07901517,7.09402185 5.07701344,7.07119565 C5.07501171,7.04836945 5.06600407,7.03188411 5.04999024,7.02173913 Z M4.13120115,7.33369565 C4.16322882,7.33369565 4.18224496,7.35525341 4.18825014,7.39836957 C4.19425533,7.44148572 4.20526468,7.48333313 4.22127851,7.52391304 C4.18925084,7.52391304 4.1662313,7.50235529 4.1522192,7.45923913 C4.1382071,7.41612297 4.13120115,7.37427557 4.13120115,7.33369565 Z M3.58473182,7.56195652 C3.58473182,7.64311635 3.59574117,7.71666634 3.61776019,7.7826087 C3.63977921,7.84855105 3.66680215,7.89420277 3.69882981,7.91956522 C3.68681944,7.86376784 3.6718067,7.79655836 3.65379113,7.71793478 C3.63577557,7.6393112 3.61275603,7.58731897 3.58473182,7.56195652 Z M4.46748997,7.6076087 C4.47549688,7.61775367 4.48250283,7.63297091 4.48850802,7.65326087 C4.4945132,7.67355083 4.4985166,7.69510858 4.50051833,7.71793478 C4.50252006,7.74076098 4.50151921,7.76105064 4.49751575,7.77880435 C4.49351229,7.79655806 4.4835038,7.80543478 4.46748997,7.80543478 L4.46748997,7.6076087 Z M3.58473182,7.9576087 C3.58473182,7.98804363 3.58973607,8.01086949 3.59974472,8.02608696 C3.60975336,8.04130442 3.61876101,8.05652166 3.62676793,8.07173913 C3.63477484,8.0869566 3.64077994,8.10217384 3.6447834,8.1173913 C3.64878686,8.13260877 3.64678516,8.15543463 3.63877824,8.18586957 C3.73085778,8.32282677 3.8079232,8.47246296 3.8699768,8.63478261 C3.9320304,8.79710226 4.00909582,8.94673845 4.10117536,9.08369565 C4.07715461,8.9670284 4.04612828,8.86304393 4.00809542,8.77173913 C3.97006257,8.68043433 3.92902774,8.5929352 3.88498969,8.50923913 L3.75287623,8.25815217 C3.70883819,8.1744561 3.67080591,8.08442077 3.63877824,7.98804348 C3.61876095,7.98804348 3.60074566,7.97789865 3.58473182,7.9576087 Z M3.45862352,8.38369565 C3.45862352,8.42427557 3.45562097,8.48134021 3.44961578,8.5548913 C3.44361059,8.6284424 3.45461994,8.67536222 3.48264415,8.69565217 C3.48264415,8.6347823 3.4816433,8.57137714 3.47964157,8.50543478 C3.47763984,8.43949242 3.47063389,8.39891312 3.45862352,8.38369565 Z M3.67480918,8.72608696 C3.71884723,8.78188434 3.75687951,8.84782571 3.78890718,8.92391304 L3.88498969,9.15217391 C3.84095165,9.09637653 3.80191852,9.03170327 3.76788912,8.95815217 C3.73385973,8.88460108 3.70283339,8.80724678 3.67480918,8.72608696 Z M3.88498969,9.15217391 C3.91701736,9.17753636 3.9360335,9.20543463 3.94203869,9.23586957 C3.94804388,9.2663045 3.95905322,9.29166657 3.97506706,9.31195652 C3.94704285,9.31195652 3.93002841,9.29547118 3.92402322,9.2625 C3.91801803,9.22952882 3.90500699,9.19275383 3.88498969,9.15217391 Z M4.011098,9.35 C4.04712913,9.40579738 4.06514442,9.45905772 4.06514442,9.50978261 C4.05313404,9.50978261 4.0361196,9.49329727 4.01410058,9.46032609 C3.99208156,9.42735491 3.99108071,9.39057991 4.011098,9.35 Z M4.06514442,9.54782609 C4.12919975,9.54782609 4.16122694,9.59855022 4.16122694,9.7 C4.12919927,9.67971004 4.11018313,9.65434798 4.10417794,9.62391304 C4.09817275,9.59347811 4.08516171,9.56811604 4.06514442,9.54782609 Z M2.41372612,9.77608696 C2.44575379,9.77608696 2.47177588,9.79891282 2.49179317,9.84456522 C2.51181046,9.89021762 2.50580537,9.93333313 2.4737777,9.97391304 C2.44175003,9.97391304 2.41973134,9.95108718 2.40772097,9.90543478 C2.39571059,9.85978238 2.39771229,9.81666687 2.41372612,9.77608696 Z M5.20612433,9.85978261 C5.2181347,9.90036252 5.216133,9.93713752 5.20011917,9.9701087 C5.18410534,10.0030799 5.18610704,10.02971 5.20612433,10.05 C5.21413125,10.039855 5.21913549,10.0221016 5.22113722,9.99673913 C5.22313895,9.97137668 5.2241398,9.94728272 5.2241398,9.92445652 C5.2241398,9.90163032 5.22313895,9.88260877 5.22113722,9.8673913 C5.21913549,9.85217384 5.21413125,9.84963763 5.20612433,9.85978261 Z M4.95991287,4.92934783 C4.97192325,4.96485525 4.97993005,5.00036214 4.9839335,5.03586957 C4.98793696,5.07137699 4.99994716,5.10181147 5.01996445,5.12717391 C5.03597828,5.086594 5.04198338,5.04221039 5.03797992,4.99402174 C5.03397646,4.94583309 5.04798836,4.9090581 5.08001602,4.88369565 C5.12405406,4.93949303 5.1450719,5.00036199 5.14307018,5.06630435 C5.14106845,5.13224671 5.1400676,5.20326049 5.1400676,5.27934783 L5.1400676,6.51956522 C5.1400676,6.56014513 5.14507184,6.60452874 5.15508049,6.65271739 C5.16508914,6.70090604 5.17009338,6.74528965 5.17009338,6.78586957 L5.15808307,6.81630435 C5.15407961,6.82644933 5.15007621,6.83532605 5.14607275,6.84293478 C5.1420693,6.85054352 5.1400676,6.85942024 5.1400676,6.86956522 C5.1400676,6.98623247 5.14106845,7.10923848 5.14307018,7.23858696 C5.1450719,7.36793543 5.15407955,7.49094145 5.17009338,7.6076087 C5.17009338,7.70905848 5.16608999,7.81938346 5.15808307,7.93858696 C5.15007615,8.05779045 5.15407955,8.16557923 5.17009338,8.26195652 C5.17009338,8.33804386 5.17109423,8.4306154 5.17309596,8.53967391 C5.17509769,8.64873243 5.18610704,8.74891259 5.20612433,8.84021739 C5.20612433,8.90615975 5.21012773,8.96956491 5.21813464,9.03043478 C5.22614156,9.09130465 5.23014496,9.15978223 5.23014496,9.23586957 C5.23014496,9.30181192 5.23615006,9.3690214 5.24816043,9.4375 C5.26017081,9.5059786 5.272181,9.57699239 5.28419138,9.65054348 C5.29620175,9.72409457 5.3052094,9.80018077 5.31121458,9.87880435 C5.31721977,9.95742793 5.31221552,10.0398546 5.29620169,10.126087 C5.26417402,10.126087 5.24415703,10.1134059 5.23615012,10.0880435 C5.2281432,10.062681 5.2181347,10.05 5.20612433,10.05 C5.20612433,10.07029 5.20512348,10.0880434 5.20312175,10.1032609 C5.20112002,10.1184783 5.19011068,10.126087 5.17009338,10.126087 C5.11804843,10.1362319 5.061,10.1349638 4.9989464,10.1222826 C4.93689279,10.1096014 4.87584097,10.0994566 4.8157891,10.0918478 C4.75573722,10.0842391 4.7006905,10.082971 4.65064727,10.0880435 C4.60060404,10.093116 4.55956921,10.1210142 4.52754154,10.1717391 C4.49151041,10.1514492 4.46048408,10.124819 4.4344616,10.0918478 C4.40843912,10.0588766 4.38642043,10.0233698 4.36840487,9.98532609 C4.35038931,9.94728242 4.33337486,9.91050742 4.31736103,9.875 C4.3013472,9.83949258 4.2813302,9.80652189 4.25730946,9.77608696 L4.25730946,9.7 C4.14921608,9.50724541 4.04512773,9.30181268 3.94504127,9.08369565 C3.84495481,8.86557862 3.73285966,8.67029072 3.60875245,8.49782609 C3.59674208,8.538406 3.60474887,8.57137668 3.63277308,8.59673913 C3.66079729,8.62210158 3.67480918,8.65507226 3.67480918,8.69565217 C3.64278152,8.71086964 3.62776877,8.70833343 3.6297705,8.68804348 C3.63177223,8.66775352 3.62476629,8.6576087 3.60875245,8.6576087 C3.60474899,8.72355105 3.60474899,8.78822432 3.60875245,8.85163043 C3.61275591,8.91503655 3.61675931,8.9746374 3.62076277,9.03043478 C3.62476623,9.08623216 3.62576708,9.1407606 3.62376535,9.19402174 C3.62176362,9.24728288 3.60875257,9.29927511 3.58473182,9.35 C3.61275603,9.48695721 3.62376538,9.60869512 3.61776019,9.71521739 C3.611755,9.82173966 3.60875245,9.93333275 3.60875245,10.05 C3.59674208,10.07029 3.58873528,10.0867753 3.58473182,10.0994565 C3.58072836,10.1121377 3.56871817,10.1083334 3.54870088,10.0880435 C3.54069396,10.1286234 3.53769141,10.1679346 3.53969314,10.2059783 C3.54169487,10.2440219 3.54269572,10.2769926 3.54269572,10.3048913 C3.54269572,10.33279 3.53869232,10.3556159 3.53068541,10.3733696 C3.52267849,10.3911233 3.5066649,10.4 3.48264415,10.4 C3.48264415,10.3594201 3.4796416,10.3112322 3.47363641,10.2554348 C3.46763122,10.1996374 3.47063377,10.1438409 3.48264415,10.0880435 C3.43860611,10.0880435 3.38756278,10.0918478 3.32951263,10.0994565 C3.27146249,10.1070653 3.21441406,10.1096015 3.15836565,10.1070652 C3.10231723,10.104529 3.0492722,10.0943841 2.99922897,10.0766304 C2.94918575,10.0588767 2.90815091,10.0246379 2.87612325,9.97391304 C2.86010941,10.0297104 2.82808223,10.0664854 2.78004073,10.0842391 C2.73199923,10.1019928 2.69196525,10.0905799 2.65993758,10.05 C2.63191337,9.89275284 2.60789298,9.72536321 2.58787569,9.54782609 C2.5678584,9.37028897 2.58187029,9.21558037 2.62991179,9.08369565 C2.59788413,8.84528866 2.57886798,8.59420422 2.5728628,8.33043478 C2.56685761,8.06666535 2.55384656,7.79782746 2.53382927,7.52391304 L2.53382927,7.2576087 C2.53382927,7.21702878 2.53182757,7.17391327 2.52782412,7.12826087 C2.52382066,7.08260847 2.53783255,7.04710158 2.56986022,7.02173913 C2.58587405,7.35652341 2.60088679,7.68749836 2.6148989,8.01467391 C2.628911,8.34184946 2.64392375,8.67028821 2.65993758,9 C2.67595141,8.92898515 2.68295736,8.85670327 2.68095563,8.78315217 C2.6789539,8.70960108 2.6749505,8.63224678 2.66894532,8.55108696 C2.66294013,8.46992713 2.65793588,8.38876852 2.65393242,8.3076087 C2.64992896,8.22644887 2.65193066,8.14782647 2.65993758,8.07173913 C2.65993758,7.95507188 2.66494183,7.85362362 2.67495047,7.7673913 C2.68495912,7.68115899 2.68996337,7.58985555 2.68996337,7.49347826 C2.7059772,7.50869573 2.7159857,7.53405779 2.71998915,7.56956522 C2.72399261,7.60507264 2.72599431,7.64311574 2.72599431,7.68369565 C2.72599431,7.72427557 2.72699516,7.76231866 2.72899689,7.79782609 C2.73099862,7.83333351 2.74000626,7.85869558 2.7560201,7.87391304 C2.76803047,7.46811391 2.75902283,7.07880621 2.72899689,6.70597826 C2.69897095,6.33315031 2.67595141,5.95905985 2.65993758,5.58369565 C2.64392375,5.78152273 2.64392375,5.96793391 2.65993758,6.14293478 C2.67595141,6.31793566 2.67595141,6.48152098 2.65993758,6.63369565 C2.64392375,6.6134057 2.6349161,6.58677553 2.63291437,6.55380435 C2.63091264,6.52083317 2.62991179,6.48405817 2.62991179,6.44347826 L2.62991179,6.28369565 C2.62590833,6.27862316 2.62190494,6.27101454 2.61790148,6.26086957 C2.61389802,6.25072459 2.60989462,6.24184786 2.60589116,6.23423913 C2.6018877,6.2266304 2.599886,6.21775367 2.599886,6.2076087 C2.599886,6.16702878 2.6038894,6.12518138 2.61189632,6.08206522 C2.61990324,6.03894906 2.61589984,5.98949303 2.599886,5.93369565 L2.599886,5.5076087 C2.58387217,5.40615891 2.56885943,5.30978307 2.55484732,5.21847826 C2.54083522,5.12717346 2.55584796,5.03079761 2.599886,4.92934783 C2.61589984,4.94963778 2.62590833,4.97499985 2.62991179,5.00543478 C2.63391525,5.03586972 2.64392375,5.06123178 2.65993758,5.08152174 C2.67595141,5.06123178 2.68095566,5.03586972 2.67495047,5.00543478 C2.66894529,4.97499985 2.67394953,4.94963778 2.68996337,4.92934783 C2.72999795,4.9394928 2.75401834,4.96231866 2.76202526,4.99782609 C2.77003217,5.03333351 2.77303472,5.07264471 2.77103299,5.11576087 C2.76903126,5.15887703 2.76602871,5.20199254 2.76202526,5.2451087 C2.7580218,5.28822485 2.76402689,5.32499985 2.78004073,5.35543478 C2.79605456,5.33514483 2.80606306,5.30471035 2.81006651,5.26413043 C2.81406997,5.22355052 2.81707252,5.18297122 2.81907425,5.1423913 C2.82107598,5.10181139 2.82507938,5.06376829 2.83108457,5.02826087 C2.83708975,4.99275345 2.8521025,4.97246379 2.87612325,4.9673913 C2.92016129,4.9673913 2.95719272,4.96992751 2.98721866,4.975 C3.0172446,4.98007249 3.04026414,4.96485525 3.05627797,4.92934783 C3.07629526,4.92934783 3.08230036,4.94076076 3.07429344,4.96358696 C3.06628653,4.98641316 3.07229162,4.99782609 3.09230891,4.99782609 C3.12033312,4.99782609 3.14235181,4.99909419 3.15836565,5.00163043 C3.17437948,5.00416668 3.18238628,5.01811582 3.18238628,5.04347826 C3.19840011,5.01811582 3.2184171,5.00036237 3.24243785,4.99021739 C3.2664586,4.98007241 3.28647559,4.98260862 3.30248942,4.99782609 C3.33451709,4.98260862 3.35253238,4.98007241 3.35653584,4.99021739 C3.3605393,5.00036237 3.362541,5.01811582 3.362541,5.04347826 C3.37855483,5.01811582 3.40057352,5.00416668 3.42859773,5.00163043 C3.45662194,4.99909419 3.48664742,4.99782609 3.51867509,4.99782609 C3.55870967,5.02826102 3.58473176,5.06376791 3.59674214,5.10434783 C3.60875251,5.14492774 3.61375676,5.18804325 3.61175503,5.23369565 C3.6097533,5.27934805 3.60474905,5.32880408 3.59674214,5.38206522 C3.58873522,5.43532635 3.58473182,5.492391 3.58473182,5.55326087 C3.56471453,5.60905825 3.55370519,5.6661229 3.55170346,5.72445652 C3.54970173,5.78279015 3.54870088,5.83985479 3.54870088,5.89565217 C3.54870088,5.93623209 3.54970173,5.9818838 3.55170346,6.0326087 C3.55370519,6.08333359 3.56471453,6.1289853 3.58473182,6.16956522 C3.58473182,6.2253626 3.60174627,6.28369535 3.63577566,6.34456522 C3.66980506,6.40543509 3.70083139,6.46376784 3.7288556,6.51956522 C3.74887289,6.53985517 3.76588734,6.56014483 3.77989944,6.58043478 C3.79391154,6.60072474 3.80692259,6.63115922 3.81893296,6.67173913 C3.87097792,6.77318891 3.9250238,6.87717338 3.98107221,6.98369565 C4.03712063,7.09021792 4.08716311,7.19420239 4.13120115,7.29565217 C4.1071804,7.29565217 4.08716341,7.28550735 4.07114957,7.26521739 C4.05513574,7.24492743 4.04112385,7.21956537 4.02911347,7.18913043 C4.0171031,7.1586955 4.00409205,7.12826102 3.99007995,7.09782609 C3.97606785,7.06739115 3.9610551,7.04202909 3.94504127,7.02173913 C3.88098594,6.92536184 3.81893326,6.81630496 3.75888139,6.69456522 C3.69882951,6.57282548 3.64078024,6.46123239 3.58473182,6.35978261 C3.73686324,6.71485685 3.89499747,7.05724473 4.05913926,7.38695652 C4.22328105,7.71666832 4.38942208,8.04891137 4.55756733,8.38369565 C4.56557424,8.20108604 4.57057849,8.02608779 4.57258022,7.85869565 C4.57458195,7.69130351 4.57258025,7.52771819 4.56657506,7.36793478 C4.56056988,7.20815138 4.55156223,7.04963847 4.53955185,6.8923913 C4.52754148,6.73514414 4.51352959,6.57282692 4.49751575,6.40543478 C4.48150192,6.42572474 4.47249427,6.45235491 4.47049254,6.48532609 C4.46849081,6.51829727 4.46748997,6.55507226 4.46748997,6.59565217 C4.46748997,6.73260938 4.47249421,6.88985418 4.48250286,7.0673913 C4.4925115,7.24492842 4.49751575,7.40978185 4.49751575,7.56195652 C4.473495,7.54673905 4.45848226,7.52771751 4.45247707,7.5048913 C4.44647188,7.4820651 4.44346934,7.45797114 4.44346934,7.4326087 C4.44346934,7.40724625 4.44447018,7.38315229 4.44647191,7.36032609 C4.44847364,7.33749989 4.44547109,7.31594213 4.43746418,7.29565217 C4.43746418,7.23985479 4.43145908,7.18405825 4.41944871,7.12826087 C4.40743833,7.07246349 4.40143323,7.02427557 4.40143323,6.98369565 C4.38942286,6.72499871 4.37641181,6.46757374 4.36239971,6.21141304 C4.34838761,5.95525234 4.33137316,5.72065324 4.31135587,5.5076087 C4.31135587,5.39094145 4.31235672,5.27173974 4.31435845,5.15 C4.31636018,5.02826026 4.32736952,4.93949303 4.34738682,4.88369565 C4.37140757,4.87355067 4.38742116,4.87101447 4.39542808,4.87608696 C4.40343499,4.88115945 4.40944009,4.88749996 4.41344355,4.8951087 C4.41744701,4.90271743 4.42044956,4.91032605 4.42245128,4.91793478 C4.42445301,4.92554352 4.42945726,4.92934783 4.43746418,4.92934783 C4.45347801,4.92934783 4.45848226,4.91539869 4.45247707,4.8875 C4.44647188,4.85960131 4.45147613,4.84565217 4.46748997,4.84565217 L4.77375299,4.84565217 C4.78976683,4.86594213 4.81378722,4.88496368 4.84581488,4.90271739 C4.87784255,4.9204711 4.91587483,4.92934783 4.95991287,4.92934783 Z M7.34996553,5.6826087 C7.34195861,5.69275367 7.32794672,5.69528988 7.30792943,5.69021739 C7.28791214,5.6851449 7.26589345,5.68007249 7.2418727,5.675 C7.21785195,5.66992751 7.19483241,5.67246372 7.17281339,5.6826087 C7.15079437,5.69275367 7.13578162,5.71811574 7.12777471,5.75869565 C7.15980237,5.75869565 7.2008372,5.75615945 7.25088043,5.75108696 C7.30092366,5.74601447 7.3339517,5.72318861 7.34996553,5.6826087 Z M6.52725896,6.2 C6.52725896,6.28115983 6.53126236,6.35470982 6.53926928,6.42065217 C6.54727619,6.48659453 6.5432728,6.56014452 6.52725896,6.64130435 C6.55928663,6.64130435 6.57229767,6.61847849 6.56629249,6.57282609 C6.5602873,6.52717368 6.55728475,6.48405817 6.55728475,6.44347826 L6.55728475,6.2 L6.52725896,6.2 Z M6.30506814,6.24565217 C6.30506814,6.326812 6.30106474,6.42191974 6.29305782,6.53097826 C6.28505091,6.64003678 6.2890543,6.74528935 6.30506814,6.84673913 C6.30506814,6.88731904 6.30606899,6.92536214 6.30807072,6.96086957 C6.31007245,6.99637699 6.32108179,7.02427526 6.34109908,7.04456522 C6.34109908,6.92282548 6.34910588,6.79855136 6.36511971,6.67173913 C6.38113355,6.5449269 6.37312675,6.40289934 6.34109908,6.24565217 L6.30506814,6.24565217 Z M6.11890826,6.80108696 C6.13492209,6.80108696 6.13992634,6.80869558 6.13392115,6.82391304 C6.12791596,6.83913051 6.13292021,6.84673913 6.14893404,6.84673913 C6.14893404,6.94818891 6.15293744,7.05217338 6.16094436,7.15869565 C6.16895128,7.26521792 6.16494788,7.34637653 6.14893404,7.40217391 C6.14893404,7.42753636 6.15393829,7.4427536 6.16394694,7.44782609 C6.17395558,7.45289858 6.17895983,7.46557961 6.17895983,7.48586957 C6.162946,7.49601454 6.15393835,7.51249989 6.15193662,7.53532609 C6.14993489,7.55815229 6.14993489,7.58351435 6.15193662,7.61141304 L6.15794178,7.6951087 C6.15994351,7.72300739 6.15694096,7.74710135 6.14893404,7.7673913 C6.13292021,7.70652143 6.12191087,7.63550765 6.11590568,7.55434783 C6.10990049,7.473188 6.10689794,7.38822508 6.10689794,7.29945652 C6.10689794,7.21068796 6.10889964,7.12318884 6.1129031,7.03695652 C6.11690656,6.95072421 6.11890826,6.8721018 6.11890826,6.80108696 Z M8.61705375,6.92282609 C8.60904683,6.95326102 8.59303324,6.97608688 8.56901249,6.99130435 C8.54499174,7.00652182 8.5179688,7.01539854 8.48794286,7.01793478 C8.45791693,7.02047103 8.42789144,7.01666672 8.3978655,7.00652174 C8.36783956,6.99637676 8.34482002,6.98115952 8.32880619,6.96086957 C8.32880619,6.94057961 8.34281809,6.92409427 8.37084229,6.91141304 C8.3988665,6.89873182 8.42989284,6.8898551 8.46392223,6.88478261 C8.49795163,6.87971012 8.52997882,6.87971012 8.56000475,6.88478261 C8.59003069,6.8898551 8.60904683,6.90253613 8.61705375,6.92282609 Z M6.11890826,7.7673913 C6.15093592,7.80797122 6.16494782,7.85615914 6.16094436,7.91195652 C6.1569409,7.9677539 6.162946,8.02608665 6.17895983,8.08695652 C6.15493908,8.07681154 6.13992634,8.06413051 6.13392115,8.04891304 C6.12791596,8.03369558 6.12491342,8.01340592 6.12491342,7.98804348 C6.12491342,7.96268103 6.12591426,7.93224655 6.12791599,7.89673913 C6.12991772,7.86123171 6.12691517,7.8181162 6.11890826,7.7673913 Z M6.14893404,8.125 C6.16494788,8.13514498 6.17395552,8.14782601 6.17595725,8.16304348 C6.17795898,8.17826095 6.17795898,8.19474629 6.17595725,8.2125 C6.17395552,8.23025371 6.17195383,8.24927526 6.1699521,8.26956522 C6.16795037,8.28985517 6.17095292,8.31014483 6.17895983,8.33043478 C6.162946,8.30507234 6.15393835,8.27971027 6.15193662,8.25434783 C6.14993489,8.22898538 6.14893404,8.18586987 6.14893404,8.125 Z M8.07658958,8.44456522 L8.07658958,8.52826087 C8.07658958,8.56884078 8.06357854,8.59166664 8.03755606,8.59673913 C8.01153358,8.60181162 7.98250894,8.60434783 7.95048127,8.60434783 C7.91845361,8.54855045 7.91945446,8.50289873 7.95348385,8.4673913 C7.98751325,8.43188388 8.02854808,8.42427526 8.07658958,8.44456522 Z M6.14893404,8.44456522 C6.18096171,8.46992766 6.19497361,8.49782593 6.19097015,8.52826087 C6.18696669,8.5586958 6.19297179,8.58405787 6.20898562,8.60434783 C6.19297179,8.6144928 6.18296329,8.61576091 6.17895983,8.60815217 C6.17495637,8.60054344 6.17195383,8.58786241 6.1699521,8.5701087 C6.16795037,8.55235498 6.16594867,8.53206533 6.16394694,8.50923913 C6.16194521,8.48641293 6.15694096,8.46485517 6.14893404,8.44456522 Z M7.66823887,8.56630435 C7.70026654,8.56630435 7.72128438,8.5878621 7.73129303,8.63097826 C7.74130167,8.67409442 7.73029233,8.705797 7.69826466,8.72608696 C7.666237,8.72608696 7.64521915,8.7045292 7.63521051,8.66141304 C7.62520186,8.61829689 7.63621121,8.5865943 7.66823887,8.56630435 Z M6.24501656,9.73043478 C6.2129889,9.75072474 6.16494812,9.75706526 6.10089279,9.74945652 C6.03683745,9.74184779 5.98879667,9.7481883 5.95676901,9.76847826 C6.00481051,9.79384071 6.04884789,9.80905795 6.08888247,9.81413043 C6.12891705,9.81920292 6.18096123,9.83188396 6.24501656,9.85217391 L6.24501656,9.73043478 Z M7.66823887,9.85217391 C7.63621121,9.85217391 7.59917977,9.8458334 7.55714346,9.83315217 C7.51510715,9.82047095 7.47807572,9.81413043 7.44604805,9.81413043 C7.43003422,9.81413043 7.40901638,9.81539854 7.3829939,9.81793478 C7.35697142,9.82047103 7.33595358,9.83188396 7.31993974,9.85217391 C7.35196741,9.84202893 7.38299375,9.83949273 7.41301968,9.84456522 C7.44304562,9.84963771 7.47307111,9.85597822 7.50309705,9.86358696 C7.53312298,9.87119569 7.56214762,9.8762681 7.59017183,9.87880435 C7.61819604,9.88134059 7.64421812,9.87246387 7.66823887,9.85217391 Z M6.08287731,9.97391304 C6.06686348,10.014493 6.03783884,10.0385869 5.99580253,10.0461957 C5.95376622,10.0538044 5.91072969,10.0677535 5.86669165,10.0880435 C5.86669165,10.0474636 5.87369759,10.0208334 5.8877097,10.0081522 C5.9017218,9.99547095 5.91973709,9.98786233 5.94175611,9.98532609 C5.96377513,9.98278984 5.98679467,9.98278984 6.01081542,9.98532609 C6.03483617,9.98786233 6.05885656,9.98405802 6.08287731,9.97391304 Z M8.64707954,10.0880435 C8.61505187,10.1286234 8.57301619,10.1463768 8.52097123,10.1413043 C8.46892627,10.1362319 8.42689059,10.1336957 8.39486292,10.1336957 C8.39486292,10.1134057 8.40687312,10.0981885 8.43089387,10.0880435 C8.45491462,10.0778985 8.48193756,10.0702899 8.51196349,10.0652174 C8.54198943,10.0601449 8.57001322,10.0601449 8.5960357,10.0652174 C8.62205818,10.0702899 8.63907262,10.0778985 8.64707954,10.0880435 Z M5.89584913,9.64599902 C5.8722621,9.62571203 5.85453623,9.59552425 5.84267102,9.55543478 C5.83066064,9.51485487 5.82365469,9.47047126 5.82165297,9.42228261 C5.81965124,9.37409396 5.82265378,9.32717414 5.8306607,9.28152174 C5.83866762,9.23586934 5.85067781,9.19782624 5.86669165,9.1673913 L6.27504235,9.1673913 C6.25902852,8.86811445 6.25202257,8.58279121 6.2540243,8.31141304 C6.25602603,8.04003487 6.24101329,7.76485647 6.20898562,7.48586957 C6.22499945,7.38441978 6.23500795,7.28170342 6.23901141,7.17771739 C6.24301486,7.07373136 6.24501656,6.9697469 6.24501656,6.86576087 C6.24501656,6.76177484 6.24601741,6.66159468 6.24801914,6.56521739 C6.25002087,6.4688401 6.25902852,6.37500046 6.27504235,6.28369565 C6.2510216,6.28369565 6.23400716,6.27989134 6.22399851,6.27228261 C6.21398987,6.26467388 6.20598307,6.25452905 6.19997788,6.24184783 C6.1939727,6.2291666 6.1879676,6.21902178 6.18196241,6.21141304 C6.17595722,6.20380431 6.16494788,6.2 6.14893404,6.2 C6.16494788,6.15942009 6.16795043,6.12898561 6.15794178,6.10869565 C6.14793314,6.0884057 6.13492209,6.06557984 6.11890826,6.04021739 C6.13492209,6.01992743 6.14993483,6.00217399 6.16394694,5.98695652 C6.17795904,5.97173905 6.19297179,5.96413043 6.20898562,5.96413043 C6.20898562,5.94384048 6.20298052,5.93749996 6.19097015,5.9451087 C6.17895977,5.95271743 6.16494788,5.94637691 6.14893404,5.92608696 C6.14893404,5.88550704 6.14292895,5.85000015 6.13091857,5.81956522 C6.1189082,5.78913028 6.10589715,5.76123201 6.09188505,5.73586957 C6.07787295,5.71050712 6.06586275,5.68134074 6.0558541,5.64836957 C6.04584546,5.61539839 6.04484461,5.57355098 6.05285153,5.52282609 C6.06886536,5.563406 6.09088405,5.57355083 6.11890826,5.55326087 C6.14693247,5.53297091 6.17695795,5.52282609 6.20898562,5.52282609 C6.24101329,5.52282609 6.26903707,5.5278985 6.29305782,5.53804348 C6.31707857,5.54818846 6.35310916,5.54311604 6.40115066,5.52282609 C6.42116795,5.52282609 6.43117644,5.51014505 6.43117644,5.48478261 C6.45119374,5.48478261 6.46320393,5.49112313 6.46720739,5.50380435 C6.47121085,5.51648557 6.48121934,5.52282609 6.49723318,5.52282609 C6.50524009,5.51268111 6.50824264,5.50126818 6.50624091,5.48858696 C6.50423918,5.47590573 6.50223748,5.4644928 6.50023575,5.45434783 C6.4992073,5.44913553 6.49870725,5.44459276 6.4987356,5.44071948 C6.47473106,5.44332534 6.44920889,5.44913622 6.42216871,5.45815217 C6.38413585,5.4708334 6.34410187,5.48224633 6.30206556,5.4923913 C6.26002925,5.50253628 6.21799357,5.5088768 6.17595725,5.51141304 C6.13392094,5.51394929 6.09288611,5.50507257 6.05285153,5.48478261 C6.05285153,5.42391274 6.07687192,5.38840585 6.12491342,5.37826087 C6.17295491,5.36811589 6.2129889,5.36304348 6.24501656,5.36304348 C6.32508573,5.33768103 6.41416134,5.31485517 6.51224607,5.29456522 C6.6103308,5.27427526 6.69940641,5.24384078 6.77947557,5.20326087 C6.73543753,5.20326087 6.67738826,5.2159419 6.60532601,5.24130435 C6.53326376,5.26666679 6.46520599,5.27934783 6.40115066,5.27934783 C6.41716449,5.24891289 6.44218573,5.22735514 6.47621512,5.21467391 C6.51024452,5.20199269 6.54727595,5.19311597 6.58731054,5.18804348 C6.62734512,5.18297099 6.6673791,5.17916668 6.70741369,5.17663043 C6.74744827,5.17409419 6.78347885,5.16775367 6.81550652,5.1576087 C6.81550652,5.10181132 6.82251247,5.03840615 6.83652457,4.9673913 C6.85053667,4.89637646 6.87355621,4.84057991 6.90558388,4.8 C6.95362538,4.8 6.99466021,4.81394914 7.02868961,4.84184783 C7.062719,4.86974652 7.09574704,4.88369565 7.12777471,4.88369565 C7.14378854,4.90398561 7.14979364,4.92173905 7.14579018,4.93695652 C7.14178672,4.95217399 7.13578162,4.96739123 7.12777471,4.9826087 C7.11976779,4.99782616 7.11376269,5.0130434 7.10975923,5.02826087 C7.10575578,5.04347834 7.11176087,5.06123178 7.12777471,5.08152174 C7.23987154,5.08152174 7.35396839,5.07137691 7.47006868,5.05108696 C7.58616897,5.030797 7.70326837,5.00797114 7.82137039,4.9826087 C7.93947241,4.95724625 8.05457011,4.93442039 8.16666694,4.91413043 C8.27876377,4.89384048 8.38685553,4.88369565 8.49094544,4.88369565 C8.50695928,4.90398561 8.51696777,4.9014494 8.52097123,4.87608696 C8.52497469,4.85072451 8.53498318,4.83804348 8.55099702,4.83804348 C8.59903852,4.86340592 8.6370708,4.88369558 8.66509501,4.89891304 C8.69311922,4.91413051 8.7391583,4.92173913 8.80321363,4.92173913 C8.80321363,4.96231904 8.78720004,4.98007249 8.75517237,4.975 C8.7231447,4.96992751 8.69712261,4.97753613 8.67710532,4.99782609 C8.67710532,5.02318853 8.68811467,5.04221008 8.71013369,5.0548913 C8.73215271,5.06757253 8.74316205,5.10181132 8.74316205,5.1576087 C8.77518972,5.16775367 8.79921011,5.18931143 8.81522394,5.22228261 C8.83123778,5.25525379 8.84024542,5.29076068 8.84224715,5.32880435 C8.84424888,5.36684802 8.83924463,5.40362301 8.82723426,5.43913043 C8.81522388,5.47463786 8.79720859,5.50253613 8.77318784,5.52282609 C8.77318784,5.54311604 8.78419719,5.55072466 8.80621621,5.54565217 C8.82823523,5.54057968 8.83924457,5.55833313 8.83924457,5.59891304 C8.80721691,5.65978291 8.76217868,5.69655791 8.70412853,5.70923913 C8.64607839,5.72192035 8.58502656,5.7384057 8.52097123,5.75869565 C8.4569159,5.75869565 8.39986747,5.76630427 8.34982424,5.78152174 C8.29978101,5.79673921 8.25073939,5.80434783 8.20269789,5.80434783 C8.18668405,5.82463778 8.16566621,5.83731882 8.13964373,5.8423913 C8.11362125,5.84746379 8.08559747,5.8512681 8.05557153,5.85380435 C8.02554559,5.85634059 7.99652095,5.8588768 7.96849675,5.86141304 C7.94047254,5.86394929 7.91445045,5.8702898 7.8904297,5.88043478 C7.77833287,5.90579723 7.66123347,5.9336955 7.53912799,5.96413043 C7.41702251,5.99456537 7.29191632,6.01992743 7.16380565,6.04021739 C7.16380565,6.18224709 7.1688099,6.32807896 7.17881854,6.47771739 C7.18882719,6.62735582 7.19383144,6.76304287 7.19383144,6.88478261 C7.2258591,6.90507257 7.26889564,6.91648549 7.32294232,6.91902174 C7.37698901,6.92155798 7.42803234,6.92282609 7.47607384,6.92282609 C7.62019834,6.90253613 7.76331982,6.8911232 7.90544259,6.88858696 C8.04756536,6.88605071 8.18868515,6.88478261 8.32880619,6.88478261 C8.31279236,6.92536252 8.28677027,6.94184786 8.25073914,6.93423913 C8.21470802,6.9266304 8.18868593,6.92282609 8.1726721,6.92282609 C8.10060985,6.94311604 8.02354443,6.95706518 7.94147354,6.96467391 C7.85940264,6.97228265 7.77633213,6.97862316 7.6922595,6.98369565 C7.60818688,6.98876814 7.52811891,6.99510866 7.45205321,7.00271739 C7.3759875,7.01032613 7.30993143,7.02427526 7.25388301,7.04456522 C7.49409051,7.04456522 7.72929016,7.04076091 7.95948901,7.03315217 C8.18968786,7.02554344 8.40887392,7.04202878 8.61705375,7.0826087 C8.58502608,7.12318861 8.53998785,7.14601447 8.48193771,7.15108696 C8.42388756,7.15615945 8.36283574,7.14855083 8.2987804,7.12826087 C8.2987804,7.16884078 8.31779655,7.19166664 8.3558294,7.19673913 C8.39386225,7.20181162 8.42889199,7.20434783 8.46091965,7.20434783 C8.47693349,7.22463778 8.49895218,7.24365933 8.52697639,7.26141304 C8.55500059,7.27916676 8.58502608,7.28804348 8.61705375,7.28804348 C8.61705375,7.30833343 8.62305885,7.3336955 8.63506922,7.36413043 C8.6470796,7.39456537 8.66109149,7.42246364 8.67710532,7.44782609 C8.67710532,7.46811604 8.68010787,7.49347811 8.68611306,7.52391304 C8.69211825,7.55434798 8.6791072,7.58224625 8.64707954,7.6076087 C8.69512103,7.68876852 8.71113463,7.74836938 8.69512079,7.78641304 C8.67910696,7.82445671 8.64707978,7.85235498 8.59903828,7.8701087 C8.55099678,7.88786241 8.4929475,7.89927534 8.42488871,7.90434783 C8.35682992,7.90942032 8.29477725,7.91702893 8.23872883,7.92717391 C8.16666658,7.94746387 8.08659862,7.96141301 7.99852253,7.96902174 C7.91044645,7.97663047 7.81936914,7.98297099 7.72528787,7.98804348 C7.6312066,7.99311597 7.53912844,7.99945648 7.44905063,8.00706522 C7.35897282,8.01467395 7.2739006,8.02862309 7.19383144,8.04891304 C7.19383144,8.22645016 7.19883569,8.38242686 7.20884433,8.51684783 C7.21885298,8.65126879 7.22385722,8.78949204 7.22385722,8.93152174 C7.36397827,8.98731912 7.5081006,9.0202898 7.65622856,9.03043478 C7.80435652,9.04057976 7.96649415,9.04565217 8.14264631,9.04565217 C8.11061864,9.08623209 8.06658126,9.10525364 8.01053285,9.10271739 C7.95448443,9.10018115 7.90244025,9.10905787 7.85439875,9.12934783 C7.93446792,9.1394928 8.00552824,9.14456522 8.06758184,9.14456522 L8.24773657,9.14456522 C8.30578671,9.14456522 8.36383599,9.14583332 8.42188613,9.14836957 C8.47993628,9.15090581 8.5449915,9.15724633 8.61705375,9.1673913 C8.63306758,9.20797122 8.63707098,9.25489104 8.62906406,9.30815217 C8.62105715,9.36141331 8.61705375,9.40833313 8.61705375,9.44891304 C8.62506066,9.45905802 8.63506916,9.46286233 8.64707954,9.46032609 L8.68311048,9.45271739 C8.69512085,9.45018115 8.7061302,9.45018115 8.71613885,9.45271739 C8.72614749,9.45525364 8.73515514,9.46666657 8.74316205,9.48695652 C8.74316205,9.52753643 8.73815781,9.57065195 8.72814916,9.61630435 C8.71814051,9.66195675 8.71313627,9.72789812 8.71313627,9.81413043 C8.6811086,9.83442039 8.64407717,9.85978246 8.60204085,9.89021739 C8.56000454,9.92065233 8.52297311,9.9485506 8.49094544,9.97391304 C8.28276561,9.994203 8.08159485,10.0005435 7.88742712,9.99293478 C7.69325939,9.98532605 7.49409033,9.99166657 7.28991396,10.0119565 C7.430035,10.0474639 7.59517517,10.0690217 7.78533944,10.0766304 C7.97550371,10.0842392 8.15665748,10.0880435 8.32880619,10.0880435 C8.29677853,10.1134059 8.25374199,10.1286232 8.19969531,10.1336957 C8.14564862,10.1387681 8.09460529,10.1514492 8.04656379,10.1717391 L6.94161483,10.1717391 C6.93360791,10.1717391 6.92860366,10.1780796 6.92660193,10.1907609 C6.9246002,10.2034421 6.92359935,10.2173912 6.92359935,10.2326087 C6.92359935,10.2478262 6.9225985,10.2617753 6.92059677,10.2744565 C6.91859505,10.2871377 6.9135908,10.2934783 6.90558388,10.2934783 C6.86154584,10.2731883 6.82551526,10.2807969 6.79749105,10.3163043 C6.76946684,10.3518118 6.73343625,10.3695652 6.68939821,10.3695652 C6.64135671,10.3949277 6.59331593,10.3949277 6.54527444,10.3695652 C6.49723294,10.3442028 6.44919216,10.3315217 6.40115066,10.3315217 C6.38513682,10.2706519 6.38013258,10.2186596 6.38613776,10.1755435 C6.39214295,10.1324273 6.3871387,10.0905799 6.37112487,10.05 C6.35511104,10.0905799 6.34810509,10.1374997 6.35010682,10.1907609 C6.35210855,10.244022 6.3370958,10.2909418 6.30506814,10.3315217 C6.27304047,10.3315217 6.25302348,10.3175726 6.24501656,10.2896739 C6.23700965,10.2617752 6.23500795,10.2275364 6.23901141,10.1869565 C6.24301486,10.1463766 6.24701826,10.1032611 6.25102172,10.0576087 C6.25502518,10.0119563 6.25302348,9.96884078 6.24501656,9.92826087 C6.2129889,9.90797091 6.17695831,9.90036229 6.13692373,9.90543478 L6.01682058,9.92065217 C5.976786,9.92572466 5.93975456,9.92572466 5.90572517,9.92065217 C5.87169577,9.91557968 5.84667453,9.89275383 5.8306607,9.85217391 C5.8306607,9.83188396 5.84167005,9.81920292 5.86368907,9.81413043 C5.88570809,9.80905795 5.89671743,9.79384071 5.89671743,9.76847826 C5.88871052,9.76847826 5.87870202,9.76594205 5.86669165,9.76086957 C5.8426709,9.75072459 5.8306607,9.74057976 5.8306607,9.73043478 C5.8306607,9.71014483 5.83766665,9.69112328 5.85167875,9.67336957 C5.86568934,9.65561777 5.88070035,9.64674105 5.89671223,9.64673913 L5.89584913,9.64599902 Z M12.0039625,5.97173913 C12.0199764,5.99710158 12.0369908,6.03894898 12.0550064,6.09728261 C12.0730219,6.15561623 12.066016,6.19492743 12.0339883,6.21521739 C12.0339883,6.17463748 12.0289841,6.13405817 12.0189754,6.09347826 C12.0089668,6.05289835 12.0039625,6.01231904 12.0039625,5.97173913 Z M12.3162307,6.45108696 C12.3162307,6.49166687 12.3152299,6.52336945 12.3132281,6.54619565 C12.3112264,6.56902185 12.3022188,6.59057961 12.2862049,6.61086957 L12.2561791,6.57282609 C12.2401653,6.53224617 12.2381636,6.50815221 12.250174,6.50054348 C12.2621844,6.49293474 12.2842031,6.4764494 12.3162307,6.45108696 Z M10.4777952,7.73279417 C10.4749842,7.71527914 10.4652615,7.70652174 10.4486268,7.70652174 C10.4486268,7.74710165 10.4496276,7.78514475 10.4516293,7.82065217 C10.4536311,7.8561596 10.4626387,7.88405787 10.4786526,7.90434783 C10.4986698,7.88405787 10.5036741,7.86250011 10.4936654,7.83967391 C10.4836568,7.81684771 10.4786526,7.78514513 10.4786526,7.74456522 C10.4986698,7.74456522 10.51068,7.75597815 10.5146835,7.77880435 C10.518687,7.80163055 10.5286954,7.80289865 10.5447093,7.7826087 C10.5126816,7.59999909 10.4916638,7.42119653 10.4816551,7.24619565 C10.4716465,7.07119478 10.4506286,6.90253704 10.418601,6.74021739 C10.4025871,6.90253704 10.4085922,7.06485426 10.4366164,7.22717391 C10.4644128,7.38817392 10.4784238,7.55915207 10.4786498,7.74011343 L10.4777952,7.73279417 Z M10.9890909,6.97608696 C10.9730771,7.03695683 10.9580644,7.08894906 10.9440523,7.13206522 C10.9300401,7.17518138 10.9150274,7.21702878 10.8990136,7.2576087 C10.8990136,7.27789865 10.8950102,7.2981883 10.8870033,7.31847826 C10.8789963,7.33876822 10.8719904,7.35778977 10.8659852,7.37554348 C10.85998,7.39329719 10.8579783,7.40851443 10.85998,7.42119565 C10.8619818,7.43387688 10.8749928,7.4452898 10.8990136,7.45543478 C10.8990136,7.41485487 10.9100229,7.36920315 10.9320419,7.31847826 C10.954061,7.26775337 10.9730771,7.22210165 10.9890909,7.18152174 L10.9890909,6.97608696 Z M9.82379984,7.12696126 C9.83068292,7.15081433 9.82677633,7.16646482 9.81208008,7.17391304 C9.80407316,7.17898553 9.79406466,7.18152174 9.78205429,7.18152174 C9.79806812,7.2018117 9.81208002,7.21449273 9.82409039,7.21956522 C9.83610077,7.22463771 9.83209737,7.23731874 9.81208008,7.2576087 C9.83209737,7.33876852 9.84210586,7.39583317 9.84210586,7.42880435 C9.84210586,7.46177553 9.83209737,7.49855052 9.81208008,7.53913043 C9.83209737,7.80289987 9.85211436,8.07554207 9.87213165,8.35706522 C9.89214894,8.63858836 9.92817953,8.90108574 9.98022448,9.14456522 C10.0042452,9.11413028 10.0172563,9.0824277 10.019258,9.04945652 C10.0212597,9.01648534 10.019258,8.98351466 10.0132529,8.95054348 C10.0072477,8.9175723 10.0002417,8.88333351 9.9922348,8.84782609 C9.98422788,8.81231866 9.98022448,8.77934798 9.98022448,8.74891304 C9.96020719,8.64746326 9.95520294,8.546015 9.96521159,8.44456522 C9.97522024,8.34311543 9.98022448,8.24166717 9.98022448,8.14021739 C9.96020719,8.09963748 9.9441936,8.05144955 9.93218322,7.99565217 C9.92017285,7.93985479 9.91416775,7.88152204 9.91416775,7.82065217 C9.89415046,7.69891243 9.88013857,7.57337021 9.87213165,7.44402174 C9.86479296,7.32546813 9.84736516,7.21863418 9.81984779,7.12351721 L9.82379984,7.12696126 Z M11.4634984,7.09782609 C11.4474845,7.11811604 11.444482,7.15108673 11.4544906,7.19673913 C11.4644993,7.24239153 11.4775103,7.27536222 11.4935242,7.29565217 C11.509538,7.25507226 11.5125405,7.21702916 11.5025319,7.18152174 C11.4925232,7.14601432 11.4795122,7.11811604 11.4634984,7.09782609 Z M13.1089115,7.13586957 C13.1089115,7.16123201 13.1029064,7.17518115 13.090896,7.17771739 C13.0788857,7.18025364 13.0648738,7.18152174 13.0488599,7.18152174 C13.0328461,7.34384139 13.0178334,7.49728189 13.0038212,7.64184783 C12.9898091,7.78641377 12.9828032,7.93985426 12.9828032,8.10217391 C13.0148309,8.061594 13.0298436,8.01467418 13.0278419,7.96141304 C13.0258401,7.90815191 13.0328461,7.86123209 13.0488599,7.82065217 L13.1029063,7.47826087 C13.1229236,7.35144864 13.1249253,7.23731935 13.1089115,7.13586957 Z M10.7729053,7.61521739 C10.7648983,7.66594228 10.7518873,7.71413021 10.7338717,7.75978261 C10.7158562,7.80543501 10.6978409,7.84981863 10.6798253,7.89293478 C10.6618098,7.93605094 10.6487987,7.97789835 10.6407918,8.01847826 C10.6327849,8.05905817 10.6327849,8.09963748 10.6407918,8.14021739 C10.6487987,8.09963748 10.6618098,8.05905817 10.6798253,8.01847826 C10.6978409,7.97789835 10.7148553,7.93605094 10.7308692,7.89293478 C10.746883,7.84981863 10.759894,7.80543501 10.7699027,7.75978261 C10.7799113,7.71413021 10.7809122,7.66594228 10.7729053,7.61521739 Z M11.3373901,7.9423913 C11.3213762,8.04384109 11.3003584,8.12373159 11.2743359,8.18206522 C11.2483134,8.24039884 11.2272956,8.32028935 11.2112818,8.42173913 C11.1632403,8.482609 11.1312131,8.5586952 11.1151992,8.65 C11.0991854,8.7413048 11.0991854,8.82753583 11.1151992,8.90869565 C11.1632407,8.746376 11.2052764,8.5916674 11.2413075,8.44456522 C11.2773387,8.29746303 11.3193744,8.14275443 11.3674159,7.98043478 C11.3674159,7.9702898 11.3654142,7.96268118 11.3614107,7.9576087 C11.3534038,7.94746372 11.345397,7.9423913 11.3373901,7.9423913 Z M10.5146835,8.18586957 C10.4946662,8.18586957 10.489662,8.20615922 10.4996706,8.24673913 C10.5096792,8.28731904 10.5146835,8.32028973 10.5146835,8.34565217 C10.5306973,8.32028973 10.5347007,8.29239146 10.5266938,8.26195652 C10.5186869,8.23152159 10.5146835,8.20615952 10.5146835,8.18586957 Z M11.3373901,8.78695652 C11.3534039,8.80724648 11.3544047,8.84021716 11.3403926,8.88586957 C11.3263805,8.93152197 11.303361,8.96449265 11.2713333,8.98478261 C11.2713333,8.96449265 11.2783393,8.93659438 11.2923514,8.90108696 L11.3373901,8.78695652 Z M11.6556634,9.22826087 C11.7277257,9.22826087 11.7497443,9.26884017 11.7217201,9.35 C11.7017028,9.37028996 11.6856893,9.36014513 11.6736789,9.31956522 C11.6616685,9.2789853 11.6556634,9.24855083 11.6556634,9.22826087 Z M11.7217201,9.42608696 C11.7537478,9.42608696 11.7667588,9.4425723 11.7607537,9.47554348 C11.7547485,9.50851466 11.7517459,9.54528965 11.7517459,9.58586957 C11.7357321,9.59601454 11.7237219,9.59474644 11.715715,9.58206522 C11.7077081,9.56938399 11.7027038,9.55289865 11.7007021,9.5326087 C11.6987004,9.51231874 11.6997012,9.49202909 11.7037047,9.47173913 C11.7077081,9.45144917 11.7137132,9.43623193 11.7217201,9.42608696 Z M13.0488599,9.875 C13.0168323,9.875 12.9968153,9.88641293 12.9888084,9.90923913 C12.9808014,9.93206533 12.9687912,9.93333343 12.9527774,9.91304348 C12.9527774,9.88260854 12.9577817,9.85597837 12.9677903,9.83315217 C12.977799,9.81032597 12.9888083,9.79510873 13.0008187,9.7875 C13.012829,9.77989127 13.0238384,9.78242747 13.033847,9.7951087 C13.0438557,9.80778992 13.0488599,9.83442009 13.0488599,9.875 Z M12.8266691,5.77391304 C12.7946414,5.91594274 12.764616,6.07825996 12.7365917,6.26086957 C12.7085675,6.44347917 12.6865488,6.61594122 12.670535,6.77826087 C12.7025627,6.61594122 12.7365916,6.4523559 12.7726227,6.2875 C12.8086538,6.1226441 12.8266691,5.95145016 12.8266691,5.77391304 Z M10.8220308,10.0591041 C10.8081177,10.086206 10.7917426,10.1047292 10.7729053,10.1146739 C10.7488845,10.1273551 10.7208607,10.1336957 10.6888331,10.1336957 C10.6568054,10.1336957 10.6207748,10.1298913 10.5807402,10.1222826 C10.5407056,10.1146739 10.4966683,10.1108696 10.4486268,10.1108696 L10.3885752,10.1108696 C10.3565475,10.1108696 10.3245203,10.1172101 10.2924927,10.1298913 C10.260465,10.1425725 10.2284378,10.148913 10.1964102,10.148913 C10.1523721,10.1286231 10.1253492,10.0956524 10.1153405,10.05 C10.1053319,10.0043476 10.0903191,9.97137691 10.0703018,9.95108696 C10.0703018,9.97137691 10.0753061,10.0068838 10.0853147,10.0576087 C10.0953234,10.1083336 10.0903191,10.1539853 10.0703018,10.1945652 C10.0382742,10.1539853 10.019258,10.1070655 10.0132529,10.0538043 C10.0072477,10.0005432 9.99623832,9.95362339 9.98022448,9.91304348 C9.96421065,9.75072383 9.95320131,9.57065316 9.94719612,9.37282609 C9.94119093,9.17499901 9.93018159,9.00760938 9.91416775,8.87065217 C9.91416775,8.85036222 9.90816266,8.83768118 9.89615228,8.8326087 C9.88814536,8.82753621 9.88214027,8.825 9.87813681,8.825 C9.84610914,8.56123057 9.82008705,8.31395043 9.80006976,8.08315217 C9.78005247,7.85235392 9.75403038,7.60507378 9.72200271,7.34130435 L9.72200271,6.97608696 C9.68997505,6.77318739 9.65994956,6.55760984 9.63192535,6.32934783 C9.60390115,6.10108582 9.57988076,5.87789964 9.55986346,5.65978261 C9.55986346,5.57355029 9.55085582,5.48478307 9.53284026,5.39347826 C9.51482469,5.30217346 9.51382384,5.22862347 9.52983768,5.17282609 C9.52983768,5.13224617 9.53884532,5.08786256 9.55686089,5.03967391 C9.57487645,4.99148527 9.60790448,4.9673913 9.65594598,4.9673913 L9.65594598,5.24891304 C9.68797365,5.24891304 9.70098469,5.23496391 9.69497951,5.20706522 C9.68897432,5.17916653 9.68597177,5.15253636 9.68597177,5.12717391 C9.70598906,5.10688396 9.71799926,5.10054344 9.72200271,5.10815217 C9.72600617,5.11576091 9.73601467,5.10942039 9.7520285,5.08913043 C9.7520285,5.04855052 9.7580336,5.01050742 9.77004397,4.975 C9.78205435,4.93949258 9.79606624,4.9115943 9.81208008,4.89130435 C9.82809391,4.88115937 9.83910325,4.87989127 9.84510844,4.8875 C9.85111363,4.89510873 9.85711873,4.90398546 9.86312391,4.91413043 C9.8691291,4.92427541 9.8751342,4.93568834 9.88113939,4.94836957 C9.88714457,4.96105079 9.89815392,4.9673913 9.91416775,4.9673913 C9.93018159,4.94710135 9.94619518,4.9293479 9.96220901,4.91413043 C9.97822285,4.89891297 9.99423644,4.89130435 10.0102503,4.89130435 C10.0422779,4.87101439 10.0713026,4.86847818 10.0973251,4.88369565 C10.1233475,4.89891312 10.1363586,4.88876829 10.1363586,4.85326087 C10.1523724,4.87355083 10.1693869,4.88496376 10.1874024,4.8875 C10.205418,4.89003624 10.225435,4.89003624 10.247454,4.8875 C10.269473,4.88496376 10.2924926,4.88242755 10.3165133,4.8798913 C10.3405341,4.87735506 10.3645544,4.88115937 10.3885752,4.89130435 C10.4206029,5.0079716 10.439619,5.13351382 10.4456242,5.26793478 C10.4516294,5.40235574 10.4626387,5.53297038 10.4786526,5.65978261 C10.4786526,5.7105075 10.4686441,5.73586957 10.4486268,5.73586957 C10.4646406,5.77644948 10.4736482,5.80815206 10.47565,5.83097826 C10.4776517,5.85380446 10.4786526,5.87536222 10.4786526,5.89565217 C10.4786526,6.20000152 10.4906627,6.49293338 10.5146835,6.77445652 C10.5387042,7.05597967 10.5587212,7.33623049 10.5747351,7.61521739 C10.6227766,7.51376761 10.6658131,7.41485555 10.703846,7.31847826 C10.7418788,7.22210097 10.7849153,7.12318891 10.8329568,7.02173913 C10.8329568,7.11304393 10.8179441,7.19800685 10.7879182,7.27663043 C10.7578922,7.35525402 10.7268659,7.43387642 10.6948382,7.5125 C10.6628106,7.59112358 10.6357876,7.66847788 10.6137686,7.74456522 C10.5917496,7.82065255 10.588747,7.89927496 10.6047609,7.98043478 C10.6728196,7.75724526 10.7448808,7.52010995 10.8209465,7.26902174 C10.8970122,7.01793353 10.9750785,6.76050857 11.0551477,6.49673913 C11.0711615,6.4155793 11.0961827,6.3356888 11.1302121,6.25706522 C11.1642415,6.17844164 11.181256,6.09855113 11.181256,6.0173913 C11.1892629,5.95652143 11.188262,5.89692058 11.1782534,5.83858696 C11.1682447,5.78025333 11.1562346,5.72192058 11.1422224,5.66358696 C11.1282103,5.60525333 11.1151993,5.54565248 11.1031889,5.48478261 C11.0911785,5.42391274 11.0851735,5.35797137 11.0851735,5.28695652 C11.1492288,5.24637661 11.181256,5.27427488 11.181256,5.37065217 C11.1972698,5.37065217 11.2022741,5.35670304 11.1962689,5.32880435 C11.1902637,5.30090566 11.1952679,5.28695652 11.2112818,5.28695652 C11.2272956,5.26666657 11.2483134,5.25398553 11.2743359,5.24891304 C11.3003584,5.24384055 11.3213762,5.23115952 11.3373901,5.21086957 C11.3694177,5.21086957 11.4064492,5.21340577 11.4484855,5.21847826 C11.4905218,5.22355075 11.5295549,5.24637661 11.565586,5.28695652 C11.5815999,5.26666657 11.5926092,5.25652174 11.5986144,5.25652174 C11.6046196,5.25652174 11.6236357,5.26666657 11.6556634,5.28695652 C11.6716772,5.28695652 11.6766815,5.27427549 11.6706763,5.24891304 C11.6646711,5.2235506 11.6696754,5.21086957 11.6856892,5.21086957 C11.7177169,5.21086957 11.7457406,5.22228249 11.7697614,5.2451087 C11.7937821,5.2679349 11.8298127,5.269203 11.8778542,5.24891304 C11.9098819,5.37065278 11.9349031,5.4923907 11.9529187,5.61413043 C11.9709343,5.73587017 11.9879487,5.85507188 12.0039625,5.97173913 C11.9719349,5.93115922 11.9519179,5.88297129 11.943911,5.82717391 C11.935904,5.77137653 11.9238939,5.71557999 11.90788,5.65978261 C11.90788,5.61413021 11.8978715,5.56974659 11.8778542,5.52663043 C11.8670711,5.50340421 11.8591924,5.47760226 11.8542181,5.44922436 C11.8885847,5.60320698 11.9173718,5.76796315 11.9469135,5.9375 C11.9809429,6.13279083 12.0199761,6.33188304 12.0640141,6.53478261 C12.0840314,6.62101492 12.1020467,6.71612267 12.1180605,6.8201087 C12.1340744,6.92409472 12.1580948,7.01666626 12.1901224,7.09782609 C12.1901224,7.11811604 12.1951267,7.13713759 12.2051353,7.1548913 C12.215144,7.17264502 12.2101397,7.18152174 12.1901224,7.18152174 C12.1901224,7.2018117 12.1971284,7.22083324 12.2111405,7.23858696 L12.2561791,7.29565217 C12.2561791,7.32101462 12.25718,7.35778961 12.2591817,7.40597826 C12.2611835,7.45416691 12.2701911,7.49855052 12.2862049,7.53913043 C12.2862049,7.55942039 12.2872058,7.57844194 12.2892075,7.59619565 C12.2912092,7.61394936 12.3002169,7.63297091 12.3162307,7.65326087 C12.3162307,7.73949318 12.3292418,7.8219199 12.3552642,7.90054348 C12.3812867,7.97916706 12.4023046,8.05905757 12.4183184,8.14021739 C12.4663599,8.03876761 12.4973862,7.91576159 12.5113983,7.77119565 C12.5254104,7.62662971 12.5464283,7.49601508 12.5744525,7.37934783 C12.5744525,7.33876791 12.5654448,7.31974636 12.5474293,7.32228261 C12.5294137,7.32481885 12.5284129,7.31594213 12.5444267,7.29565217 C12.5604405,7.11811505 12.5814584,6.93170388 12.6074809,6.73641304 C12.6335033,6.54112221 12.6545212,6.35471103 12.670535,6.17717391 C12.7025627,5.97427435 12.7255822,5.78279076 12.7395943,5.60271739 C12.7536064,5.42264403 12.7926396,5.25145009 12.8566949,5.08913043 C12.8727087,5.08913043 12.8837181,5.09547095 12.8897233,5.10815217 C12.8957284,5.1208334 12.8997318,5.13478253 12.9017336,5.15 C12.9037353,5.16521747 12.905737,5.1791666 12.9077387,5.19184783 C12.9097405,5.20452905 12.9147447,5.21086957 12.9227516,5.21086957 C12.9387655,5.19057961 12.9447706,5.16521754 12.9407671,5.13478261 C12.9367636,5.10434767 12.9507755,5.08913043 12.9828032,5.08913043 C12.9828032,5.06884048 12.9798006,5.05742755 12.9737955,5.0548913 C12.9677903,5.05235506 12.9617852,5.05108696 12.95578,5.05108696 C12.9497748,5.05108696 12.9457714,5.04981885 12.9437697,5.04728261 C12.9417679,5.04474636 12.9447705,5.03333343 12.9527774,5.01304348 C12.9767982,4.99275352 13.0068236,4.98134059 13.0428548,4.97880435 C13.0788859,4.9762681 13.1159173,4.98134052 13.1539502,4.99402174 C13.191983,5.00670296 13.2280136,5.02445641 13.262043,5.04728261 C13.2960724,5.07010881 13.3210937,5.09673898 13.3371075,5.12717391 C13.3531213,5.086594 13.37514,5.07010866 13.4031642,5.07771739 C13.4311884,5.08532612 13.4612139,5.08913043 13.4932416,5.08913043 C13.4932416,5.12971035 13.5012484,5.16648534 13.5172622,5.19945652 C13.533276,5.2324277 13.5572964,5.24891304 13.5893241,5.24891304 C13.6053379,5.35036283 13.6033362,5.4568835 13.5833189,5.56847826 C13.5633016,5.68007302 13.5432847,5.77644887 13.5232674,5.8576087 C13.4912397,5.9945659 13.4702219,6.13278916 13.4602132,6.27228261 C13.4502046,6.41177606 13.4291867,6.55507173 13.3971591,6.70217391 C13.3811452,6.75797129 13.3711367,6.82391266 13.3671333,6.9 C13.3631298,6.97608734 13.3531213,7.05470974 13.3371075,7.13586957 C13.3210937,7.17644948 13.3110852,7.23858654 13.3070817,7.32228261 C13.3030782,7.40597868 13.291068,7.47826057 13.2710508,7.53913043 C13.2670473,7.54420292 13.2630439,7.55181154 13.2590404,7.56195652 C13.255037,7.5721015 13.2510336,7.58097822 13.2470301,7.58858696 C13.2430267,7.59619569 13.241025,7.60507241 13.241025,7.61521739 C13.2250111,7.66086979 13.2200069,7.71159392 13.2260121,7.7673913 C13.2320173,7.82318868 13.227013,7.88152143 13.2109992,7.9423913 C13.1909819,8.10471096 13.1619573,8.27210059 13.1239244,8.44456522 C13.0858915,8.61702985 13.0508618,8.78441948 13.0188341,8.94673913 C12.9988169,8.98731904 12.9868067,9.03170266 12.9828032,9.0798913 C12.9787997,9.12807995 12.9687912,9.16485495 12.9527774,9.19021739 C13.0328466,8.74383835 13.1039069,8.30127031 13.1659605,7.8625 C13.2280141,7.42372969 13.275054,6.98116165 13.3070817,6.53478261 C13.2870644,6.60072497 13.2750542,6.66539823 13.2710508,6.72880435 C13.2670473,6.79221046 13.2570388,6.87463717 13.241025,6.97608696 C13.241025,7.0014494 13.2360207,7.02427526 13.2260121,7.04456522 C13.2160034,7.06485517 13.2109992,7.09528965 13.2109992,7.13586957 C13.1909819,7.17644948 13.1849768,7.2233693 13.1929837,7.27663043 C13.2009906,7.32989157 13.1949855,7.37681139 13.1749682,7.4173913 C13.1749682,7.43768126 13.1689631,7.45036229 13.1569528,7.45543478 C13.1449424,7.46050727 13.1389373,7.47572451 13.1389373,7.50108696 C13.1109131,7.6228267 13.0948995,7.74710082 13.090896,7.87391304 C13.0868926,8.00072527 13.0628722,8.10470974 13.0188341,8.18586957 C13.0268411,8.27717437 13.0258402,8.36340539 13.0158316,8.44456522 C13.0058229,8.52572504 12.9938127,8.60434745 12.9798006,8.68043478 C12.9657885,8.75652212 12.9527775,8.83260832 12.9407671,8.90869565 C12.9287567,8.98478299 12.9227516,9.06340539 12.9227516,9.14456522 C12.9067378,9.16992766 12.8977301,9.19782593 12.8957284,9.22826087 C12.8937267,9.2586958 12.8927258,9.28405787 12.8927258,9.30434783 C12.8927258,9.34492774 12.8937267,9.35507257 12.8957284,9.33478261 C12.8977301,9.31449265 12.9067378,9.30434783 12.9227516,9.30434783 C12.9227516,9.57826224 12.8907244,9.8344191 12.8266691,10.0728261 C12.8266691,10.093116 12.8226657,10.1248186 12.8146588,10.1679348 C12.8066519,10.2110509 12.7786281,10.2326087 12.7305866,10.2326087 C12.6985589,10.2123187 12.6905521,10.1818843 12.706566,10.1413043 C12.7225798,10.1007244 12.7305866,10.0500003 12.7305866,9.98913043 C12.7145728,9.98913043 12.7035634,9.99673905 12.6975582,10.0119565 C12.691553,10.027174 12.6725369,10.0347826 12.6405092,10.0347826 C12.6405092,10.0550726 12.6425109,10.0829708 12.6465144,10.1184783 C12.6505178,10.1539857 12.6365059,10.1920288 12.6044783,10.2326087 C12.5724506,10.2021738 12.5354192,10.1869565 12.4933829,10.1869565 C12.4513466,10.1869565 12.4053075,10.1907608 12.3552642,10.1983696 C12.305221,10.2059783 12.2531768,10.2123188 12.1991302,10.2173913 C12.1450835,10.2224638 12.0900367,10.2148552 12.0339883,10.1945652 C11.9859468,9.99166565 11.9389069,9.78242861 11.8928671,9.56684783 C11.8468274,9.35126704 11.7997874,9.13188517 11.7517459,8.90869565 L11.7097098,8.80217391 C11.6976994,8.77173898 11.7017028,8.72355105 11.7217201,8.6576087 C11.737734,8.68297114 11.7467416,8.705797 11.7487433,8.72608696 C11.7507451,8.74637691 11.7517459,8.76666657 11.7517459,8.78695652 C11.7677598,8.86811635 11.7887776,8.94927496 11.8148001,9.03043478 C11.8408226,9.11159461 11.8618404,9.20289804 11.8778542,9.30434783 C11.8938681,9.27391289 11.900874,9.24474652 11.8988723,9.21684783 C11.8968706,9.18894914 11.8908655,9.15978276 11.8808568,9.12934783 C11.8708482,9.09891289 11.858838,9.06847841 11.8448259,9.03804348 C11.8308138,9.00760854 11.8198044,8.97717407 11.8117975,8.94673913 C11.7797698,8.78441948 11.738735,8.61449364 11.6886918,8.43695652 C11.6386485,8.2594194 11.5976137,8.08188495 11.565586,7.90434783 C11.4494858,8.18333473 11.3453974,8.48007089 11.2533179,8.79456522 C11.1612383,9.10905954 11.0831721,9.42608536 11.0191167,9.74565217 C11.0671582,9.66449235 11.1041897,9.5693846 11.1302121,9.46032609 C11.1562346,9.35126757 11.193266,9.246015 11.2413075,9.14456522 C11.2573214,9.18514513 11.2553197,9.22318823 11.2353024,9.25869565 C11.2152851,9.29420308 11.1972698,9.32463755 11.181256,9.35 C11.1612387,9.46666725 11.132214,9.58586896 11.0941812,9.7076087 C11.0561483,9.82934843 11.0211186,9.95108635 10.9890909,10.0728261 C10.9890909,10.093116 10.9840867,10.1197462 10.974078,10.1527174 C10.9640694,10.1856886 10.9590651,10.2123187 10.9590651,10.2326087 L10.8029311,10.2326087 C10.8029311,10.1920288 10.8039319,10.1539857 10.8059336,10.1184783 C10.8073214,10.0938613 10.8120766,10.0729017 10.8201993,10.0555992 L10.8220308,10.0591041 Z M13.241025,6.29130435 C13.241025,6.33188426 13.2440275,6.34202909 13.2500327,6.32173913 C13.2560379,6.30144917 13.262043,6.2735509 13.2680482,6.23804348 C13.2740534,6.20253605 13.2780568,6.16702916 13.2800585,6.13152174 C13.2820602,6.09601432 13.2790577,6.08333328 13.2710508,6.09347826 C13.2430265,6.11376822 13.2350198,6.14166649 13.2470301,6.17717391 C13.2590405,6.21268134 13.2570388,6.25072443 13.241025,6.29130435 Z M11.7711725,8.5380993 C11.7612531,8.52691113 11.7547777,8.49826947 11.7517459,8.45217391 C11.7477425,8.39130404 11.737734,8.34057991 11.7217201,8.3 C11.7537478,8.32536245 11.7677597,8.36213744 11.7637562,8.41032609 C11.7604633,8.44996225 11.7639416,8.48702416 11.7741911,8.52151255 L11.7711725,8.5380993 Z" id="new" fill="#FFFFFF" fill-rule="evenodd" transform="translate(8.000000, 7.600000) rotate(-19.000000) translate(-8.000000, -7.600000) "></path>
                </g>
            </g>
        </g>
    </g>
</svg>