<?xml version="1.0" encoding="UTF-8"?>
<svg width="54px" height="54px" viewBox="0 0 54 54" version="1.1" xmlns="http://www.w3.org/2000/svg" xmlns:xlink="http://www.w3.org/1999/xlink">
    <!-- Generator: Sketch 52.2 (67145) - http://www.bohemiancoding.com/sketch -->
    <title></title>
    <desc>Created with Sketch.</desc>
    <defs>
        <filter x="-5.6%" y="-7.8%" width="111.1%" height="115.6%" filterUnits="objectBoundingBox" id="filter-1">
            <feOffset dx="0" dy="6" in="SourceAlpha" result="shadowOffsetOuter1"></feOffset>
            <feGaussianBlur stdDeviation="10" in="shadowOffsetOuter1" result="shadowBlurOuter1"></feGaussianBlur>
            <feColorMatrix values="0 0 0 0 0.137254902   0 0 0 0 0.156862745   0 0 0 0 0.188235294  0 0 0 0.3 0" type="matrix" in="shadowBlurOuter1" result="shadowMatrixOuter1"></feColorMatrix>
            <feMerge>
                <feMergeNode in="shadowMatrixOuter1"></feMergeNode>
                <feMergeNode in="SourceGraphic"></feMergeNode>
            </feMerge>
        </filter>
    </defs>
    <g id="Page-1" stroke="none" stroke-width="1" fill="none" fill-rule="evenodd">
        <g id="欢迎页面-copy" transform="translate(-244.000000, -551.000000)">
            <g id="弹窗" filter="url(#filter-1)" transform="translate(233.000000, 64.000000)">
                <g id="欢迎页面/新手" transform="translate(30.000000, 500.000000)">
                    <rect id="矩形-copy-2" fill="#2BCA97" fill-rule="nonzero" x="0" y="0" width="16" height="16" rx="8"></rect>
                    <circle id="椭圆形" fill="#FFFFFF" fill-rule="evenodd" cx="8" cy="8" r="4.8"></circle>
                    <path d="M8.11528384,4.8 C8.79650655,4.8 9.35196507,4.94945055 9.77117904,5.26593407 C10.190393,5.57362637 10.4,5.9956044 10.4,6.53186813 C10.4,6.97142857 10.2637555,7.33186813 10.0122271,7.61318681 C9.91790393,7.7010989 9.6139738,7.93846154 9.11091703,8.30769231 C8.92227074,8.43956044 8.7860262,8.58901099 8.69170306,8.74725275 C8.58689956,8.92307692 8.53449782,9.10769231 8.53449782,9.31868132 L8.53449782,9.44175824 L7.32925764,9.44175824 L7.32925764,9.31868132 C7.32925764,8.98461538 7.39213974,8.69450549 7.53886463,8.45714286 C7.67510917,8.21978022 8.08384279,7.85054945 8.7650655,7.34065934 L8.89082969,7.21758242 C9.07947598,7.02417582 9.17379913,6.81318681 9.17379913,6.59340659 C9.17379913,6.3032967 9.06899563,6.07472527 8.88034934,5.90769231 C8.68122271,5.74065934 8.39825328,5.66153846 8.0419214,5.66153846 C7.58078603,5.66153846 7.2558952,5.77582418 7.05676856,6.02197802 C6.87860262,6.22417582 6.79475983,6.51428571 6.79475983,6.88351648 L5.6,6.88351648 C5.6,6.23296703 5.82008734,5.72307692 6.28122271,5.35384615 C6.73187773,4.98461538 7.33973799,4.8 8.11528384,4.8 Z M7.92663755,9.87252747 C8.15720524,9.87252747 8.35633188,9.93406593 8.51353712,10.0571429 C8.66026201,10.1802198 8.7441048,10.3384615 8.7441048,10.5318681 C8.7441048,10.7252747 8.66026201,10.8923077 8.50305677,11.0153846 C8.34585153,11.1384615 8.15720524,11.2 7.92663755,11.2 C7.69606987,11.2 7.50742358,11.1296703 7.35021834,11.0065934 C7.1930131,10.8835165 7.11965066,10.7252747 7.11965066,10.5318681 C7.11965066,10.3384615 7.1930131,10.1802198 7.35021834,10.0571429 C7.50742358,9.93406593 7.69606987,9.87252747 7.92663755,9.87252747 Z" id="？" fill="#2BCA97" fill-rule="evenodd"></path>
                </g>
            </g>
        </g>
    </g>
</svg>