<svg id="图层_1" data-name="图层 1" xmlns="http://www.w3.org/2000/svg" viewBox="0 0 24 24"><path d="M20.71,19.29,17,15.56a13.54,13.54,0,0,0,3.1-4.64c.82-2.18.66-4.09-.45-5.4s-3-1.77-5.26-1.32A14.16,14.16,0,0,0,8.52,7.1L4.71,3.29A1,1,0,0,0,3.29,4.71L7,8.44a13.54,13.54,0,0,0-3.1,4.64c-.82,2.18-.66,4.09.45,5.4A4.6,4.6,0,0,0,8,20a8.6,8.6,0,0,0,1.63-.17,14.16,14.16,0,0,0,5.84-2.9l3.81,3.81a1,1,0,0,0,1.42,0A1,1,0,0,0,20.71,19.29ZM9.25,17.84c-1.51.3-2.73.06-3.34-.66s-.65-1.95-.11-3.4A12.28,12.28,0,0,1,9.41,9a12.32,12.32,0,0,1,5.34-2.79A6.76,6.76,0,0,1,16,6a2.67,2.67,0,0,1,2.12.79c.61.71.65,1.95.11,3.4a11.49,11.49,0,0,1-2.64,3.92l-2.85-2.85a1,1,0,0,0-1.42,1.42l2.77,2.76A12,12,0,0,1,9.25,17.84Z"/></svg>