<svg xmlns="http://www.w3.org/2000/svg" viewBox="0 0 64 64"><defs><style>.cls-1{fill:#666;}</style></defs><g id="单开门"><path class="cls-1" d="M5.5,39.491a.5.5,0,0,0,.5-.5v-1.5a.5.5,0,0,0-1,0v1.5A.5.5,0,0,0,5.5,39.491Z"/><path class="cls-1" d="M11.438,6h1.5a.5.5,0,1,0,0-1h-1.5a.5.5,0,0,0,0,1Z"/><path class="cls-1" d="M5.5,12.491a.5.5,0,0,0,.5-.5v-1.5a.5.5,0,0,0-1,0v1.5A.5.5,0,0,0,5.5,12.491Z"/><path class="cls-1" d="M17.438,6h1.5a.5.5,0,0,0,0-1h-1.5a.5.5,0,0,0,0,1Z"/><path class="cls-1" d="M14.438,6h1.5a.5.5,0,0,0,0-1h-1.5a.5.5,0,0,0,0,1Z"/><path class="cls-1" d="M5.5,15.491a.5.5,0,0,0,.5-.5v-1.5A.5.5,0,0,0,5.5,13a.5.5,0,0,0-.5.5v1.491A.5.5,0,0,0,5.5,15.491Z"/><path class="cls-1" d="M5.5,30.491a.5.5,0,0,0,.5-.5v-1.5a.5.5,0,0,0-1,0v1.5A.5.5,0,0,0,5.5,30.491Z"/><path class="cls-1" d="M5.5,33.491a.5.5,0,0,0,.5-.5v-1.5a.5.5,0,0,0-1,0v1.5A.5.5,0,0,0,5.5,33.491Z"/><path class="cls-1" d="M5.5,27.491a.5.5,0,0,0,.5-.5v-1.5a.5.5,0,0,0-1,0v1.5A.5.5,0,0,0,5.5,27.491Z"/><path class="cls-1" d="M5.5,18.491a.5.5,0,0,0,.5-.5v-1.5a.5.5,0,0,0-1,0v1.5A.5.5,0,0,0,5.5,18.491Z"/><path class="cls-1" d="M5.5,36.491a.5.5,0,0,0,.5-.5v-1.5a.5.5,0,0,0-1,0v1.5A.5.5,0,0,0,5.5,36.491Z"/><path class="cls-1" d="M5.5,24.491a.5.5,0,0,0,.5-.5v-1.5a.5.5,0,0,0-1,0v1.5A.5.5,0,0,0,5.5,24.491Z"/><path class="cls-1" d="M5.5,21.491a.5.5,0,0,0,.5-.5v-1.5a.5.5,0,0,0-1,0v1.5A.5.5,0,0,0,5.5,21.491Z"/><path class="cls-1" d="M5.5,9.491a.5.5,0,0,0,.5-.5v-1.5a.5.5,0,0,0-1,0v1.5A.5.5,0,0,0,5.5,9.491Z"/><path class="cls-1" d="M47.438,6h1.5a.5.5,0,0,0,0-1h-1.5a.5.5,0,0,0,0,1Z"/><path class="cls-1" d="M50.438,6h1.5a.5.5,0,0,0,0-1h-1.5a.5.5,0,0,0,0,1Z"/><path class="cls-1" d="M44.438,6h1.5a.5.5,0,0,0,0-1h-1.5a.5.5,0,0,0,0,1Z"/><path class="cls-1" d="M41.438,6h1.5a.5.5,0,0,0,0-1h-1.5a.5.5,0,0,0,0,1Z"/><path class="cls-1" d="M56.438,6h1.5a.5.5,0,0,0,0-1h-1.5a.5.5,0,0,0,0,1Z"/><path class="cls-1" d="M53.438,6h1.5a.5.5,0,0,0,0-1h-1.5a.5.5,0,0,0,0,1Z"/><path class="cls-1" d="M26.438,6h1.5a.5.5,0,1,0,0-1h-1.5a.5.5,0,0,0,0,1Z"/><path class="cls-1" d="M20.438,6h1.5a.5.5,0,0,0,0-1h-1.5a.5.5,0,0,0,0,1Z"/><path class="cls-1" d="M38.438,6h1.5a.5.5,0,0,0,0-1h-1.5a.5.5,0,0,0,0,1Z"/><path class="cls-1" d="M29.438,6h1.5a.5.5,0,1,0,0-1h-1.5a.5.5,0,0,0,0,1Z"/><path class="cls-1" d="M23.438,6h1.5a.5.5,0,0,0,0-1h-1.5a.5.5,0,0,0,0,1Z"/><path class="cls-1" d="M35.438,6h1.5a.5.5,0,0,0,0-1h-1.5a.5.5,0,0,0,0,1Z"/><path class="cls-1" d="M32.438,6h1.5a.5.5,0,0,0,0-1h-1.5a.5.5,0,0,0,0,1Z"/><path class="cls-1" d="M21.419,59h-1.5a.5.5,0,1,0,0,1h1.5a.5.5,0,0,0,0-1Z"/><path class="cls-1" d="M36.419,59h-1.5a.5.5,0,0,0,0,1h1.5a.5.5,0,0,0,0-1Z"/><path class="cls-1" d="M33.419,59h-1.5a.5.5,0,1,0,0,1h1.5a.5.5,0,0,0,0-1Z"/><path class="cls-1" d="M39.419,59h-1.5a.5.5,0,0,0,0,1h1.5a.5.5,0,0,0,0-1Z"/><path class="cls-1" d="M30.419,59h-1.5a.5.5,0,1,0,0,1h1.5a.5.5,0,0,0,0-1Z"/><path class="cls-1" d="M42.419,59h-1.5a.5.5,0,0,0,0,1h1.5a.5.5,0,0,0,0-1Z"/><path class="cls-1" d="M27.419,59h-1.5a.5.5,0,1,0,0,1h1.5a.5.5,0,0,0,0-1Z"/><path class="cls-1" d="M54.419,59h-1.5a.5.5,0,0,0,0,1h1.5a.5.5,0,0,0,0-1Z"/><path class="cls-1" d="M57.419,59h-1.5a.5.5,0,0,0,0,1h1.5a.5.5,0,0,0,0-1Z"/><path class="cls-1" d="M24.419,59h-1.5a.5.5,0,1,0,0,1h1.5a.5.5,0,0,0,0-1Z"/><path class="cls-1" d="M45.419,59h-1.5a.5.5,0,0,0,0,1h1.5a.5.5,0,0,0,0-1Z"/><path class="cls-1" d="M48.419,59h-1.5a.5.5,0,0,0,0,1h1.5a.5.5,0,0,0,0-1Z"/><path class="cls-1" d="M51.419,59h-1.5a.5.5,0,0,0,0,1h1.5a.5.5,0,0,0,0-1Z"/><path class="cls-1" d="M9.419,59h-1.5a.5.5,0,1,0,0,1h1.5a.5.5,0,0,0,0-1Z"/><path class="cls-1" d="M6.46,59A.5.5,0,0,1,6,58.5v-.009A.5.5,0,0,0,5.5,58a.5.5,0,0,0-.5.5A1.506,1.506,0,0,0,6.38,60l.041,0a.5.5,0,0,0,.039-1Z"/><path class="cls-1" d="M5.5,54.491a.5.5,0,0,0,.5-.5v-1.5a.5.5,0,0,0-1,0v1.5A.5.5,0,0,0,5.5,54.491Z"/><path class="cls-1" d="M5.5,57.491a.5.5,0,0,0,.5-.5v-1.5a.5.5,0,0,0-1,0v1.5A.5.5,0,0,0,5.5,57.491Z"/><path class="cls-1" d="M5.5,51.491a.5.5,0,0,0,.5-.5v-1.5a.5.5,0,0,0-1,0v1.5A.5.5,0,0,0,5.5,51.491Z"/><path class="cls-1" d="M5.5,45.491a.5.5,0,0,0,.5-.5v-1.5a.5.5,0,0,0-1,0v1.5A.5.5,0,0,0,5.5,45.491Z"/><path class="cls-1" d="M5.5,48.491a.5.5,0,0,0,.5-.5v-1.5a.5.5,0,0,0-1,0v1.5A.5.5,0,0,0,5.5,48.491Z"/><path class="cls-1" d="M12.419,59h-1.5a.5.5,0,1,0,0,1h1.5a.5.5,0,0,0,0-1Z"/><path class="cls-1" d="M6.938,5H6.5a1.5,1.5,0,0,0-1.311.77.5.5,0,0,0,.2.68.5.5,0,0,0,.243.063.5.5,0,0,0,.437-.257A.5.5,0,0,1,6.5,6h.438a.5.5,0,0,0,0-1Z"/><path class="cls-1" d="M15.419,59h-1.5a.5.5,0,1,0,0,1h1.5a.5.5,0,0,0,0-1Z"/><path class="cls-1" d="M18.419,59h-1.5a.5.5,0,1,0,0,1h1.5a.5.5,0,0,0,0-1Z"/><path class="cls-1" d="M10.438,5.5a.5.5,0,0,0-.5-.5h-1.5a.5.5,0,0,0,0,1h1.5A.5.5,0,0,0,10.438,5.5Z"/><path class="cls-1" d="M5.5,42.491a.5.5,0,0,0,.5-.5v-1.5a.5.5,0,0,0-1,0v1.5A.5.5,0,0,0,5.5,42.491Z"/><path class="cls-1" d="M57.5,53a1.5,1.5,0,0,0-1.408,1H11V11H56.092a1.5,1.5,0,1,0,0-1H10.5a.5.5,0,0,0-.5.5v44a.5.5,0,0,0,.5.5H56.092A1.5,1.5,0,1,0,57.5,53Z"/></g></svg>