<?xml version="1.0" encoding="UTF-8"?>
<svg width="15px" height="15px" viewBox="0 0 15 15" version="1.1" xmlns="http://www.w3.org/2000/svg" xmlns:xlink="http://www.w3.org/1999/xlink">
    <!-- Generator: Sketch 52.2 (67145) - http://www.bohemiancoding.com/sketch -->
    <title></title>
    <desc>Created with Sketch.</desc>
    <g id="Page-1" stroke="none" stroke-width="1" fill="none" fill-rule="evenodd">
        <g id="工具栏/我的方案-copy-4" transform="translate(-513.000000, -185.000000)">
            <g id="分组-3" transform="translate(513.000000, 185.000000)">
                <rect id="矩形" fill="#F5F8F9" x="1" y="1" width="8" height="13"></rect>
                <rect id="矩形" fill="#F5F8F9" x="7" y="6" width="7" height="8"></rect>
                <path d="M13.3333333,13.3333333 L10,13.3333333 L10,11.6666667 C10,11.2058333 9.6275,10.8333333 9.16666667,10.8333333 C8.70583333,10.8333333 8.33333333,11.2058333 8.33333333,11.6666667 L8.33333333,13.3333333 L1.66666667,13.3333333 L1.66666667,9.16666667 L4.16666667,9.16666667 C4.62666667,9.16666667 5,8.79416667 5,8.33333333 C5,7.8725 4.62666667,7.5 4.16666667,7.5 L1.66666667,7.5 L1.66666667,1.66666667 L8.33333333,1.66666667 L8.33333333,7.5 C7.87333333,7.5 7.5,7.8725 7.5,8.33333333 C7.5,8.79416667 7.87333333,9.16666667 8.33333333,9.16666667 L10,9.16666667 C10.4608333,9.16666667 10.8333333,8.79416667 10.8333333,8.33333333 C10.8333333,7.8725 10.4608333,7.5 10,7.5 L10,6.66666667 L13.3333333,6.66666667 L13.3333333,13.3333333 Z M13.3333333,5 L10,5 L10,1.66666667 C10,0.746666667 9.25333333,0 8.33333333,0 L1.66666667,0 C0.746666667,0 0,0.746666667 0,1.66666667 L0,13.3333333 C0,14.2533333 0.746666667,15 1.66666667,15 L10,15 L13.3333333,15 C14.2533333,15 15,14.2533333 15,13.3333333 L15,6.66666667 C15,5.74666667 14.2533333,5 13.3333333,5 Z" id="Fill-1" fill="#4387FF"></path>
            </g>
        </g>
    </g>
</svg>