<svg xmlns="http://www.w3.org/2000/svg" viewBox="0 0 64 64"><defs><style>.cls-1{fill:#666;}</style></defs><g id="单开门"><path class="cls-1" d="M38.429,54h1.5a.5.5,0,0,0,0-1h-1.5a.5.5,0,0,0,0,1Z"/><path class="cls-1" d="M35.429,54h1.5a.5.5,0,0,0,0-1h-1.5a.5.5,0,0,0,0,1Z"/><path class="cls-1" d="M39.071,11.5a.5.5,0,0,0-.5-.5h-1.5a.5.5,0,0,0,0,1h1.5A.5.5,0,0,0,39.071,11.5Z"/><path class="cls-1" d="M42.071,11.5a.5.5,0,0,0-.5-.5h-1.5a.5.5,0,0,0,0,1h1.5A.5.5,0,0,0,42.071,11.5Z"/><path class="cls-1" d="M41.429,54h1.5a.5.5,0,0,0,0-1h-1.5a.5.5,0,0,0,0,1Z"/><path class="cls-1" d="M29.429,54h1.5a.5.5,0,1,0,0-1h-1.5a.5.5,0,0,0,0,1Z"/><path class="cls-1" d="M30.071,11.5a.5.5,0,0,0-.5-.5h-1.5a.5.5,0,1,0,0,1h1.5A.5.5,0,0,0,30.071,11.5Z"/><path class="cls-1" d="M26.429,54h1.5a.5.5,0,1,0,0-1h-1.5a.5.5,0,0,0,0,1Z"/><path class="cls-1" d="M27.071,11.5a.5.5,0,0,0-.5-.5h-1.5a.5.5,0,1,0,0,1h1.5A.5.5,0,0,0,27.071,11.5Z"/><path class="cls-1" d="M45.071,11.5a.5.5,0,0,0-.5-.5h-1.5a.5.5,0,0,0,0,1h1.5A.5.5,0,0,0,45.071,11.5Z"/><path class="cls-1" d="M33.07,11.5a.5.5,0,0,0-.5-.5h-1.5a.5.5,0,1,0,0,1h1.5A.5.5,0,0,0,33.07,11.5Z"/><path class="cls-1" d="M32.429,54h1.5a.5.5,0,0,0,0-1h-1.5a.5.5,0,0,0,0,1Z"/><path class="cls-1" d="M36.071,11.5a.5.5,0,0,0-.5-.5h-1.5a.5.5,0,0,0,0,1h1.5A.5.5,0,0,0,36.071,11.5Z"/><path class="cls-1" d="M44.429,54h1.5a.5.5,0,0,0,0-1h-1.5a.5.5,0,0,0,0,1Z"/><path class="cls-1" d="M57.071,11.5a.5.5,0,0,0-.5-.5h-1.5a.5.5,0,0,0,0,1h1.5A.5.5,0,0,0,57.071,11.5Z"/><path class="cls-1" d="M56.429,54h1.5a.5.5,0,0,0,0-1h-1.5a.5.5,0,0,0,0,1Z"/><path class="cls-1" d="M55.143,6h1.5a.5.5,0,0,0,0-1h-1.5a.5.5,0,0,0,0,1Z"/><path class="cls-1" d="M49.143,6h1.5a.5.5,0,0,0,0-1h-1.5a.5.5,0,0,0,0,1Z"/><path class="cls-1" d="M46.143,6h1.5a.5.5,0,0,0,0-1h-1.5a.5.5,0,0,0,0,1Z"/><path class="cls-1" d="M52.143,6h1.5a.5.5,0,0,0,0-1h-1.5a.5.5,0,0,0,0,1Z"/><path class="cls-1" d="M47.429,54h1.5a.5.5,0,0,0,0-1h-1.5a.5.5,0,0,0,0,1Z"/><path class="cls-1" d="M51.071,11.5a.5.5,0,0,0-.5-.5h-1.5a.5.5,0,0,0,0,1h1.5A.5.5,0,0,0,51.071,11.5Z"/><path class="cls-1" d="M53.429,54h1.5a.5.5,0,0,0,0-1h-1.5a.5.5,0,0,0,0,1Z"/><path class="cls-1" d="M48.071,11.5a.5.5,0,0,0-.5-.5h-1.5a.5.5,0,0,0,0,1h1.5A.5.5,0,0,0,48.071,11.5Z"/><path class="cls-1" d="M54.071,11.5a.5.5,0,0,0-.5-.5h-1.5a.5.5,0,0,0,0,1h1.5A.5.5,0,0,0,54.071,11.5Z"/><path class="cls-1" d="M50.429,54h1.5a.5.5,0,0,0,0-1h-1.5a.5.5,0,0,0,0,1Z"/><path class="cls-1" d="M15.071,11.5a.5.5,0,0,0-.5-.5h-1.5a.5.5,0,1,0,0,1h1.5A.5.5,0,0,0,15.071,11.5Z"/><path class="cls-1" d="M11,27.929a.5.5,0,1,0,1,0v-1.5a.5.5,0,0,0-1,0Z"/><path class="cls-1" d="M11,24.929a.5.5,0,1,0,1,0v-1.5a.5.5,0,0,0-1,0Z"/><path class="cls-1" d="M11,39.929a.5.5,0,0,0,1,0v-1.5a.5.5,0,0,0-1,0Z"/><path class="cls-1" d="M11,36.929a.5.5,0,0,0,1,0v-1.5a.5.5,0,0,0-1,0Z"/><path class="cls-1" d="M11,21.929a.5.5,0,1,0,1,0v-1.5a.5.5,0,0,0-1,0Z"/><path class="cls-1" d="M11,33.929a.5.5,0,0,0,1,0v-1.5a.5.5,0,1,0-1,0Z"/><path class="cls-1" d="M11,30.929a.5.5,0,1,0,1,0v-1.5a.5.5,0,0,0-1,0Z"/><path class="cls-1" d="M58.143,6H58.5a.5.5,0,0,1,.455.292.5.5,0,1,0,.91-.415A1.5,1.5,0,0,0,58.5,5h-.357a.5.5,0,0,0,0,1Z"/><path class="cls-1" d="M11,18.929a.5.5,0,0,0,1,0v-1.5a.5.5,0,0,0-1,0Z"/><path class="cls-1" d="M58.071,12H58.5A1.506,1.506,0,0,0,60,10.607a.5.5,0,0,0-1-.071.5.5,0,0,1-.5.464h-.429a.5.5,0,0,0,0,1Z"/><path class="cls-1" d="M11,15.929a.5.5,0,0,0,1,0v-1.5a.5.5,0,0,0-1,0Z"/><path class="cls-1" d="M23.429,54h1.5a.5.5,0,1,0,0-1h-1.5a.5.5,0,0,0,0,1Z"/><path class="cls-1" d="M11.5,13.429a.5.5,0,0,0,.5-.5V11.7a.562.562,0,0,0,.035-.2A.531.531,0,0,0,11.5,11a.5.5,0,0,0-.5.5v1.429A.5.5,0,0,0,11.5,13.429Z"/><path class="cls-1" d="M17.429,54h1.5a.5.5,0,1,0,0-1h-1.5a.5.5,0,0,0,0,1Z"/><path class="cls-1" d="M14.429,54h1.5a.5.5,0,0,0,0-1h-1.5a.5.5,0,0,0,0,1Z"/><path class="cls-1" d="M11,42.929a.5.5,0,0,0,1,0v-1.5a.5.5,0,0,0-1,0Z"/><path class="cls-1" d="M18.071,11.5a.5.5,0,0,0-.5-.5h-1.5a.5.5,0,0,0,0,1h1.5A.5.5,0,0,0,18.071,11.5Z"/><path class="cls-1" d="M24.071,11.5a.5.5,0,0,0-.5-.5h-1.5a.5.5,0,1,0,0,1h1.5A.5.5,0,0,0,24.071,11.5Z"/><path class="cls-1" d="M20.429,54h1.5a.5.5,0,1,0,0-1h-1.5a.5.5,0,0,0,0,1Z"/><path class="cls-1" d="M21.071,11.5a.5.5,0,0,0-.5-.5h-1.5a.5.5,0,0,0,0,1h1.5A.5.5,0,0,0,21.071,11.5Z"/><path class="cls-1" d="M11,45.929a.5.5,0,0,0,1,0v-1.5a.5.5,0,0,0-1,0Z"/><path class="cls-1" d="M11,48.929a.5.5,0,0,0,1,0v-1.5a.5.5,0,0,0-1,0Z"/><path class="cls-1" d="M11,51.929a.5.5,0,0,0,1,0v-1.5a.5.5,0,0,0-1,0Z"/><path class="cls-1" d="M11.5,54h1.429a.5.5,0,1,0,0-1H11.7a.552.552,0,0,0-.7.5A.5.5,0,0,0,11.5,54Z"/><path class="cls-1" d="M43.143,6h1.5a.5.5,0,0,0,0-1h-1.5a.5.5,0,0,0,0,1Z"/><path class="cls-1" d="M19.714,59h-1.5a.5.5,0,0,0,0,1h1.5a.5.5,0,0,0,0-1Z"/><path class="cls-1" d="M10.714,59h-1.5a.5.5,0,1,0,0,1h1.5a.5.5,0,0,0,0-1Z"/><path class="cls-1" d="M16.714,59h-1.5a.5.5,0,1,0,0,1h1.5a.5.5,0,0,0,0-1Z"/><path class="cls-1" d="M31.714,59h-1.5a.5.5,0,0,0,0,1h1.5a.5.5,0,0,0,0-1Z"/><path class="cls-1" d="M22.714,59h-1.5a.5.5,0,0,0,0,1h1.5a.5.5,0,0,0,0-1Z"/><path class="cls-1" d="M28.714,59h-1.5a.5.5,0,0,0,0,1h1.5a.5.5,0,0,0,0-1Z"/><path class="cls-1" d="M25.714,59h-1.5a.5.5,0,0,0,0,1h1.5a.5.5,0,0,0,0-1Z"/><path class="cls-1" d="M13.714,59h-1.5a.5.5,0,1,0,0,1h1.5a.5.5,0,0,0,0-1Z"/><path class="cls-1" d="M5.5,52.786a.5.5,0,0,0,.5-.5v-1.5a.5.5,0,0,0-1,0v1.5A.5.5,0,0,0,5.5,52.786Z"/><path class="cls-1" d="M5.5,49.786a.5.5,0,0,0,.5-.5v-1.5a.5.5,0,0,0-1,0v1.5A.5.5,0,0,0,5.5,49.786Z"/><path class="cls-1" d="M6,58.286v-1.5a.5.5,0,0,0-1,0v1.5a.5.5,0,0,0,1,0Z"/><path class="cls-1" d="M5.5,46.786a.5.5,0,0,0,.5-.5v-1.5a.5.5,0,0,0-1,0v1.5A.5.5,0,0,0,5.5,46.786Z"/><path class="cls-1" d="M5.5,55.786a.5.5,0,0,0,.5-.5v-1.5a.5.5,0,0,0-1,0v1.5A.5.5,0,0,0,5.5,55.786Z"/><path class="cls-1" d="M7.714,59H6.5a.5.5,0,0,1-.141-.02.5.5,0,0,0-.283.959A1.5,1.5,0,0,0,6.5,60H7.714a.5.5,0,0,0,0-1Z"/><path class="cls-1" d="M59.5,56.357a.5.5,0,0,0-.5.5v1.5a.5.5,0,0,0,1,0v-1.5A.5.5,0,0,0,59.5,56.357Z"/><path class="cls-1" d="M58.605,58.989a.512.512,0,0,1-.1.011H57.214a.5.5,0,0,0,0,1H58.5a1.533,1.533,0,0,0,.318-.034.5.5,0,1,0-.213-.977Z"/><path class="cls-1" d="M34.714,59h-1.5a.5.5,0,0,0,0,1h1.5a.5.5,0,0,0,0-1Z"/><path class="cls-1" d="M52.714,59h-1.5a.5.5,0,0,0,0,1h1.5a.5.5,0,0,0,0-1Z"/><path class="cls-1" d="M59.5,7.071a.5.5,0,0,0-.5.5v1.5a.5.5,0,0,0,1,0v-1.5A.5.5,0,0,0,59.5,7.071Z"/><path class="cls-1" d="M59,53.5a.5.5,0,0,0-.1.7.5.5,0,0,1,.1.3v.857a.5.5,0,0,0,1,0V54.5a1.49,1.49,0,0,0-.3-.9A.5.5,0,0,0,59,53.5Z"/><path class="cls-1" d="M55.714,59h-1.5a.5.5,0,0,0,0,1h1.5a.5.5,0,0,0,0-1Z"/><path class="cls-1" d="M37.714,59h-1.5a.5.5,0,0,0,0,1h1.5a.5.5,0,0,0,0-1Z"/><path class="cls-1" d="M40.714,59h-1.5a.5.5,0,0,0,0,1h1.5a.5.5,0,0,0,0-1Z"/><path class="cls-1" d="M46.714,59h-1.5a.5.5,0,0,0,0,1h1.5a.5.5,0,0,0,0-1Z"/><path class="cls-1" d="M49.714,59h-1.5a.5.5,0,0,0,0,1h1.5a.5.5,0,0,0,0-1Z"/><path class="cls-1" d="M43.714,59h-1.5a.5.5,0,0,0,0,1h1.5a.5.5,0,0,0,0-1Z"/><path class="cls-1" d="M13.143,6h1.5a.5.5,0,0,0,0-1h-1.5a.5.5,0,0,0,0,1Z"/><path class="cls-1" d="M16.143,6h1.5a.5.5,0,0,0,0-1h-1.5a.5.5,0,0,0,0,1Z"/><path class="cls-1" d="M22.143,6h1.5a.5.5,0,0,0,0-1h-1.5a.5.5,0,0,0,0,1Z"/><path class="cls-1" d="M40.143,6h1.5a.5.5,0,0,0,0-1h-1.5a.5.5,0,0,0,0,1Z"/><path class="cls-1" d="M5.5,7.786a.5.5,0,0,0,.5-.5V6.5a.5.5,0,0,1,.122-.327.5.5,0,0,0-.755-.656A1.5,1.5,0,0,0,5,6.5v.786A.5.5,0,0,0,5.5,7.786Z"/><path class="cls-1" d="M7.143,6h1.5a.5.5,0,0,0,0-1h-1.5a.5.5,0,0,0,0,1Z"/><path class="cls-1" d="M10.143,6h1.5a.5.5,0,0,0,0-1h-1.5a.5.5,0,0,0,0,1Z"/><path class="cls-1" d="M19.143,6h1.5a.5.5,0,0,0,0-1h-1.5a.5.5,0,0,0,0,1Z"/><path class="cls-1" d="M25.143,6h1.5a.5.5,0,0,0,0-1h-1.5a.5.5,0,0,0,0,1Z"/><path class="cls-1" d="M5.5,43.786a.5.5,0,0,0,.5-.5v-1.5a.5.5,0,0,0-1,0v1.5A.5.5,0,0,0,5.5,43.786Z"/><path class="cls-1" d="M34.143,6h1.5a.5.5,0,0,0,0-1h-1.5a.5.5,0,0,0,0,1Z"/><path class="cls-1" d="M31.143,6h1.5a.5.5,0,1,0,0-1h-1.5a.5.5,0,0,0,0,1Z"/><path class="cls-1" d="M28.143,6h1.5a.5.5,0,0,0,0-1h-1.5a.5.5,0,0,0,0,1Z"/><path class="cls-1" d="M37.143,6h1.5a.5.5,0,0,0,0-1h-1.5a.5.5,0,0,0,0,1Z"/><path class="cls-1" d="M5.5,31.786a.5.5,0,0,0,.5-.5v-1.5a.5.5,0,0,0-1,0v1.5A.5.5,0,0,0,5.5,31.786Z"/><path class="cls-1" d="M5.5,34.786a.5.5,0,0,0,.5-.5v-1.5a.5.5,0,0,0-1,0v1.5A.5.5,0,0,0,5.5,34.786Z"/><path class="cls-1" d="M5.5,37.786a.5.5,0,0,0,.5-.5v-1.5a.5.5,0,0,0-1,0v1.5A.5.5,0,0,0,5.5,37.786Z"/><path class="cls-1" d="M5.5,40.786a.5.5,0,0,0,.5-.5v-1.5a.5.5,0,0,0-1,0v1.5A.5.5,0,0,0,5.5,40.786Z"/><path class="cls-1" d="M5.5,28.786a.5.5,0,0,0,.5-.5v-1.5a.5.5,0,0,0-1,0v1.5A.5.5,0,0,0,5.5,28.786Z"/><path class="cls-1" d="M5.5,10.786a.5.5,0,0,0,.5-.5v-1.5a.5.5,0,0,0-1,0v1.5A.5.5,0,0,0,5.5,10.786Z"/><path class="cls-1" d="M5.5,19.786a.5.5,0,0,0,.5-.5v-1.5a.5.5,0,0,0-1,0v1.5A.5.5,0,0,0,5.5,19.786Z"/><path class="cls-1" d="M5.5,13.786a.5.5,0,0,0,.5-.5v-1.5a.5.5,0,0,0-1,0v1.5A.5.5,0,0,0,5.5,13.786Z"/><path class="cls-1" d="M5.5,16.786a.5.5,0,0,0,.5-.5v-1.5a.5.5,0,0,0-1,0v1.5A.5.5,0,0,0,5.5,16.786Z"/><path class="cls-1" d="M5.5,25.786a.5.5,0,0,0,.5-.5v-1.5a.5.5,0,0,0-1,0v1.5A.5.5,0,0,0,5.5,25.786Z"/><path class="cls-1" d="M5.5,22.786a.5.5,0,0,0,.5-.5v-1.5a.5.5,0,0,0-1,0v1.5A.5.5,0,0,0,5.5,22.786Z"/><path class="cls-1" d="M55.5,55a1.5,1.5,0,0,0-1.408,1H9V9H54.092a1.5,1.5,0,1,0,0-1H8.5a.5.5,0,0,0-.5.5v48a.5.5,0,0,0,.5.5H54.092A1.5,1.5,0,1,0,55.5,55Z"/></g></svg>