<svg id="图层_1" data-name="图层 1" xmlns="http://www.w3.org/2000/svg" xmlns:xlink="http://www.w3.org/1999/xlink" viewBox="0 0 24 24"><defs><style>.cls-1{fill:none;}.cls-2{clip-path:url(#clip-path);}.cls-3{fill:#1d9390;}</style><clipPath id="clip-path"><rect class="cls-1" x="-142" y="-239" width="98" height="30"/></clipPath></defs><g id="Page-1"><g id="首次传图片"><g id="分组"><path id="Fill-1" class="cls-3" d="M15.53,7H9A1.05,1.05,0,0,0,7.88,8,1.05,1.05,0,0,0,9,9h6.56a1.06,1.06,0,0,0,1.1-1,1.06,1.06,0,0,0-1.1-1"/><path id="Fill-3" class="cls-3" d="M15.53,11H9a1,1,0,1,0,0,2h6.56a1,1,0,1,0,0-2"/><g id="Fill-5"><path class="cls-3" d="M18.81,14l-.13,0H14.44a2.1,2.1,0,0,0-2.19,2v4H5.69V4H18.81Zm-4.37,2h2.83l-2.83,2.59ZM21,15.45V4a2.1,2.1,0,0,0-2.19-2H5.69A2.1,2.1,0,0,0,3.5,4V20a2.1,2.1,0,0,0,2.19,2h8.1l1.08-1h0l.23-.21Z"/></g></g></g></g></svg>