<svg id="图层_1" data-name="图层 1" xmlns="http://www.w3.org/2000/svg" viewBox="0 0 24 24"><defs><style>.cls-1{fill:#434c5d;}</style></defs><title></title><path class="cls-1" d="M20.06,4.14a15,15,0,0,0-8.18-2.61A15,15,0,0,0,3.71,4.14a.71.71,0,0,0-.32.65l.82,13.58a.76.76,0,0,0,.31.56L8.4,21.6a.75.75,0,0,0,.41.12H15a.73.73,0,0,0,.41-.12l3.88-2.67a.73.73,0,0,0,.31-.56l.83-13.58A.76.76,0,0,0,20.06,4.14Zm-4,7-3,.73-.26.61.67.5H16a2.58,2.58,0,0,0,.35-.3l.3,1.62-1.24,1.4a.72.72,0,0,0-.18.49v1.41l-.7.42-.76-1a.72.72,0,0,0-.57-.28H10.77a.72.72,0,0,0-.57.28l-.76,1-.7-.42V16.21a.72.72,0,0,0-.18-.49l-1.24-1.4.27-1.46.18.14H10.3l.68-.5-.27-.61L7.92,11.2l.3-1.61a.7.7,0,0,0,0-.29L7,4a14.7,14.7,0,0,1,1.6-.56L9.76,7.4a.72.72,0,0,0,.69.52h2.86A.72.72,0,0,0,14,7.4l1.13-3.94A14.34,14.34,0,0,1,17,4.11L15.79,9.3a.7.7,0,0,0,0,.29ZM11.85,3h.07a10.36,10.36,0,0,1,1.8.16l-1,3.33H11l-.95-3.32A9.85,9.85,0,0,1,11.85,3Zm6.28,15-3.4,2.34H9l-3.4-2.34L4.86,5.13c.28-.17.55-.33.83-.47L6.77,9.47,5.84,14.4A.72.72,0,0,0,6,15L7.3,16.47V18a.7.7,0,0,0,.35.62l1.61,1a.72.72,0,0,0,.94-.18l.94-1.2h1.74l.94,1.2a.73.73,0,0,0,.94.18l1.61-1a.7.7,0,0,0,.35-.62V16.47L18,15a.72.72,0,0,0,.17-.61l-.93-4.93,1.06-4.7.62.36Z"/></svg>