<svg id="图层_1" data-name="图层 1" xmlns="http://www.w3.org/2000/svg" viewBox="0 0 24 24"><defs><style>.cls-1{fill-rule:evenodd;}</style></defs><path class="cls-1" d="M21.71,10.84h0a.76.76,0,0,1-1,.49A.74.74,0,0,1,20.3,11a.75.75,0,0,1-.05-.57h0a3.68,3.68,0,0,0-.78-3.64A3.78,3.78,0,0,0,15.9,5.6.77.77,0,0,1,15,5h0a.76.76,0,0,1,.58-.9,5.28,5.28,0,0,1,5,1.61A5.18,5.18,0,0,1,21.71,10.84ZM16.42,8h0a.65.65,0,0,1-.78-.49h0a.66.66,0,0,1,.51-.77,2.58,2.58,0,0,1,2.44.78,2.55,2.55,0,0,1,.54,2.5.67.67,0,0,1-.83.42h0a.66.66,0,0,1-.42-.82h0a1.23,1.23,0,0,0-.26-1.22A1.28,1.28,0,0,0,16.42,8ZM17,11.7a3,3,0,0,1,2.41,2.7c0,2.48-3.61,5.6-9,5.6C6.26,20,2,18,2,14.75,2,13,3.13,11.07,5,9.2c2.51-2.48,5.43-3.62,6.54-2.52A2.25,2.25,0,0,1,11.77,9c-.17.5.47.23.47.23,2-.84,3.8-.89,4.45,0a2.06,2.06,0,0,1,0,2c-.15.36,0,.42.33.5Zm-6.6,7.13c3.3-.33,5.8-2.33,5.58-4.47s-3.06-3.63-6.36-3.3-5.8,2.32-5.58,4.47S7.11,19.15,10.41,18.83Zm.33-6.12a2.44,2.44,0,0,1,1.79,3.41A3.57,3.57,0,0,1,8.27,17.9a2.42,2.42,0,0,1-1.56-3.45A3.6,3.6,0,0,1,10.74,12.71Zm-1.2,3.57A.87.87,0,0,0,9.17,15a1.27,1.27,0,0,0-1.49.49A.87.87,0,0,0,8,16.77a1.27,1.27,0,0,0,1.52-.49Z"/></svg>