<svg id="图层_1" data-name="图层 1" xmlns="http://www.w3.org/2000/svg" viewBox="0 0 24 24"><path d="M20.74,8.88,17.2,5.34h0L15.08,3.22a1,1,0,0,0-1.41,0,4.57,4.57,0,0,0-1.11,4L11.18,8.54A8.5,8.5,0,0,0,4.48,11a1,1,0,0,0-.3.71,1,1,0,0,0,.3.71l2.81,2.81-3.94,3.7a1,1,0,0,0,1.37,1.46l4-3.74h0l2.83,2.83a1,1,0,0,0,.7.29,1,1,0,0,0,.71-.29,8.5,8.5,0,0,0,2.47-6.71l1.37-1.37a4.55,4.55,0,0,0,3.94-1.12A1,1,0,0,0,20.74,8.88Zm-3.93.47a1,1,0,0,0-1,.24l-2.12,2.12a1,1,0,0,0-.28.9,6.42,6.42,0,0,1-1.19,4.7L8.72,13.83h0L6.65,11.76a6.42,6.42,0,0,1,4.7-1.19,1,1,0,0,0,.9-.28l2.13-2.12a1,1,0,0,0,.24-1,2.59,2.59,0,0,1,0-1.6L17.2,8.17h0l1.2,1.21A2.58,2.58,0,0,1,16.81,9.35Z"/></svg>