<?xml version="1.0" encoding="UTF-8"?>
<svg width="32px" height="32px" viewBox="0 0 32 32" version="1.1" xmlns="http://www.w3.org/2000/svg" xmlns:xlink="http://www.w3.org/1999/xlink">
    <!-- Generator: Sketch 52.2 (67145) - http://www.bohemiancoding.com/sketch -->
    <title></title>
    <desc>Created with Sketch.</desc>
    <g id="Page-1" stroke="none" stroke-width="1" fill="none" fill-rule="evenodd">
        <g id="悬浮提示框--一字飘窗-copy" transform="translate(-1136.000000, -700.000000)">
            <g id="Group-3" transform="translate(1136.000000, 673.000000)">
                <g id="normal" transform="translate(0.000000, 27.000000)">
                    <circle id="Oval" fill="#4386FF" cx="16" cy="16" r="16"></circle>
                    <path d="M23,21.4266524 L23,24 L19.3838707,22.5483871 L10.1217347,22.5483871 C9.50221771,22.5483871 9,22.0461694 9,21.4266524 L9,10.1217347 C9,9.50221771 9.50221771,9 10.1217347,9 L21.8782653,9 C22.4977823,9 23,9.50221771 23,10.1217347 L23,21.4266524 Z" id="Combined-Shape" fill="#FFFFFF"></path>
                    <path d="M12.5,14 L17.5,14 C17.7761424,14 18,14.2238576 18,14.5 L18,14.5 C18,14.7761424 17.7761424,15 17.5,15 L12.5,15 C12.2238576,15 12,14.7761424 12,14.5 L12,14.5 C12,14.2238576 12.2238576,14 12.5,14 Z" id="Rectangle-2" fill="#2789E9"></path>
                    <rect id="Rectangle-2-Copy" fill="#2789E9" x="12" y="18" width="8" height="1" rx="0.5"></rect>
                </g>
            </g>
        </g>
    </g>
</svg>