<svg id="图层_1" data-name="图层 1" xmlns="http://www.w3.org/2000/svg" viewBox="0 0 24 24"><defs><style>.cls-1{fill-rule:evenodd;}</style></defs><path class="cls-1" d="M6.3,10.2a1.11,1.11,0,0,1-.08-.47,1.7,1.7,0,0,1,.32-.84A1.28,1.28,0,0,1,6.82,8,5.5,5.5,0,0,1,9.64,3.59,7,7,0,0,1,15,3.49c2.14.88,2.62,2.53,3.08,4.63v0a2.53,2.53,0,0,1,.5,1.34c0,.24-.17.48-.17.7a.61.61,0,0,0,.07.1A6.83,6.83,0,0,1,20,14.08c0,.31-.17,1.4-.68,1.4s-.75-.85-.88-1.08h0l0,0a5.14,5.14,0,0,1-1.2,2c.52.49,1.35.45,1.51,1.29-.05.1,0,.21-.1.31-.52.77-1.91.86-2.75.86a10.38,10.38,0,0,1-3.07-.59,6.39,6.39,0,0,0-.78-.05,4.2,4.2,0,0,1-2.7.76c-.69,0-3.37,0-3.37-1.21a1,1,0,0,1,.47-1,5.73,5.73,0,0,1,.82-.22l.13,0s0,0,0,0v0c-.63-.15-1.52-1.7-1.65-2.34l0,0c-.06,0-.09.13-.11.18a1.67,1.67,0,0,1-1.2,1h0c-.07,0,0-.07-.1-.09A2.11,2.11,0,0,1,4,14.36,5,5,0,0,1,6.3,10.2"/></svg>