<svg id="图层_1" data-name="图层 1" xmlns="http://www.w3.org/2000/svg" viewBox="0 0 24 24"><defs><style>.cls-1{fill:#1d9390;}</style></defs><path class="cls-1" d="M18.51,5.8h.38a.92.92,0,0,0,0-1.84H16a.93.93,0,0,0-.91.92V7.8a.91.91,0,1,0,1.81,0V6.71A7.18,7.18,0,0,1,12,19.2.91.91,0,1,0,12,21,9,9,0,0,0,18.51,5.8Z"/><path class="cls-1" d="M8.4,15.52a.9.9,0,0,0-.9.9V17.6A7.19,7.19,0,0,1,12,4.8.91.91,0,1,0,12,3,9,9,0,0,0,5.71,18.44H5.47a.91.91,0,0,0,0,1.81H8.4a.91.91,0,0,0,.91-.9V16.42A.9.9,0,0,0,8.4,15.52Z"/></svg>