<svg id="图层_1" data-name="图层 1" xmlns="http://www.w3.org/2000/svg" viewBox="0 0 24 24"><defs><style>.cls-1{fill:#7e8b9e;}</style></defs><path class="cls-1" d="M10.3,9.4a4.09,4.09,0,0,1,.64,2.44,4.9,4.9,0,0,1-.67,2.68,2.18,2.18,0,0,1-1.87,1,2,2,0,0,1-2.23-1.84h1a1.13,1.13,0,0,0,1.23,1A1.28,1.28,0,0,0,9.53,14a3.1,3.1,0,0,0,.41-1.65s0-.08,0-.12h0a1.89,1.89,0,0,1-.72.66,2,2,0,0,1-.94.21,2.15,2.15,0,0,1-1.61-.64A2.31,2.31,0,0,1,6,10.84a2.16,2.16,0,0,1,.68-1.67A2.32,2.32,0,0,1,8.41,8.5,2.18,2.18,0,0,1,10.3,9.4Zm-2.86.37a1.49,1.49,0,0,0-.38,1.07,1.39,1.39,0,0,0,.38,1,1.29,1.29,0,0,0,1,.39,1.34,1.34,0,0,0,1-.39,1.56,1.56,0,0,0,.37-1.07,1.46,1.46,0,0,0-.38-1.05,1.31,1.31,0,0,0-1-.4A1.28,1.28,0,0,0,7.44,9.77Z"/><path class="cls-1" d="M16,9.51a4.63,4.63,0,0,1,.6,2.52,4.68,4.68,0,0,1-.6,2.52,2.22,2.22,0,0,1-3.71,0A4.66,4.66,0,0,1,11.74,12a4.59,4.59,0,0,1,.59-2.52,2.09,2.09,0,0,1,1.86-1A2.07,2.07,0,0,1,16,9.51Zm-3,.79A4.76,4.76,0,0,0,12.76,12,4.83,4.83,0,0,0,13,13.76a1.22,1.22,0,0,0,2.36,0A5.1,5.1,0,0,0,15.61,12a5,5,0,0,0-.24-1.73,1.22,1.22,0,0,0-2.36,0Z"/><path class="cls-1" d="M23.68,10H21.93a11,11,0,1,0-2,8.64,1,1,0,1,0-1.59-1.21A9,9,0,1,1,19.89,10H18.47a.19.19,0,0,0-.16.31l2.61,3.48a.19.19,0,0,0,.31,0l2.61-3.48A.19.19,0,0,0,23.68,10Z"/></svg>