<?xml version="1.0" encoding="UTF-8"?>
<svg width="47px" height="37px" viewBox="0 0 47 37" version="1.1" xmlns="http://www.w3.org/2000/svg" xmlns:xlink="http://www.w3.org/1999/xlink">
    <!-- Generator: Sketch 52.2 (67145) - http://www.bohemiancoding.com/sketch -->
    <title></title>
    <desc>Created with Sketch.</desc>
    <g id="Page-1" stroke="none" stroke-width="1" fill="none" fill-rule="evenodd">
        <g id="欢迎页面-copy" transform="translate(-819.000000, -203.000000)">
            <g id="icon/搜索户型库" transform="translate(819.000000, 203.000000)">
                <g id="icon/画户型暗色">
                    <g>
                        <path d="M34,36.3789474 L18,36.3789474 C16.894,36.3789474 16,35.532 16,34.4842105 L16,11.7473684 C16,10.6995789 16.894,9.85263158 18,9.85263158 L34,9.85263158 C35.106,9.85263158 36,10.6995789 36,11.7473684 L36,34.4842105 C36,35.532 35.106,36.3789474 34,36.3789474" id="Fill-1" fill="#434C5D" opacity="0.400000006"></path>
                        <path d="M0,20.4631579 L20.4,20.4631579 L20.4,36.3789474 L2.4,36.3789474 C1.0745166,36.3789474 3.5600367e-15,35.3044308 2.22044605e-15,33.9789474 L0,20.4631579 Z" id="Path-2" fill="#6C717F" fill-rule="nonzero"></path>
                        <path d="M0,20.4631579 L0,2.4 C-1.623249e-16,1.0745166 1.0745166,-1.08878028e-15 2.4,-1.33226763e-15 L18,0 C19.3254834,-2.4348735e-16 20.4,1.0745166 20.4,2.4 L20.4,20.4631579 L0,20.4631579 Z" id="Path-3" fill="#434C5D" fill-rule="nonzero"></path>
                    </g>
                </g>
                <path d="M35.5,18 C32.4671429,18 30,15.5328571 30,12.5 C30,9.46714286 32.4671429,7 35.5,7 C38.5328571,7 41,9.46714286 41,12.5 C41,15.5328571 38.5328571,18 35.5,18" id="Fill-7" fill="#F5F8F9"></path>
                <path d="M35.5,5 C31.3583333,5 28,8.35833333 28,12.5 C28,16.6416667 31.3583333,20 35.5,20 C39.6416667,20 43,16.6416667 43,12.5 C43,8.35833333 39.6416667,5 35.5,5 M35.5,8.33333333 C37.7983333,8.33333333 39.6666667,10.2016667 39.6666667,12.5 C39.6666667,14.7983333 37.7983333,16.6666667 35.5,16.6666667 C33.2016667,16.6666667 31.3333333,14.7983333 31.3333333,12.5 C31.3333333,10.2016667 33.2016667,8.33333333 35.5,8.33333333" id="Fill-9" fill="#434C5D"></path>
                <path d="M40.6572435,16 C40.2330952,16 39.8089469,16.1623861 39.4858652,16.4855012 C38.8380449,17.1333886 38.8380449,18.1806131 39.4858652,18.8285004 L44.1713783,23.5144988 C44.49446,23.8376139 44.9186083,24 45.3427565,24 C45.7669048,24 46.1910531,23.8376139 46.5141348,23.5144988 C47.1619551,22.8699254 47.1619551,21.8193869 46.5141348,21.1714996 L41.8286217,16.4855012 C41.50554,16.1623861 41.0813917,16 40.6572435,16" id="Fill-11" fill="#434C5D"></path>
            </g>
        </g>
    </g>
</svg>