<svg id="图层_1" data-name="图层 1" xmlns="http://www.w3.org/2000/svg" viewBox="0 0 26 27"><defs><style>.cls-1{fill:#1d9390;}</style></defs><path class="cls-1" d="M13.83,7.45a1,1,0,0,0-1.66,0l-6,9a1,1,0,0,0,0,1.06L8.23,21H8a1,1,0,0,0-1,1v3a1,1,0,0,0,1,1H18a1,1,0,0,0,1-1V22a1,1,0,0,0-1-1h-.23l2.09-3.49a1,1,0,0,0,0-1.06ZM17,24H9V23h8Zm-1.57-3H13.75V19a2.12,2.12,0,1,0-1.5,0v2H10.57L8.18,17,13,9.8,17.82,17Zm-3-4a.62.62,0,1,1,.62.62A.62.62,0,0,1,12.38,17Z"/><path class="cls-1" d="M23,5.25a2.25,2.25,0,1,0-2.11-3H15.25V1.5A.76.76,0,0,0,14.5.75h-3a.76.76,0,0,0-.75.75v.75H5.11a2.25,2.25,0,1,0,0,1.5H7.9A9.58,9.58,0,0,0,4,8.79H2.72A.76.76,0,0,0,2,9.54v3a.75.75,0,0,0,.75.75h3a.75.75,0,0,0,.75-.75v-3a.76.76,0,0,0-.75-.75H5.57a8.07,8.07,0,0,1,5.18-4.71V4.5a.76.76,0,0,0,.75.75h3a.76.76,0,0,0,.75-.75V4.08a8,8,0,0,1,5.18,4.71h-.15a.75.75,0,0,0-.75.75v3a.74.74,0,0,0,.75.75h3a.75.75,0,0,0,.75-.75v-3a.76.76,0,0,0-.75-.75H22a9.59,9.59,0,0,0-3.93-5h2.79A2.24,2.24,0,0,0,23,5.25ZM5,11.79H3.47v-1.5H5Zm17.56,0H21v-1.5h1.5ZM23,2.25a.75.75,0,1,1-.75.75A.76.76,0,0,1,23,2.25ZM3,3.75A.75.75,0,1,1,3.75,3,.76.76,0,0,1,3,3.75Zm10.75,0h-1.5V2.25h1.5Z"/></svg>