<?xml version="1.0" encoding="utf-8"?>
<!-- Generator: Adobe Illustrator 22.0.0, SVG Export Plug-In . SVG Version: 6.00 Build 0)  -->
<svg version="1.1" id="图层_1" xmlns:sketch="http://www.bohemiancoding.com/sketch/ns"
	 xmlns="http://www.w3.org/2000/svg" xmlns:xlink="http://www.w3.org/1999/xlink" x="0px" y="0px" viewBox="0 0 30 30"
	 style="enable-background:new 0 0 30 30;" xml:space="preserve">
<style type="text/css">
	.st0{fill:#939393;}
</style>
<title></title>
<desc>Created with Sketch Beta.</desc>
<g id="Page-1" sketch:type="MSPage">
	<g id="Icon-Set" transform="translate(-101.000000, -360.000000)" sketch:type="MSLayerGroup">
		<path id="settings" sketch:type="MSShapeGroup" class="st0" d="M128.5,381.1l-1,1.7c-0.3,0.5-0.9,0.6-1.4,0.4l-2.8-1.6
			c-1.4,1.6-3.3,2.7-5.4,3.2v2.2c0,0.6-0.4,1-1,1h-2c-0.5,0-1-0.4-1-1v-2.2c-2.1-0.4-4-1.6-5.4-3.2l-2.8,1.6
			c-0.5,0.3-1.1,0.1-1.4-0.4l-1-1.7c-0.3-0.5-0.1-1.1,0.4-1.4l2.8-1.6c-0.3-1-0.5-2.1-0.5-3.2s0.2-2.2,0.5-3.2l-2.8-1.6
			c-0.5-0.3-0.6-0.9-0.4-1.4l1-1.7c0.3-0.5,0.9-0.6,1.4-0.4l2.8,1.6c1.4-1.6,3.3-2.7,5.4-3.2V363c0-0.6,0.4-1,1-1h2c0.5,0,1,0.4,1,1
			v2.2c2.1,0.4,4,1.6,5.4,3.2l2.8-1.6c0.5-0.3,1.1-0.1,1.4,0.4l1,1.7c0.3,0.5,0.1,1.1-0.4,1.4l-2.8,1.6c0.3,1,0.5,2.1,0.5,3.2
			s-0.2,2.2-0.5,3.2l2.8,1.6C128.6,380,128.8,380.7,128.5,381.1L128.5,381.1z M130,378.5l-2.3-1.4c0.1-0.7,0.2-1.4,0.2-2.2
			c0-0.7-0.1-1.5-0.2-2.2l2.3-1.4c0.9-0.6,1.3-1.8,0.7-2.7l-2-3.5c-0.5-1-1.8-1.3-2.7-0.7l-2.3,1.4c-1.1-0.9-2.3-1.7-3.7-2.2V362
			c0-1.1-0.9-2-2-2h-4c-1.1,0-2,0.9-2,2v1.7c-1.4,0.5-2.6,1.3-3.7,2.2l-2.3-1.4c-0.9-0.6-2.2-0.2-2.7,0.7l-2,3.5
			c-0.5,1-0.2,2.2,0.7,2.7l2.3,1.4c-0.1,0.7-0.2,1.4-0.2,2.2c0,0.7,0.1,1.5,0.2,2.2l-2.3,1.4c-0.9,0.6-1.3,1.8-0.7,2.7l2,3.5
			c0.5,1,1.8,1.3,2.7,0.7l2.3-1.4c1.1,0.9,2.3,1.7,3.7,2.2v1.7c0,1.1,0.9,2,2,2h4c1.1,0,2-0.9,2-2v-1.7c1.4-0.5,2.6-1.3,3.7-2.2
			l2.3,1.4c0.9,0.6,2.2,0.2,2.7-0.7l2-3.5C131.3,380.3,131,379.1,130,378.5L130,378.5z M116,378c-1.6,0-3-1.3-3-3c0-1.7,1.3-3,3-3
			s3,1.3,3,3C119,376.7,117.6,378,116,378L116,378z M116,370c-2.7,0-5,2.2-5,5s2.2,5,5,5s5-2.2,5-5S118.7,370,116,370L116,370z"/>
	</g>
</g>
</svg>
