<svg id="图层_1" data-name="图层 1" xmlns="http://www.w3.org/2000/svg" viewBox="0 0 24 24"><defs><style>.cls-1{fill:#231815;}</style></defs><title>0</title><path class="cls-1" d="M19,16H8.85L8.7,15H19a1.16,1.16,0,0,0,.37-.07l.11-.07a1.37,1.37,0,0,0,.2-.13l.09-.12a.57.57,0,0,0,.12-.18.44.44,0,0,0,.05-.15.78.78,0,0,0,0-.14l1-7a1,1,0,0,0-.23-.8A1,1,0,0,0,20,6H7.27l0-.2L7,3.87A1,1,0,0,0,6,3H4A1,1,0,0,0,4,5H5.11L7,17.16A1,1,0,0,0,8,18H19a1,1,0,0,0,0-2Zm-.15-8-.72,5H8.38L7.59,8Z"/><circle class="cls-1" cx="9" cy="20" r="1"/><circle class="cls-1" cx="18" cy="20" r="1"/></svg>