<?xml version="1.0" encoding="utf-8"?>
<!-- Generator: Adobe Illustrator 22.0.0, SVG Export Plug-In . SVG Version: 6.00 Build 0)  -->
<svg version="1.1" id="图层_1" xmlns="http://www.w3.org/2000/svg" xmlns:xlink="http://www.w3.org/1999/xlink" x="0px" y="0px"
	 viewBox="0 0 12.3 12.3" style="enable-background:new 0 0 12.3 12.3;" xml:space="preserve">
<style type="text/css">
	.st0{fill:#E2E8ED;}
</style>
<title>Group 2</title>
<desc>Created with Sketch.</desc>
<g id="相机剪切_x2B_相机位置">
	<g id="相机视角normal" transform="translate(-1160.000000, -196.000000)">
		
			<g id="Group-2" transform="translate(1164.485281, 203.485281) rotate(-45.000000) translate(-1164.485281, -203.485281) translate(1158.485281, 197.485281)">
			<g id="Fill-1">
				<path class="st0" d="M11.7,2.3H4.8c-0.3,0-0.6,0.2-0.6,0.6v6.9c0,0.5,0.6,0.7,1,0.4l6.9-6.9C12.4,2.9,12.2,2.3,11.7,2.3"/>
			</g>
			<g id="Path-4">
				<path class="st0" d="M6.1,12.7c-0.4-0.4-0.4-1,0-1.4l7.1-7.1c0.4-0.4,1-0.4,1.4,0s0.4,1,0,1.4l-7.1,7.1
					C7.1,13.1,6.5,13.1,6.1,12.7z"/>
			</g>
		</g>
	</g>
</g>
</svg>
