<svg id="图层_1" data-name="图层 1" xmlns="http://www.w3.org/2000/svg" viewBox="0 0 24 24"><defs><style>.cls-1{fill:#7e8b9e;}</style></defs><title></title><path class="cls-1" d="M8,9A1,1,0,0,0,9,8V2A1,1,0,0,0,8,1H2A1,1,0,0,0,1,2V8A1,1,0,0,0,2,9ZM3,3H7V7H3Z"/><path class="cls-1" d="M22,15H16a1,1,0,0,0-1,1v6a1,1,0,0,0,1,1h6a1,1,0,0,0,1-1V16A1,1,0,0,0,22,15Zm-1,6H17V17h4Z"/><path class="cls-1" d="M11,5h2a5.08,5.08,0,0,1,5,4.9v.69l-.29-.3a1,1,0,0,0-1.42,1.42l2,2a1,1,0,0,0,.33.21.94.94,0,0,0,.76,0,1,1,0,0,0,.33-.21l2-2a1,1,0,0,0-1.42-1.42l-.29.3V9.9A7.14,7.14,0,0,0,13,3H11a1,1,0,0,0,0,2Z"/><path class="cls-1" d="M13,19H11a5.08,5.08,0,0,1-5-4.9v-.69l.29.3a1,1,0,0,0,1.42,0,1,1,0,0,0,0-1.42l-2-2a1,1,0,0,0-.33-.21,1,1,0,0,0-.76,0,1,1,0,0,0-.33.21l-2,2a1,1,0,0,0,1.42,1.42l.29-.3v.69A7.14,7.14,0,0,0,11,21h2a1,1,0,0,0,0-2Z"/></svg>