<svg id="图层_1" data-name="图层 1" xmlns="http://www.w3.org/2000/svg" viewBox="0 0 24 24"><defs><style>.cls-1{fill:#1d9390;}</style></defs><path class="cls-1" d="M18,3H6A3,3,0,0,0,3,6V18a3,3,0,0,0,3,3H18a3,3,0,0,0,3-3V6A3,3,0,0,0,18,3Zm1,15a1,1,0,0,1-1,1H6a1,1,0,0,1-1-1V6A1,1,0,0,1,6,5H18a1,1,0,0,1,1,1Z"/><path class="cls-1" d="M15,12.8V11.2A2.21,2.21,0,0,0,12.8,9H11.2A2.21,2.21,0,0,0,9,11.2v1.6A2.21,2.21,0,0,0,11.2,15h1.6A2.21,2.21,0,0,0,15,12.8Zm-2,0a.2.2,0,0,1-.2.2H11.2a.2.2,0,0,1-.2-.2V11.2a.2.2,0,0,1,.2-.2h1.6a.2.2,0,0,1,.2.2Z"/><path class="cls-1" d="M17,6H15a1,1,0,0,0,0,2h1V9a1,1,0,0,0,2,0V7A1,1,0,0,0,17,6Z"/><path class="cls-1" d="M17,14a1,1,0,0,0-1,1v1H15a1,1,0,0,0,0,2h2a1,1,0,0,0,1-1V15A1,1,0,0,0,17,14Z"/><path class="cls-1" d="M9,16H8V15a1,1,0,0,0-2,0v2a1,1,0,0,0,1,1H9a1,1,0,0,0,0-2Z"/><path class="cls-1" d="M7,10A1,1,0,0,0,8,9V8H9A1,1,0,0,0,9,6H7A1,1,0,0,0,6,7V9A1,1,0,0,0,7,10Z"/></svg>