<svg id="图层_1" data-name="图层 1" xmlns="http://www.w3.org/2000/svg" viewBox="0 0 24 24"><defs><style>.cls-1{fill:#1d9390;}</style></defs><title></title><path class="cls-1" d="M12,2A10,10,0,1,0,22,12,10,10,0,0,0,12,2ZM16,13.68c0-.56.05-1.12.05-1.68s0-1.12-.05-1.68C18.61,10.79,20,11.64,20,12S18.61,13.21,16,13.68ZM12,20c-.36,0-1.21-1.39-1.68-4.05.56,0,1.12.05,1.68.05s1.12,0,1.68-.05C13.21,18.61,12.36,20,12,20Zm0-6c-.69,0-1.33,0-1.93-.07,0-.6-.07-1.24-.07-1.93s0-1.33.07-1.93c.6,0,1.24-.07,1.93-.07s1.33,0,1.93.07c0,.6.07,1.24.07,1.93s0,1.33-.07,1.93C13.33,14,12.69,14,12,14ZM4,12c0-.36,1.39-1.21,4.05-1.68C8,10.88,8,11.44,8,12s0,1.12.05,1.68C5.39,13.21,4,12.36,4,12Zm8-8c.36,0,1.21,1.38,1.68,4.05C13.12,8,12.56,8,12,8s-1.12,0-1.68.05C10.79,5.38,11.64,4,12,4Zm7.5,5.24a14.83,14.83,0,0,0-3.76-1,15.26,15.26,0,0,0-1-3.76A8,8,0,0,1,19.5,9.24ZM9.24,4.5a15.26,15.26,0,0,0-1,3.76,14.83,14.83,0,0,0-3.76,1A8,8,0,0,1,9.24,4.5ZM4.5,14.76a15.26,15.26,0,0,0,3.76,1,15.26,15.26,0,0,0,1,3.76A8,8,0,0,1,4.5,14.76ZM14.76,19.5a15.26,15.26,0,0,0,1-3.76,15.26,15.26,0,0,0,3.76-1A8,8,0,0,1,14.76,19.5Z"/></svg>