<svg id="图层_1" data-name="图层 1" xmlns="http://www.w3.org/2000/svg" viewBox="0 0 24 24"><defs><style>.cls-1{fill:#1d9390;}</style></defs><title></title><path class="cls-1" d="M18,8H17s0-.08,0-.12V7a4.83,4.83,0,0,0-5-5A4.83,4.83,0,0,0,7,7v.88S7,8,7,8H6a3,3,0,0,0-3,3v8a3,3,0,0,0,3,3H18a3,3,0,0,0,3-3V11A3,3,0,0,0,18,8ZM9,7.88V7a2.84,2.84,0,0,1,3-3,2.84,2.84,0,0,1,3,3v.88S15,8,15,8H9S9,7.92,9,7.88ZM19,19a1,1,0,0,1-1,1H6a1,1,0,0,1-1-1V11a1,1,0,0,1,1-1H18a1,1,0,0,1,1,1Z"/><path class="cls-1" d="M12,12a3,3,0,1,0,3,3A3,3,0,0,0,12,12Zm0,4a1,1,0,1,1,1-1A1,1,0,0,1,12,16Z"/></svg>