<svg id="图层_1" data-name="图层 1" xmlns="http://www.w3.org/2000/svg" viewBox="0 0 24 24"><defs><style>.cls-1{fill:#1d9390;}</style></defs><path class="cls-1" d="M21.71,11.29l-2-2a1,1,0,0,0-1.42,1.42l.3.29H16a3.19,3.19,0,0,0-3-3V5.41l.29.3a1,1,0,0,0,1.42,0,1,1,0,0,0,0-1.42l-2-2a1,1,0,0,0-1.42,0l-2,2a1,1,0,0,0,1.42,1.42l.29-.3V8a3.19,3.19,0,0,0-3,3H5.41l.3-.29A1,1,0,0,0,4.29,9.29l-2,2a1,1,0,0,0,0,1.42l2,2a1,1,0,0,0,1.42,0,1,1,0,0,0,0-1.42L5.41,13H8a3.19,3.19,0,0,0,3,3v2.61l-.29-.3a1,1,0,0,0-1.42,1.42l2,2a1,1,0,0,0,1.42,0l2-2a1,1,0,0,0-1.42-1.42l-.29.3V16a3.19,3.19,0,0,0,3-3h2.61l-.3.29a1,1,0,0,0,0,1.42,1,1,0,0,0,1.42,0l2-2A1,1,0,0,0,21.71,11.29ZM14,12.8A1.2,1.2,0,0,1,12.8,14H11.2A1.2,1.2,0,0,1,10,12.8V11.2A1.2,1.2,0,0,1,11.2,10h1.6A1.2,1.2,0,0,1,14,11.2Z"/></svg>