<svg id="图层_1" data-name="图层 1" xmlns="http://www.w3.org/2000/svg" viewBox="0 0 24 24"><defs><style>.cls-1{fill:#1d9390;}</style></defs><path class="cls-1" d="M20.52,11h-17a2,2,0,0,0-2,2v5.22a2,2,0,0,0,2,2h17a2,2,0,0,0,2-2V13A2,2,0,0,0,20.52,11Zm0,7.2h-17l0-5.21h17Z"/><path class="cls-1" d="M12,9a1,1,0,0,0,1-1V5a1,1,0,0,0-2,0V8A1,1,0,0,0,12,9Z"/><path class="cls-1" d="M16.55,9.39A.93.93,0,0,0,17,9.5,1,1,0,0,0,17.89,9l1-2a1,1,0,1,0-1.78-.9l-1,2A1,1,0,0,0,16.55,9.39Z"/><path class="cls-1" d="M6.11,9A1,1,0,0,0,7,9.5a.93.93,0,0,0,.45-.11,1,1,0,0,0,.44-1.34l-1-2A1,1,0,0,0,5.11,7Z"/><path class="cls-1" d="M6,17.27a1,1,0,0,0,1-1V14.93a1,1,0,0,0-2,0v1.34A1,1,0,0,0,6,17.27Z"/><path class="cls-1" d="M10,17.27a1,1,0,0,0,1-1V14.93a1,1,0,0,0-2,0v1.34A1,1,0,0,0,10,17.27Z"/><path class="cls-1" d="M14,17.27a1,1,0,0,0,1-1V14.93a1,1,0,0,0-2,0v1.34A1,1,0,0,0,14,17.27Z"/><path class="cls-1" d="M18,17.27a1,1,0,0,0,1-1V14.93a1,1,0,0,0-2,0v1.34A1,1,0,0,0,18,17.27Z"/></svg>
