<svg id="图层_1" data-name="图层 1" xmlns="http://www.w3.org/2000/svg" viewBox="0 0 24 24"><defs><style>.cls-1{fill:#1d9390;}</style></defs><path class="cls-1" d="M22,10V5.2A2.21,2.21,0,0,0,19.8,3H17.2A2.21,2.21,0,0,0,15,5.2V7.8A1.36,1.36,0,0,0,15,8h0V9A3,3,0,0,1,9,9V8H9a1.36,1.36,0,0,0,0-.2V5.2A2.21,2.21,0,0,0,6.8,3H4.2A2.21,2.21,0,0,0,2,5.2V10a10,10,0,0,0,20,0ZM7,7.8a.2.2,0,0,1-.2.2H4.2A.2.2,0,0,1,4,7.8V5.2A.2.2,0,0,1,4.2,5H6.8a.2.2,0,0,1,.2.2ZM16.9,10l.3,0h.65c0,.15,0,.3,0,.45a.66.66,0,0,0,.6.7.65.65,0,0,0,.7-.6c0-.18,0-.36,0-.55h.65l.2,0v0A8,8,0,0,1,4,10v0l.2,0h.65c0,.19,0,.37,0,.55a.64.64,0,0,0,.7.6.66.66,0,0,0,.6-.7c0-.15,0-.3,0-.45H6.8l.3,0a5,5,0,0,0,9.8,0ZM20,6.42V7.8a.2.2,0,0,1-.2.2H17.2a.2.2,0,0,1-.2-.2V5.2a.2.2,0,0,1,.2-.2h2.6a.2.2,0,0,1,.2.2Z"/><path class="cls-1" d="M17,12.9a.65.65,0,0,1,.54-.28.61.61,0,0,1,.36.11.65.65,0,0,1,.18.9,7.11,7.11,0,0,1-.69.85.65.65,0,0,1-.94-.9A5.11,5.11,0,0,0,17,12.9Z"/><path class="cls-1" d="M10.43,16.5a6.9,6.9,0,0,1-1-.28A.64.64,0,0,1,9,15.4.65.65,0,0,1,9.6,15l.21,0a5,5,0,0,0,.86.23.66.66,0,0,1,.52.76A.65.65,0,0,1,10.43,16.5Z"/><path class="cls-1" d="M14.65,16.21a7.11,7.11,0,0,1-1,.28.65.65,0,1,1-.26-1.27,6.2,6.2,0,0,0,.87-.24l.21,0a.63.63,0,0,1,.61.43A.65.65,0,0,1,14.65,16.21Z"/><path class="cls-1" d="M6.64,14.51A6.25,6.25,0,0,1,6,13.66a.64.64,0,0,1,.17-.9.61.61,0,0,1,.36-.11.65.65,0,0,1,.54.28,5.11,5.11,0,0,0,.55.68.65.65,0,1,1-.93.9Z"/></svg>