<svg id="图层_1" data-name="图层 1" xmlns="http://www.w3.org/2000/svg" viewBox="0 0 24 24"><defs><style>.cls-1{fill:#1d9390;}</style></defs><title></title><path class="cls-1" d="M15.68,18.72,13,19.61V11.72l7-2.33V11a1,1,0,0,0,2,0V7a1,1,0,0,0-.68-1l-9-3a1,1,0,0,0-.64,0l-9,3A1,1,0,0,0,2,7V18a1,1,0,0,0,.68.95l9,3h0a1,1,0,0,0,.62,0h0l4-1.34a1,1,0,1,0-.64-1.89ZM12,5.05,19.34,7.5,12,9.94,4.66,7.5ZM4,17V9.39l7,2.33v7.89L4,17.28Z"/><path class="cls-1" d="M22.42,15.71H20.71V14a1,1,0,0,0-2,0v1.71H17a1,1,0,0,0,0,2h1.71v1.71a1,1,0,0,0,2,0V17.71h1.71a1,1,0,0,0,0-2Z"/></svg>