<svg id="图层_1" data-name="图层 1" xmlns="http://www.w3.org/2000/svg" viewBox="0 0 24 24"><defs><style>.cls-1{fill:#1d9390;}</style></defs><path class="cls-1" d="M12,2.06a1,1,0,0,0-1.05,1v.53a1.05,1.05,0,0,0,2.1,0V3.11A1,1,0,0,0,12,2.06Z"/><path class="cls-1" d="M12,14.87A1,1,0,0,0,11,15.92V17a1.05,1.05,0,0,0,2.1,0V15.92A1,1,0,0,0,12,14.87Z"/><path class="cls-1" d="M12,10.4A1.05,1.05,0,0,0,11,11.46v1.11a1.05,1.05,0,1,0,2.1,0V11.46A1.05,1.05,0,0,0,12,10.4Z"/><path class="cls-1" d="M12,5.93A1.06,1.06,0,0,0,11,7V8.11a1.05,1.05,0,0,0,2.1,0V7A1.06,1.06,0,0,0,12,5.93Z"/><path class="cls-1" d="M12,19.33A1.06,1.06,0,0,0,11,20.39v.53a1,1,0,0,0,2.1,0v-.53A1.06,1.06,0,0,0,12,19.33Z"/><path class="cls-1" d="M22.71,11.29l-2-2a1,1,0,0,0-1.42,1.42l.3.29H17V6a1,1,0,0,0-2,0V18a1,1,0,0,0,2,0V13h2.59l-.3.29a1,1,0,0,0,0,1.42,1,1,0,0,0,1.42,0l2-2A1,1,0,0,0,22.71,11.29Z"/><path class="cls-1" d="M8,5A1,1,0,0,0,7,6v5H4.41l.3-.29A1,1,0,0,0,3.29,9.29l-2,2a1,1,0,0,0,0,1.42l2,2a1,1,0,0,0,1.42,0,1,1,0,0,0,0-1.42L4.41,13H7v5a1,1,0,0,0,2,0V6A1,1,0,0,0,8,5Z"/></svg>