<svg id="图层_1" data-name="图层 1" xmlns="http://www.w3.org/2000/svg" viewBox="0 0 24 24"><defs><style>.cls-1{fill:#1d9390;}</style></defs><path class="cls-1" d="M6,10H9v5a1,1,0,0,0,1,1h4a1,1,0,0,0,1-1V10h3a1,1,0,0,0,.92-.62,1,1,0,0,0-.21-1.09l-6-6a1,1,0,0,0-1.42,0l-6,6a1,1,0,0,0-.21,1.09A1,1,0,0,0,6,10Zm6-5.59L15.59,8H14a1,1,0,0,0-1,1v5H11V9a1,1,0,0,0-1-1H8.41Z"/><path class="cls-1" d="M22.37,15.07l-5-2a1,1,0,0,0-.74,1.86l2.93,1.17L12,19.88,4.44,16.1l2.93-1.17a1,1,0,0,0-.74-1.86l-5,2A1,1,0,0,0,1,16a1,1,0,0,0,.55.93l10,5a1,1,0,0,0,.9,0l10-5A1,1,0,0,0,23,16,1,1,0,0,0,22.37,15.07Z"/></svg>
