<svg id="图层_1" data-name="图层 1" xmlns="http://www.w3.org/2000/svg" viewBox="0 0 24 24"><defs><style>.cls-1{fill:#1d9390;}</style></defs><path class="cls-1" d="M20.51,9.71,16.93,6.13a2,2,0,0,0-2.18-.44,2,2,0,0,0-1.24,1.85V8a14.4,14.4,0,0,0-10.6,9,1.11,1.11,0,0,0,.43,1.35,1.15,1.15,0,0,0,.59.17,1.09,1.09,0,0,0,.81-.36,10.2,10.2,0,0,1,8.78-3.16,2,2,0,0,0,3.41,1.19l3.58-3.59A2,2,0,0,0,20.51,9.71Zm-5,5V13.26l-.81-.16a12.77,12.77,0,0,0-2.54-.25A11.92,11.92,0,0,0,7,14a12.17,12.17,0,0,1,7.64-4.19l.92-.07V7.54l3.59,3.59Z"/></svg>