<svg id="图层_1" data-name="图层 1" xmlns="http://www.w3.org/2000/svg" viewBox="0 0 24 24"><title></title><path d="M10.53,18.76H6v-14H18v3a1,1,0,0,0,2,0v-3a2,2,0,0,0-2-2H6a2,2,0,0,0-2,2v14a2,2,0,0,0,2,2h4.5a1,1,0,0,0,0-2Z"/><path d="M16,7.76a1,1,0,0,0-1-1H9a1,1,0,0,0,0,2h6A1,1,0,0,0,16,7.76Z"/><path d="M9,10.76a1,1,0,0,0,0,2h3a1,1,0,0,0,0-2Z"/><path d="M20.78,15.19l-2.72-2.94a1,1,0,0,0-1.41-.06,1,1,0,0,0-.06,1.42L17.7,14.8,9,14.76H9a1,1,0,0,0-1,1,1,1,0,0,0,1,1l8.52,0-1.12,1.05a1,1,0,1,0,1.35,1.47l2.94-2.72A1,1,0,0,0,20.78,15.19Z"/></svg>