<?xml version="1.0" encoding="UTF-8"?>
<svg width="41px" height="38px" viewBox="0 0 41 38" version="1.1" xmlns="http://www.w3.org/2000/svg" xmlns:xlink="http://www.w3.org/1999/xlink">
    <!-- Generator: Sketch 52.2 (67145) - http://www.bohemiancoding.com/sketch -->
    <title>上传户型图icon</title>
    <desc>Created with Sketch.</desc>
    <g id="Page-1" stroke="none" stroke-width="1" fill="none" fill-rule="evenodd">
        <g id="欢迎页面" transform="translate(-994.000000, -201.000000)">
            <g id="上传户型图icon" transform="translate(994.000000, 201.000000)">
                <g id="分组-5" transform="translate(0.000000, 12.000000)">
                    <rect id="矩形" fill="#AEB2BA" x="0" y="0" width="41" height="26" rx="3"></rect>
                    <path d="M4.808,11.288 L5.744,11.288 L5.744,15.152 C5.744,15.808 5.608,16.288 5.336,16.608 C5.032,16.944 4.552,17.112 3.888,17.112 C3.312,17.112 2.872,16.952 2.576,16.632 C2.272,16.312 2.12,15.872 2.12,15.312 L2.12,15.128 L3.056,15.128 L3.056,15.304 C3.056,15.96 3.336,16.288 3.904,16.288 C4.216,16.288 4.448,16.192 4.592,16.008 C4.736,15.824 4.808,15.528 4.808,15.12 L4.808,11.288 Z M6.864,11.288 L9.232,11.288 C10.608,11.288 11.304,11.872 11.304,13.04 C11.304,14.216 10.608,14.808 9.216,14.808 L7.8,14.808 L7.8,17 L6.864,17 L6.864,11.288 Z M7.8,12.088 L7.8,14.008 L9.16,14.008 C9.576,14.008 9.88,13.928 10.072,13.784 C10.264,13.632 10.36,13.384 10.36,13.04 C10.36,12.696 10.256,12.456 10.064,12.312 C9.872,12.16 9.568,12.088 9.16,12.088 L7.8,12.088 Z M14.584,11.176 C15.32,11.176 15.896,11.336 16.32,11.664 C16.728,11.984 16.984,12.456 17.088,13.096 L16.144,13.096 C16.064,12.728 15.888,12.456 15.632,12.272 C15.368,12.088 15.016,12 14.584,12 C14.048,12 13.624,12.176 13.312,12.544 C12.968,12.928 12.8,13.464 12.8,14.168 C12.8,14.84 12.952,15.36 13.256,15.72 C13.584,16.104 14.096,16.296 14.792,16.296 C15.064,16.296 15.32,16.264 15.56,16.2 C15.784,16.136 15.984,16.048 16.176,15.936 L16.176,14.76 L14.664,14.76 L14.664,13.96 L17.112,13.96 L17.112,16.376 C16.808,16.616 16.464,16.792 16.072,16.92 C15.656,17.048 15.2,17.112 14.688,17.112 C13.776,17.112 13.072,16.824 12.568,16.248 C12.096,15.712 11.864,15.016 11.864,14.168 C11.864,13.312 12.096,12.608 12.568,12.056 C13.064,11.464 13.736,11.176 14.584,11.176 Z M20.592,10.44 L21.376,10.44 L18.6,17.8 L17.808,17.8 L20.592,10.44 Z M24.632,11.176 C25.304,11.176 25.864,11.352 26.296,11.704 C26.712,12.04 26.96,12.504 27.048,13.08 L26.136,13.08 C26.04,12.704 25.864,12.432 25.6,12.256 C25.344,12.08 25.016,12 24.616,12 C24.016,12 23.568,12.2 23.264,12.616 C22.984,12.984 22.848,13.496 22.848,14.152 C22.848,14.824 22.984,15.344 23.256,15.704 C23.552,16.088 24.016,16.288 24.64,16.288 C25.048,16.288 25.384,16.184 25.64,15.992 C25.912,15.776 26.104,15.448 26.216,15.016 L27.128,15.016 C27,15.688 26.704,16.208 26.232,16.584 C25.792,16.936 25.264,17.112 24.648,17.112 C23.696,17.112 22.984,16.808 22.52,16.216 C22.112,15.704 21.912,15.016 21.912,14.152 C21.912,13.304 22.12,12.608 22.544,12.08 C23.024,11.472 23.72,11.176 24.632,11.176 Z M29.632,11.288 L30.696,11.288 L32.88,17 L31.88,17 L31.36,15.568 L28.968,15.568 L28.448,17 L27.448,17 L29.632,11.288 Z M29.248,14.8 L31.08,14.8 L30.184,12.296 L30.152,12.296 L29.248,14.8 Z M33.44,11.288 L35.528,11.288 C36.456,11.288 37.152,11.544 37.632,12.056 C38.088,12.536 38.32,13.232 38.32,14.144 C38.32,15.048 38.088,15.744 37.632,16.232 C37.152,16.744 36.456,17 35.528,17 L33.44,17 L33.44,11.288 Z M34.376,12.088 L34.376,16.2 L35.352,16.2 C36.064,16.2 36.584,16.032 36.912,15.704 C37.232,15.368 37.392,14.848 37.392,14.144 C37.392,13.424 37.232,12.896 36.912,12.576 C36.584,12.248 36.064,12.088 35.352,12.088 L34.376,12.088 Z" id="JPG/CAD" fill="#6C717F"></path>
                </g>
                <g id="分组-4" transform="translate(12.000000, 0.000000)" fill="#434C5D">
                    <rect id="矩形" x="7" y="0" width="3" height="17" rx="1.5"></rect>
                    <rect id="矩形" transform="translate(11.949747, 4.949747) rotate(-45.000000) translate(-11.949747, -4.949747) " x="10.4497475" y="-0.550252532" width="3" height="11" rx="1.5"></rect>
                    <rect id="矩形" transform="translate(4.949747, 4.949747) scale(-1, 1) rotate(-45.000000) translate(-4.949747, -4.949747) " x="3.44974747" y="-0.550252532" width="3" height="11" rx="1.5"></rect>
                </g>
            </g>
        </g>
    </g>
</svg>