<svg id="图层_1" data-name="图层 1" xmlns="http://www.w3.org/2000/svg" viewBox="0 0 24 24"><path d="M14.56,14.07h0a1,1,0,0,0,.68-.27,1,1,0,0,0,.29-.68,1,1,0,0,0-.28-.69l-2.6-2.6a1,1,0,0,0-1.36,0L8.71,12.42a1,1,0,0,0,0,1.36.93.93,0,0,0,.69.29,1,1,0,0,0,.69-.29l.94-.94v6.42a1,1,0,0,0,1.93,0V12.84l.94.94A.92.92,0,0,0,14.56,14.07Z"/><path d="M17.73,8.4a5.94,5.94,0,0,0-11.51,0A4.38,4.38,0,0,0,7.33,17H9.5a1,1,0,0,0,0-1.95H7.33a2.43,2.43,0,0,1-.2-4.86A1,1,0,0,0,8,9.36a4,4,0,0,1,7.91,0,1,1,0,0,0,.89.85,2.43,2.43,0,0,1-.2,4.86H14.46a1,1,0,1,0,0,1.95h2.16A4.38,4.38,0,0,0,17.73,8.4Z"/></svg>