<svg id="图层_1" data-name="图层 1" xmlns="http://www.w3.org/2000/svg" xmlns:xlink="http://www.w3.org/1999/xlink" viewBox="0 0 24 24"><defs><style>.cls-1{fill:none;}.cls-2{fill:#1d9390;}.cls-3{clip-path:url(#clip-path);}</style><clipPath id="clip-path"><rect class="cls-1" x="-439" y="-212" width="98" height="30"/></clipPath></defs><path class="cls-2" d="M22,4H2A1,1,0,0,0,1,5V20a1,1,0,0,0,1,1H22a1,1,0,0,0,1-1V5A1,1,0,0,0,22,4ZM3,11H6v3H3ZM8,6h8V19H8Zm10,5h3v3H18Zm3-2H18V6h3ZM6,6V9H3V6ZM3,16H6v3H3Zm15,3V16h3v3Z"/><path class="cls-2" d="M14,11.9l-2.76-1.84a.46.46,0,0,0-.71.38v3.68a.45.45,0,0,0,.71.38L14,12.66A.46.46,0,0,0,14,11.9Z"/></svg>