<svg id="图层_1" data-name="图层 1" xmlns="http://www.w3.org/2000/svg" viewBox="0 0 24 24"><defs><style>.cls-1{fill:#208c89;}</style></defs><title>1图标标准化</title><path class="cls-1" d="M12,14a3.5,3.5,0,0,0,3.5-3.5v-4a3.5,3.5,0,0,0-7,0v4A3.5,3.5,0,0,0,12,14ZM10.5,6.5a1.5,1.5,0,0,1,3,0v4a1.5,1.5,0,0,1-3,0Z"/><path class="cls-1" d="M18.5,8.28a1,1,0,0,0-1,1v1.44A5.29,5.29,0,0,1,12.22,16h-.44A5.29,5.29,0,0,1,6.5,10.72V9.28a1,1,0,0,0-2,0v1.44A7.29,7.29,0,0,0,11,18v1H9a1,1,0,0,0,0,2h6a1,1,0,0,0,0-2H13V18a7.29,7.29,0,0,0,6.5-7.24V9.28A1,1,0,0,0,18.5,8.28Z"/></svg>