<svg id="图层_1" data-name="图层 1" xmlns="http://www.w3.org/2000/svg" viewBox="0 0 24 24"><defs><style>.cls-1{fill-rule:evenodd;}</style></defs><path class="cls-1" d="M21.93,14.37c0-2.7-2.78-4.91-5.89-4.91-3.3,0-5.9,2.21-5.9,4.91s2.6,4.9,5.9,4.9a9.38,9.38,0,0,0,2.08-.33L20,20l-.52-1.7A5.1,5.1,0,0,0,21.93,14.37Zm-7.8-.85a.67.67,0,1,1,0-1.34.77.77,0,0,1,.86.67A.77.77,0,0,1,14.13,13.52Zm3.81,0a.67.67,0,1,1,0-1.34.79.79,0,0,1,.87.67A.79.79,0,0,1,17.94,13.52Z"/><path class="cls-1" d="M15.54,8.91a5.07,5.07,0,0,1,.68,0C15.61,6.16,12.56,4.1,9.08,4.1,5.19,4.1,2,6.68,2,10a5.65,5.65,0,0,0,2.83,4.67l-.71,2.08L6.6,15.5a12.56,12.56,0,0,0,2.48.35l.66,0a5,5,0,0,1-.22-1.45A5.74,5.74,0,0,1,15.54,8.91ZM11.73,7a.83.83,0,0,1,.88.87.82.82,0,0,1-.88.86,1,1,0,0,1-1.07-.86A1,1,0,0,1,11.73,7Zm-5,1.73A1,1,0,0,1,5.71,7.9,1,1,0,0,1,6.77,7a.87.87,0,1,1,0,1.73Z"/></svg>