<svg id="图层_1" data-name="图层 1" xmlns="http://www.w3.org/2000/svg" viewBox="0 0 24 24"><defs><style>.cls-1{fill:#231815;}</style></defs><path class="cls-1" d="M20.6,9.2l-8-6a1,1,0,0,0-1.2,0l-8,6a1,1,0,0,0,1.2,1.6L12,5.25l7.4,5.55a1,1,0,0,0,.6.2,1,1,0,0,0,.8-.4A1,1,0,0,0,20.6,9.2Z"/><path class="cls-1" d="M19,12a1,1,0,0,0-1,1v6H15V14.17a.29.29,0,0,0,0-.09A.24.24,0,0,0,15,14a1,1,0,0,0-1-1H10a1,1,0,0,0-1,1,.24.24,0,0,0,0,.08.29.29,0,0,0,0,.09V19H6V13a1,1,0,0,0-2,0v7a1,1,0,0,0,1,1h5a1,1,0,0,0,1-1V15h2v5a1,1,0,0,0,1,1h5a1,1,0,0,0,1-1V13A1,1,0,0,0,19,12Z"/></svg>