<?xml version="1.0" encoding="UTF-8"?>
<svg width="27px" height="26px" viewBox="0 0 27 26" version="1.1" xmlns="http://www.w3.org/2000/svg" xmlns:xlink="http://www.w3.org/1999/xlink">
    <!-- Generator: Sketch 51.1 (57501) - http://www.bohemiancoding.com/sketch -->
    <defs>
        <polygon id="path-1" points="0.269070218 0.0857353846 8.26126364 0.0857353846 8.26126364 15.9507001 0.269070218 15.9507001"></polygon>
        <polygon id="path-3" points="0.3015792 0.199500429 13.6219909 0.199500429 13.6219909 17.6649585 0.3015792 17.6649585"></polygon>
    </defs>
    <g id="Page-2" stroke="none" stroke-width="1" fill="none" fill-rule="evenodd">
        <g id="全景图-手机2-copy" transform="translate(-1.000000, -1.000000)">
            <g id="logo-透明" transform="translate(1.000000, 1.000000)">
                <g>
                    <g id="Group-3" opacity="0.699999988" transform="translate(18.379636, 9.769846)">
                        <mask id="mask-2" fill="white">
                            <use xlink:href="#path-1"></use>
                        </mask>
                        <g id="Clip-2"></g>
                        <path d="M5.59725022,8.09581292 L5.59725022,8.09461662 L5.59801604,8.09461662 L5.59725022,8.09581292 Z M2.93296876,6.49276062 L2.93411749,6.49276062 L2.93296876,6.49355815 L2.93296876,6.49276062 Z M5.59725022,1.68759138 L2.93296876,3.28944738 L0.269070218,4.89130338 L0.269070218,8.09581292 L0.269070218,11.2991262 L2.93296876,12.9009822 L5.59725022,14.5028382 L7.95826767,15.9220578 C8.09305167,16.0034068 8.26153167,15.9017206 8.26153167,15.7398203 L8.26153167,12.9009822 L8.26153167,9.69766892 L8.26153167,9.69647262 L8.26153167,6.49355815 L8.26153167,6.49276062 L8.26153167,3.29024492 L8.26153167,3.28944738 L8.26153167,0.0857353846 L5.59725022,1.68759138 Z" id="Fill-1" fill="#FFFFFF" mask="url(#mask-2)"></path>
                    </g>
                    <g id="Group-6" transform="translate(13.018909, 0.199385)">
                        <mask id="mask-4" fill="white">
                            <use xlink:href="#path-3"></use>
                        </mask>
                        <g id="Clip-5"></g>
                        <path d="M5.6297592,11.2579333 L7.44130211,12.3469721 L5.6297592,11.2579333 Z M13.3189567,0.227976369 L10.9579392,1.64719606 L8.29404065,3.24905206 L5.6297592,4.85090806 L2.96547775,6.45276406 L0.3015792,8.05462006 L0.3015792,11.2579333 L0.3015792,14.4616453 L0.3015792,14.4624428 L0.3015792,17.6649585 L2.96509484,16.0635013 L2.96547775,16.0635013 L5.6297592,14.4616453 L8.29404065,12.8601881 L10.9579392,11.2579333 L13.6222207,9.65607729 L13.6222207,6.45276406 L13.6222207,3.24905206 L13.6222207,0.410213908 C13.6222207,0.2483136 13.4537407,0.147026215 13.3189567,0.227976369 Z" id="Fill-4" fill="#FFFFFF" mask="url(#mask-4)"></path>
                    </g>
                    <path d="M7.99135102,17.8645026 L7.24697575,18.3123205 L7.99135102,17.8645026 L7.99211684,17.8645026 L7.99211684,14.661987 L7.99211684,14.6611894 L7.99135102,14.6611894 L5.32821829,16.2626466 L5.32706956,16.2626466 L2.66393684,17.8645026 L2.66393684,17.865699 L4.26794302,18.8295242 L2.66393684,17.865699 L2.66393684,17.8645026 L2.66317102,17.8645026 L3.82909091e-05,19.4663586 L3.82909091e-05,19.467555 L3.82909091e-05,22.6700706 L3.82909091e-05,22.6708682 L3.82909091e-05,25.5089088 C3.82909091e-05,25.6708091 0.168518291,25.7720965 0.303302291,25.6911463 L2.66317102,24.2715279 L2.66393684,24.2715279 L5.32706956,22.6700706 L5.32821829,22.6700706 L7.99135102,21.0682146 L7.99211684,21.0682146 L7.99211684,17.865699 L7.99211684,17.8645026 L7.99135102,17.8645026 Z" id="Fill-7" fill="#FFFFFF" opacity="0.699999988"></path>
                    <polygon id="Fill-9" fill="#FFFFFF" opacity="0.5" points="5.32818 13.0601708 5.32818 13.0593733 5.32741418 13.0593733 2.66389855 11.4583148 2.66389855 11.4571185 2.66313273 11.4571185 0 9.85645883 0 13.0593733 0 13.0601708 0 16.2626865 0 16.2634841 0 19.4659998 2.66313273 17.8645425 2.66389855 17.8645425 5.32741418 16.2626865 5.32818 16.2626865 7.99131273 14.6612293"></polygon>
                    <path d="M10.6563983,6.65222843 L7.99211684,5.04997366 L5.32821829,3.44851643 L2.66393684,1.84666043 L0.303302291,0.427440738 C0.168518291,0.346490585 3.82909091e-05,0.4473792 3.82909091e-05,0.609678277 L3.82909091e-05,3.44851643 L3.82909091e-05,6.65222843 L3.82909091e-05,6.65302597 L3.82909091e-05,9.85554166 L3.82909091e-05,9.8563392 L2.66317102,11.4573977 L2.66393684,11.4573977 L2.66393684,11.458594 L5.32745247,13.0592537 L5.32821829,13.0592537 L5.32821829,13.0600512 L7.99135102,14.6611097 L7.99211684,14.6611097 L7.99211684,14.6619072 L10.6556325,16.2629657 L10.6563983,16.2629657 L10.6563983,16.2637632 L13.319531,17.8644229 L13.3206797,17.8644229 L13.3206797,14.6619072 L13.3206797,14.6611097 L13.3206797,11.4573977 L13.3206797,8.25408443 L10.6563983,6.65222843 Z" id="Fill-11" fill="#FFFFFF" opacity="0.800000012"></path>
                </g>
            </g>
        </g>
    </g>
</svg>