<?xml version="1.0" encoding="utf-8"?>
<!-- Generator: Adobe Illustrator 23.0.1, SVG Export Plug-In . SVG Version: 6.00 Build 0)  -->
<svg version="1.1" id="图层_1" xmlns="http://www.w3.org/2000/svg" xmlns:xlink="http://www.w3.org/1999/xlink" x="0px" y="0px"
	 viewBox="0 0 22 22" style="enable-background:new 0 0 22 22;" xml:space="preserve">
<style type="text/css">
	.st0{fill-rule:evenodd;clip-rule:evenodd;fill:#4387FF;}
</style>
<desc>Created with Sketch.</desc>
<g>
	<g id="悬浮提示框--一字飘窗-copy" transform="translate(-1364.000000, -241.000000)">
		<g id="Page-1" transform="translate(1364.000000, 242.000000)">
			<g id="Clip-4">
			</g>
			<g id="Clip-7">
			</g>
		</g>
	</g>
</g>
<path class="st0" d="M19.6,6.5c-1-3.7-4.5-6.4-8.8-6.4C6.4,0,2.7,3,1.9,6.9C1.1,7.2,0.5,8,0.5,9v3.1c0,1.2,1,2.3,2.2,2.3
	s2.2-1,2.2-2.3V9c0-0.9-0.5-1.7-1.3-2.1c0.8-3,3.7-5.2,7.2-5.2c3.5,0,6.5,2.3,7.2,5.3c-0.5,0.4-0.8,1.1-0.8,1.8v3.1
	c0,0.8,0.4,1.5,0.9,1.9c-0.4,2.7-2.5,4.9-5.3,5.6c-0.2-0.6-0.8-1.1-1.5-1.1H8.5c-0.9,0-1.7,0.8-1.7,1.7v0.2c0,1,0.8,1.7,1.7,1.7h2.8
	c0.6,0,1.2-0.4,1.4-0.9c3.6-0.7,6.4-3.5,7-7c0.9-0.2,1.6-1.1,1.6-2.2V8.7C21.4,7.6,20.6,6.6,19.6,6.5z"/>
</svg>
