<?xml version="1.0" encoding="UTF-8"?>
<svg width="142px" height="106px" viewBox="0 0 142 106" version="1.1" xmlns="http://www.w3.org/2000/svg" xmlns:xlink="http://www.w3.org/1999/xlink">
    <!-- Generator: Sketch 52.2 (67145) - http://www.bohemiancoding.com/sketch -->
    <desc>Created with Sketch.</desc>
    <defs>
        <rect id="path-1" x="0" y="0" width="142" height="106" rx="4"></rect>
        <path d="M142,70 L0,70 L0,4 C-2.705415e-16,1.790861 1.790861,4.05812251e-16 4,0 L138,0 C140.209139,-4.05812251e-16 142,1.790861 142,4 L142,70 Z" id="path-3"></path>
        <polygon id="path-5" points="0 0.241142857 48.112 0.241142857 48.112 48.5116666 0 48.5116666"></polygon>
        <polygon id="path-7" points="0 0.888 18.5046154 0.888 18.5046154 20.0140566 0 20.0140566"></polygon>
    </defs>
    <g id="Page-1" stroke="none" stroke-width="1" fill="none" fill-rule="evenodd">
        <g id="分组-copy-6">
            <mask id="mask-2" fill="white">
                <use xlink:href="#path-1"></use>
            </mask>
            <rect stroke="#E2E8ED" stroke-width="0.5" x="0.25" y="0.25" width="141.5" height="105.5" rx="4"></rect>
            <g id="分组" mask="url(#mask-2)">
                <mask id="mask-4" fill="white">
                    <use xlink:href="#path-3"></use>
                </mask>
                <use id="Mask" fill="#434C5D" fill-rule="nonzero" xlink:href="#path-3"></use>
                <g opacity="0.128301711" mask="url(#mask-4)" fill-rule="nonzero">
                    <g transform="translate(-12.000000, 0.000000)">
                        <polygon id="三角形" fill="#C2C6CC" opacity="0.916201637" points="104.5 -4.54747351e-13 132 70 74 70"></polygon>
                        <polygon id="三角形-copy-2" fill="#C2C6CC" opacity="0.984095982" points="30.5 0 58 70 1.65556457e-12 70"></polygon>
                        <polygon id="三角形-copy" fill="#E2E8ED" opacity="0.596237909" points="65.5 0 93 70 35 70"></polygon>
                        <polygon id="三角形-copy-3" fill="#E2E8ED" opacity="0.596237909" points="140.5 0 168 70 110 70"></polygon>
                    </g>
                </g>
                <g id="分组-copy" opacity="0.27641369" mask="url(#mask-4)" fill-rule="nonzero">
                    <g transform="translate(72.000000, 35.000000) rotate(-180.000000) translate(-72.000000, -35.000000) translate(-12.000000, 0.000000)">
                        <polygon id="三角形" fill="#434C5D" opacity="0.478794643" points="104.5 -4.54747351e-13 132 70 74 70"></polygon>
                        <polygon id="三角形-copy-2" fill="#434C5D" opacity="0.478794643" points="30.5 0 58 70 1.65556457e-12 70"></polygon>
                        <polygon id="三角形-copy" fill="#C2C6CC" opacity="0.403645833" points="65.5 0 93 70 35 70"></polygon>
                        <polygon id="三角形-copy-3" fill="#C2C6CC" opacity="0.596237909" points="140.5 0 168 70 110 70"></polygon>
                    </g>
                </g>
                <text id="File" mask="url(#mask-4)" font-family="PingFangSC-Medium, PingFang SC" font-size="20" font-weight="400" fill="#FFFFFF">
                    <tspan x="71" y="43">File</tspan>
                </text>
                <g id="分组-copy-2" mask="url(#mask-4)">
                    <g transform="translate(-10.000000, -3.000000)">
                        <g id="分组" opacity="0.596842448" stroke-width="1" fill="none">
                            <mask id="mask-6" fill="white">
                                <use xlink:href="#path-5"></use>
                            </mask>
                            <g id="Clip-2"></g>
                            <path d="M25.166,0.243414286 C30.826,0.137414286 36.01,2.20062857 40.538,5.24055714 C49.686,11.3885571 50.71,23.1204857 42.734,30.6881286 C40.326,32.9747 37.534,34.9357 34.742,36.8134143 C31.762,38.8160571 29.578,41.2427 28.238,44.5022 C26.85,47.8752714 24.046,49.0829143 20.474,48.2652 C17.726,47.6329857 15.346,45.0019143 15.97,42.0149857 C16.538,39.2627714 17.818,36.3212714 19.718,34.2202 C22.458,31.1916286 26.098,28.9012714 29.258,26.1907 C31.466,24.2978429 33.094,22.0339857 33.03,19.0243429 C32.958,15.5982714 31.17,13.1640571 27.878,11.9904857 C23.858,10.5557 18.59,11.3090571 16.286,13.9666286 C14.858,15.6134143 14.094,17.7750571 12.674,19.4332 C11.362,20.9626286 9.782,22.8062714 7.95,23.3097714 C2.946,24.6877714 -0.69,21.3752714 0.11,16.4576286 C1.402,8.57198571 7.226,4.47962857 14.538,2.08705714 C17.902,0.9892 21.562,0.311557143 25.166,0.243414286" id="Fill-1" fill="#232830" opacity="0.697056362" style="mix-blend-mode: darken;" mask="url(#mask-6)"></path>
                        </g>
                        <path d="M15,62.4641753 C15,58.485164 18.5855169,55.0602394 22.8215037,55.0007401 C27.1407824,54.9412409 31.0118715,58.4777266 30.9999726,62.4753314 C30.9920401,66.4320305 27.0059289,70.0912333 22.8056386,69.9982658 C18.6410448,69.9052982 15,66.3948434 15,62.4641753" id="Fill-3" fill="#232830" opacity="0.50327846" style="mix-blend-mode: darken;"></path>
                    </g>
                </g>
            </g>
            <g id="分组" mask="url(#mask-2)">
                <g transform="translate(27.000000, 21.000000)">
                    <g id="分组" stroke-width="1" fill="none" transform="translate(0.000000, 0.612600)">
                        <mask id="mask-8" fill="white">
                            <use xlink:href="#path-7"></use>
                        </mask>
                        <g id="Clip-2"></g>
                        <path d="M9.67923077,0.8889 C11.8561538,0.8469 13.85,1.6644 15.5915385,2.8689 C19.11,5.3049 19.5038462,9.9534 16.4361538,12.9519 C15.51,13.8579 14.4361538,14.6349 13.3623077,15.3789 C12.2161538,16.1724 11.3761538,17.1339 10.8607692,18.4254 C10.3269231,19.7619 9.24846154,20.2404 7.87461538,19.9164 C6.81769231,19.6659 5.90230769,18.6234 6.14230769,17.4399 C6.36076923,16.3494 6.85307692,15.1839 7.58384615,14.3514 C8.63769231,13.1514 10.0376923,12.2439 11.2530769,11.1699 C12.1023077,10.4199 12.7284615,9.5229 12.7038462,8.3304 C12.6761538,6.9729 11.9884615,6.0084 10.7223077,5.5434 C9.17615385,4.9749 7.15,5.2734 6.26384615,6.3264 C5.71461538,6.9789 5.42076923,7.8354 4.87461538,8.4924 C4.37,9.0984 3.76230769,9.8289 3.05769231,10.0284 C1.13307692,10.5744 -0.265384615,9.2619 0.0423076923,7.3134 C0.539230769,4.1889 2.77923077,2.5674 5.59153846,1.6194 C6.88538462,1.1844 8.29307692,0.9159 9.67923077,0.8889" id="Fill-1" fill="#FFFFFF" mask="url(#mask-8)"></path>
                    </g>
                    <path d="M5.56261538,26.0727 C5.56261538,24.4677 6.95338462,23.0862 8.59646154,23.0622 C10.2718462,23.0382 11.7733846,24.4647 11.7687692,26.0772 C11.7656923,27.6732 10.2195385,29.1492 8.59030769,29.1117 C6.97492308,29.0742 5.56261538,27.6582 5.56261538,26.0727" id="Fill-3" fill="#FFFFFF"></path>
                </g>
            </g>
        </g>
    </g>
</svg>