<svg xmlns="http://www.w3.org/2000/svg" viewBox="0 0 64 64"><defs><style>.cls-1{fill:#666;}</style></defs><title>画板 1 副本 5</title><g id="单开门"><path class="cls-1" d="M62,35H58a1,1,0,0,0-1,1V13.5a.5.5,0,0,0-.5-.5h-2a.48.48,0,0,0-.24.07A24.047,24.047,0,0,0,32.5,32.119,24.047,24.047,0,0,0,10.74,13.07.48.48,0,0,0,10.5,13h-2a.5.5,0,0,0-.5.5V36a1,1,0,0,0-1-1H3a1,1,0,0,0-1,1v8a1,1,0,0,0,1,1H7a1,1,0,0,0,1-1V37.5a.5.5,0,0,0,.5.5h2a.5.5,0,0,0,.5-.5V14.092A23.028,23.028,0,0,1,32,37a.5.5,0,0,0,1,0A23.028,23.028,0,0,1,54,14.092V37.5a.5.5,0,0,0,.5.5h2a.5.5,0,0,0,.5-.5V44a1,1,0,0,0,1,1h4a1,1,0,0,0,1-1V36A1,1,0,0,0,62,35ZM7,44H3V36H7Zm3-7H9V14c.335,0,.668.011,1,.025Zm46,0H55V14.025c.332-.014.665-.025,1-.025Zm6,7H58V36h4Z"/></g></svg>