<svg xmlns="http://www.w3.org/2000/svg" viewBox="0 0 64 64"><defs><style>.cls-1{fill:#666;}</style></defs><title>画板 1 副本 12</title><g id="单开门"><path class="cls-1" d="M57.5,5H5.5A1.5,1.5,0,0,0,4,6.5v52A1.5,1.5,0,0,0,5.5,60h52A1.5,1.5,0,0,0,59,58.5V6.5A1.5,1.5,0,0,0,57.5,5ZM58,58.5a.5.5,0,0,1-.5.5H5.5a.5.5,0,0,1-.5-.5V6.5A.5.5,0,0,1,5.5,6h52a.5.5,0,0,1,.5.5Z"/><path class="cls-1" d="M55.3,8.234a.479.479,0,0,0-.154-.083A1.476,1.476,0,0,0,54.5,8H8.5A1.5,1.5,0,0,0,7,9.5v46A1.5,1.5,0,0,0,8.5,57h46A1.5,1.5,0,0,0,56,55.5V9.5A1.5,1.5,0,0,0,55.3,8.234ZM8.5,9H52.475L19.424,21c-.5.043-.746.78-4.734,13.49C12.4,41.8,9.6,50.715,8,54.962V9.5A.5.5,0,0,1,8.5,9ZM55,55.5a.5.5,0,0,1-.5.5H8.672c1.549-3.924,4.423-13.08,6.973-21.208,1.837-5.857,3.735-11.907,4.194-12.876L54.882,9.189A.492.492,0,0,1,55,9.5Z"/></g></svg>