<svg xmlns="http://www.w3.org/2000/svg" viewBox="0 0 64 64"><defs><style>.cls-1{fill:#666;}</style></defs><title>画板 1 副本 3</title><g id="单开门"><path class="cls-1" d="M53,51.092V11a1,1,0,0,0-1-1H11.908a1.5,1.5,0,1,0-1.661,1.975V52a1,1,0,0,0,1,1H51.092A1.5,1.5,0,1,0,53,51.092Zm-1,0a1.5,1.5,0,0,0-.908.908H11.247V11.794A1.5,1.5,0,0,0,11.908,11H52Z"/><path class="cls-1" d="M5.5,41.929a.5.5,0,0,0-.5.5v1.5a.5.5,0,0,0,1,0v-1.5A.5.5,0,0,0,5.5,41.929Z"/><path class="cls-1" d="M5.5,38.929a.5.5,0,0,0-.5.5v1.5a.5.5,0,0,0,1,0v-1.5A.5.5,0,0,0,5.5,38.929Z"/><path class="cls-1" d="M5.5,35.929a.5.5,0,0,0-.5.5v1.5a.5.5,0,0,0,1,0v-1.5A.5.5,0,0,0,5.5,35.929Z"/><path class="cls-1" d="M5.5,44.929a.5.5,0,0,0-.5.5v1.5a.5.5,0,0,0,1,0v-1.5A.5.5,0,0,0,5.5,44.929Z"/><path class="cls-1" d="M5.5,32.929a.5.5,0,0,0-.5.5v1.5a.5.5,0,0,0,1,0v-1.5A.5.5,0,0,0,5.5,32.929Z"/><path class="cls-1" d="M5.5,53.929a.5.5,0,0,0-.5.5v1.5a.5.5,0,0,0,1,0v-1.5A.5.5,0,0,0,5.5,53.929Z"/><path class="cls-1" d="M5.5,50.929a.5.5,0,0,0-.5.5v1.5a.5.5,0,0,0,1,0v-1.5A.5.5,0,0,0,5.5,50.929Z"/><path class="cls-1" d="M5.5,47.929a.5.5,0,0,0-.5.5v1.5a.5.5,0,0,0,1,0v-1.5A.5.5,0,0,0,5.5,47.929Z"/><path class="cls-1" d="M5.5,26.929a.5.5,0,0,0-.5.5v1.5a.5.5,0,1,0,1,0v-1.5A.5.5,0,0,0,5.5,26.929Z"/><path class="cls-1" d="M5.5,14.929a.5.5,0,0,0-.5.5v1.5a.5.5,0,0,0,1,0v-1.5A.5.5,0,0,0,5.5,14.929Z"/><path class="cls-1" d="M5.5,17.929a.5.5,0,0,0-.5.5v1.5a.5.5,0,0,0,1,0v-1.5A.5.5,0,0,0,5.5,17.929Z"/><path class="cls-1" d="M5.5,29.929a.5.5,0,0,0-.5.5v1.5a.5.5,0,1,0,1,0v-1.5A.5.5,0,0,0,5.5,29.929Z"/><path class="cls-1" d="M5.5,8.929a.5.5,0,0,0-.5.5v1.5a.5.5,0,1,0,1,0v-1.5A.5.5,0,0,0,5.5,8.929Z"/><path class="cls-1" d="M5.5,11.929a.5.5,0,0,0-.5.5v1.5a.5.5,0,1,0,1,0v-1.5A.5.5,0,0,0,5.5,11.929Z"/><path class="cls-1" d="M58.9,5.569h0l0,0v0h0v0h0v0h0v0h0v0h0l0,0h0c-.01-.019-.021-.038-.032-.056a.509.509,0,0,1,.053.117.535.535,0,0,1,.051.114A1.159,1.159,0,0,0,58.9,5.569Z"/><path class="cls-1" d="M5.5,23.929a.5.5,0,0,0-.5.5v1.5a.5.5,0,0,0,1,0v-1.5A.5.5,0,0,0,5.5,23.929Z"/><path class="cls-1" d="M5.5,20.929a.5.5,0,0,0-.5.5v1.5a.5.5,0,0,0,1,0v-1.5A.5.5,0,0,0,5.5,20.929Z"/><path class="cls-1" d="M14.5,6H16a.5.5,0,0,0,0-1H14.5a.5.5,0,0,0,0,1Z"/><path class="cls-1" d="M38.5,6H40a.5.5,0,0,0,0-1H38.5a.5.5,0,0,0,0,1Z"/><path class="cls-1" d="M41.5,6H43a.5.5,0,0,0,0-1H41.5a.5.5,0,0,0,0,1Z"/><path class="cls-1" d="M5.5,5.929a.5.5,0,0,0-.5.5v1.5a.5.5,0,0,0,1,0v-1.5A.5.5,0,0,0,5.5,5.929Z"/><path class="cls-1" d="M32.5,6H34a.5.5,0,0,0,0-1H32.5a.5.5,0,0,0,0,1Z"/><path class="cls-1" d="M47.5,6H49a.5.5,0,0,0,0-1H47.5a.5.5,0,0,0,0,1Z"/><path class="cls-1" d="M44.5,6H46a.5.5,0,0,0,0-1H44.5a.5.5,0,0,0,0,1Z"/><path class="cls-1" d="M50.5,6H52a.5.5,0,0,0,0-1H50.5a.5.5,0,0,0,0,1Z"/><path class="cls-1" d="M29.5,6H31a.5.5,0,0,0,0-1H29.5a.5.5,0,0,0,0,1Z"/><path class="cls-1" d="M35.5,6H37a.5.5,0,0,0,0-1H35.5a.5.5,0,0,0,0,1Z"/><path class="cls-1" d="M11.5,6H13a.5.5,0,0,0,0-1H11.5a.5.5,0,0,0,0,1Z"/><path class="cls-1" d="M53.5,6H55a.5.5,0,0,0,0-1H53.5a.5.5,0,0,0,0,1Z"/><path class="cls-1" d="M8.5,6H10a.5.5,0,0,0,0-1H8.5a.5.5,0,0,0,0,1Z"/><path class="cls-1" d="M26.5,6H28a.5.5,0,0,0,0-1H26.5a.5.5,0,0,0,0,1Z"/><path class="cls-1" d="M5.5,56.929a.5.5,0,0,0-.5.5V58a.5.5,0,0,0,1,0v-.571A.5.5,0,0,0,5.5,56.929Z"/><path class="cls-1" d="M17.5,6H19a.5.5,0,0,0,0-1H17.5a.5.5,0,0,0,0,1Z"/><path class="cls-1" d="M23.5,6H25a.5.5,0,0,0,0-1H23.5a.5.5,0,0,0,0,1Z"/><path class="cls-1" d="M20.5,6H22a.5.5,0,0,0,0-1H20.5a.5.5,0,0,0,0,1Z"/><path class="cls-1" d="M56.5,6H58a.5.5,0,0,0,.427.239.493.493,0,0,0,.26-.073.5.5,0,0,0,.219-.57.5.5,0,0,0-.426-.239h0A.5.5,0,0,0,58,5H56.5a.5.5,0,0,0,0,1Z"/><path class="cls-1" d="M58.5,42.713a.5.5,0,0,0-.5.5v1.5a.5.5,0,0,0,1,0v-1.5A.5.5,0,0,0,58.5,42.713Z"/><path class="cls-1" d="M58.5,39.713a.5.5,0,0,0-.5.5v1.5a.5.5,0,0,0,1,0v-1.5A.5.5,0,0,0,58.5,39.713Z"/><path class="cls-1" d="M58.5,30.713a.5.5,0,0,0-.5.5v1.5a.5.5,0,0,0,1,0v-1.5A.5.5,0,0,0,58.5,30.713Z"/><path class="cls-1" d="M7.5,5.5A.5.5,0,0,0,7,5H6A.5.5,0,0,0,6,6H7A.5.5,0,0,0,7.5,5.5Z"/><path class="cls-1" d="M58.5,36.713a.5.5,0,0,0-.5.5v1.5a.5.5,0,0,0,1,0v-1.5A.5.5,0,0,0,58.5,36.713Z"/><path class="cls-1" d="M58.5,51.713a.5.5,0,0,0-.5.5v1.5a.5.5,0,0,0,1,0v-1.5A.5.5,0,0,0,58.5,51.713Z"/><path class="cls-1" d="M58.5,45.713a.5.5,0,0,0-.5.5v1.5a.5.5,0,0,0,1,0v-1.5A.5.5,0,0,0,58.5,45.713Z"/><path class="cls-1" d="M58.5,54.713a.5.5,0,0,0-.5.5v1.5a.5.5,0,0,0,1,0v-1.5A.5.5,0,0,0,58.5,54.713Z"/><path class="cls-1" d="M58,58h-.142a.5.5,0,0,0,0,1H58a.5.5,0,0,0,0-1Z"/><path class="cls-1" d="M58.5,48.713a.5.5,0,0,0-.5.5v1.5a.5.5,0,0,0,1,0v-1.5A.5.5,0,0,0,58.5,48.713Z"/><path class="cls-1" d="M58.5,15.713a.5.5,0,0,0-.5.5v1.5a.5.5,0,0,0,1,0v-1.5A.5.5,0,0,0,58.5,15.713Z"/><path class="cls-1" d="M58.5,27.713a.5.5,0,0,0-.5.5v1.5a.5.5,0,0,0,1,0v-1.5A.5.5,0,0,0,58.5,27.713Z"/><path class="cls-1" d="M58.5,12.713a.5.5,0,0,0-.5.5v1.5a.5.5,0,0,0,1,0v-1.5A.5.5,0,0,0,58.5,12.713Z"/><path class="cls-1" d="M58.5,6.713a.5.5,0,0,0-.5.5v1.5a.5.5,0,0,0,1,0v-1.5A.5.5,0,0,0,58.5,6.713Z"/><path class="cls-1" d="M58.5,9.713a.5.5,0,0,0-.5.5v1.5a.5.5,0,0,0,1,0v-1.5A.5.5,0,0,0,58.5,9.713Z"/><path class="cls-1" d="M58.5,24.713a.5.5,0,0,0-.5.5v1.5a.5.5,0,0,0,1,0v-1.5A.5.5,0,0,0,58.5,24.713Z"/><path class="cls-1" d="M58.5,21.713a.5.5,0,0,0-.5.5v1.5a.5.5,0,0,0,1,0v-1.5A.5.5,0,0,0,58.5,21.713Z"/><path class="cls-1" d="M58.5,18.713a.5.5,0,0,0-.5.5v1.5a.5.5,0,0,0,1,0v-1.5A.5.5,0,0,0,58.5,18.713Z"/><path class="cls-1" d="M58.5,33.713a.5.5,0,0,0-.5.5v1.5a.5.5,0,0,0,1,0v-1.5A.5.5,0,0,0,58.5,33.713Z"/><path class="cls-1" d="M23.358,58h-1.5a.5.5,0,0,0,0,1h1.5a.5.5,0,1,0,0-1Z"/><path class="cls-1" d="M17.358,58h-1.5a.5.5,0,0,0,0,1h1.5a.5.5,0,1,0,0-1Z"/><path class="cls-1" d="M20.358,58h-1.5a.5.5,0,0,0,0,1h1.5a.5.5,0,1,0,0-1Z"/><path class="cls-1" d="M26.358,58h-1.5a.5.5,0,0,0,0,1h1.5a.5.5,0,1,0,0-1Z"/><path class="cls-1" d="M14.358,58h-1.5a.5.5,0,0,0,0,1h1.5a.5.5,0,1,0,0-1Z"/><path class="cls-1" d="M8.358,58h-1.5a.5.5,0,0,0,0,1h1.5a.5.5,0,1,0,0-1Z"/><path class="cls-1" d="M56.358,58h-1.5a.5.5,0,0,0,0,1h1.5a.5.5,0,1,0,0-1Z"/><path class="cls-1" d="M29.358,58h-1.5a.5.5,0,0,0,0,1h1.5a.5.5,0,1,0,0-1Z"/><path class="cls-1" d="M11.358,58h-1.5a.5.5,0,0,0,0,1h1.5a.5.5,0,1,0,0-1Z"/><path class="cls-1" d="M32.358,58h-1.5a.5.5,0,0,0,0,1h1.5a.5.5,0,1,0,0-1Z"/><path class="cls-1" d="M47.358,58h-1.5a.5.5,0,0,0,0,1h1.5a.5.5,0,1,0,0-1Z"/><path class="cls-1" d="M53.358,58h-1.5a.5.5,0,0,0,0,1h1.5a.5.5,0,1,0,0-1Z"/><path class="cls-1" d="M44.358,58h-1.5a.5.5,0,0,0,0,1h1.5a.5.5,0,1,0,0-1Z"/><path class="cls-1" d="M50.358,58h-1.5a.5.5,0,0,0,0,1h1.5a.5.5,0,1,0,0-1Z"/><path class="cls-1" d="M35.358,58h-1.5a.5.5,0,0,0,0,1h1.5a.5.5,0,1,0,0-1Z"/><path class="cls-1" d="M38.358,58h-1.5a.5.5,0,0,0,0,1h1.5a.5.5,0,1,0,0-1Z"/><path class="cls-1" d="M41.358,58h-1.5a.5.5,0,0,0,0,1h1.5a.5.5,0,1,0,0-1Z"/></g></svg>