<svg xmlns="http://www.w3.org/2000/svg" viewBox="0 0 64 64"><defs><style>.cls-1{fill:#666;}</style></defs><title>画板 1 副本 10</title><g id="单开门"><path class="cls-1" d="M61,27H50a.975.975,0,0,0-.6.219A.492.492,0,0,0,49,27H47.5a.5.5,0,0,0,0,1H49v2H15V28h1a.5.5,0,0,0,0-1H14.5a.5.5,0,0,0-.22.056A1.009,1.009,0,0,0,14,27H3a1,1,0,0,0-1,1v8a1,1,0,0,0,1,1H14a1,1,0,0,0,1-1V34H49v2a.5.5,0,0,0,0,1H61a1,1,0,0,0,1-1V28A1,1,0,0,0,61,27ZM14,36H3V28H14Zm1-3V31H49v2Zm46,3H50V28H61Z"/><path class="cls-1" d="M20.5,36H19a.5.5,0,0,0,0,1h1.5a.5.5,0,0,0,0-1Z"/><path class="cls-1" d="M23.5,36H22a.5.5,0,0,0,0,1h1.5a.5.5,0,0,0,0-1Z"/><path class="cls-1" d="M26.5,36H25a.5.5,0,0,0,0,1h1.5a.5.5,0,0,0,0-1Z"/><path class="cls-1" d="M17.5,36H16a.5.5,0,0,0,0,1h1.5a.5.5,0,0,0,0-1Z"/><path class="cls-1" d="M29.5,36H28a.5.5,0,0,0,0,1h1.5a.5.5,0,0,0,0-1Z"/><path class="cls-1" d="M44.5,36H43a.5.5,0,0,0,0,1h1.5a.5.5,0,0,0,0-1Z"/><path class="cls-1" d="M41.5,36H40a.5.5,0,0,0,0,1h1.5a.5.5,0,0,0,0-1Z"/><path class="cls-1" d="M47.5,36H46a.5.5,0,0,0,0,1h1.5a.5.5,0,0,0,0-1Z"/><path class="cls-1" d="M35.5,36H34a.5.5,0,0,0,0,1h1.5a.5.5,0,0,0,0-1Z"/><path class="cls-1" d="M38.5,36H37a.5.5,0,0,0,0,1h1.5a.5.5,0,0,0,0-1Z"/><path class="cls-1" d="M32.5,36H31a.5.5,0,0,0,0,1h1.5a.5.5,0,0,0,0-1Z"/><path class="cls-1" d="M44.5,28H46a.5.5,0,0,0,0-1H44.5a.5.5,0,0,0,0,1Z"/><path class="cls-1" d="M35.5,28H37a.5.5,0,0,0,0-1H35.5a.5.5,0,0,0,0,1Z"/><path class="cls-1" d="M38.5,28H40a.5.5,0,0,0,0-1H38.5a.5.5,0,0,0,0,1Z"/><path class="cls-1" d="M32.5,28H34a.5.5,0,0,0,0-1H32.5a.5.5,0,0,0,0,1Z"/><path class="cls-1" d="M41.5,28H43a.5.5,0,0,0,0-1H41.5a.5.5,0,0,0,0,1Z"/><path class="cls-1" d="M17.5,28H19a.5.5,0,0,0,0-1H17.5a.5.5,0,0,0,0,1Z"/><path class="cls-1" d="M29.5,28H31a.5.5,0,0,0,0-1H29.5a.5.5,0,0,0,0,1Z"/><path class="cls-1" d="M20.5,28H22a.5.5,0,0,0,0-1H20.5a.5.5,0,0,0,0,1Z"/><path class="cls-1" d="M23.5,28H25a.5.5,0,0,0,0-1H23.5a.5.5,0,0,0,0,1Z"/><path class="cls-1" d="M26.5,28H28a.5.5,0,0,0,0-1H26.5a.5.5,0,0,0,0,1Z"/></g></svg>