<svg xmlns="http://www.w3.org/2000/svg" viewBox="0 0 64 64"><defs><style>.cls-1{fill:#666;}</style></defs><title>画板 1 副本 9</title><g id="单开门"><path class="cls-1" d="M61,37H56V18.5A1.5,1.5,0,0,0,54.5,17H9.5A1.5,1.5,0,0,0,8,18.5V37H3a1,1,0,0,0-1,1v8a1,1,0,0,0,1,1H61a1,1,0,0,0,1-1V38A1,1,0,0,0,61,37ZM9,18.5a.5.5,0,0,1,.5-.5h45a.5.5,0,0,1,.5.5V37H53V21.5A1.5,1.5,0,0,0,51.5,20h-39A1.5,1.5,0,0,0,11,21.5V37H9ZM48.5,23h-33A1.5,1.5,0,0,0,14,24.5V37H12V21.5a.5.5,0,0,1,.5-.5h39a.5.5,0,0,1,.5.5V37H50V24.5A1.5,1.5,0,0,0,48.5,23Zm-36,23H3V38H14v8ZM15,46V24.5a.5.5,0,0,1,.5-.5h33a.5.5,0,0,1,.5.5V46Zm46,0H50V38H61Z"/></g></svg>