<?xml version="1.0" encoding="utf-8"?>
<!-- Generator: Adobe Illustrator 22.0.0, SVG Export Plug-In . SVG Version: 6.00 Build 0)  -->
<svg version="1.1" id="图层_1" xmlns="http://www.w3.org/2000/svg" xmlns:xlink="http://www.w3.org/1999/xlink" x="0px" y="0px"
	 viewBox="0 0 64 64" style="enable-background:new 0 0 64 64;" xml:space="preserve">
<style type="text/css">
	.st0{fill:#666666;}
</style>
<title></title>
<g>
	<path class="st0" d="M49.9,39.4"/>
	<path class="st0" d="M49.9,40h-3.1v-1.2h3.1V40z M45.1,40H42v-1.2h3.1V40z M40.4,40h-3.1v-1.2h3.1V40z M35.7,40h-3.1v-1.2h3.1V40z
		 M31,40h-3.1v-1.2H31V40z M26.2,40h-3.1v-1.2h3.1V40z M21.5,40h-3.1v-1.2h3.1V40z M16.8,40h-3.1l1-1.2h2.1V40z M49.8,31.2h-3.1V30
		h3.1V31.2z M45.1,31.2H42V30h3.1V31.2z M40.4,31.2h-3.1V30h3.1V31.2z M35.6,31.2h-3.1V30h3.1V31.2z M30.9,31.2h-3.1V30h3.1V31.2z
		 M26.2,31.2h-3.1V30h3.1V31.2z M21.5,31.2h-3.1V30h3.1V31.2z M16.7,31.2h-2.5L13.7,30h3.1V31.2z"/>
</g>
<g id="单开门">
	<path class="st0" d="M49,39c0,0.6,0.4,1,1,1h11c0.6,0,1-0.4,1-1v-8c0-0.6-0.4-1-1-1H50c-0.6,0-1,0.4-1,1v4 M15,32v-1
		c0-0.6-0.4-1-1-1H3c-0.6,0-1,0.4-1,1v8c0,0.6,0.4,1,1,1h11c0.6,0,1-0.4,1-1v-3 M14,39H3v-8h11V39z M15,35v-2 M49,36v2 M61,39H50v-8
		h11V39z"/>
</g>
</svg>
