<svg xmlns="http://www.w3.org/2000/svg" viewBox="0 0 64 64"><g><path d="m57.877358,11.037734l-52,0a1.5,1.129503 0 0 0 -1.5,1.129503l0,39.156091a1.5,1.129503 0 0 0 1.5,1.129503l52,0a1.5,1.129503 0 0 0 1.5,-1.129503l0,-39.156091a1.5,1.129503 0 0 0 -1.5,-1.129503zm0.5,40.285594a0.5,0.376501 0 0 1 -0.5,0.376501l-52,0a0.5,0.376501 0 0 1 -0.5,-0.376501l0,-39.156091a0.5,0.376501 0 0 1 0.5,-0.376501l52,0a0.5,0.376501 0 0 1 0.5,0.376501l0,39.156091z"/><path d="m55.677358,13.472942a0.479,0.360688 0 0 0 -0.154,-0.062499a1.476,1.111431 0 0 0 -0.646,-0.113703l-46,0a1.5,1.129503 0 0 0 -1.5,1.129503l0,34.638081a1.5,1.129503 0 0 0 1.5,1.129503l46,0a1.5,1.129503 0 0 0 1.5,-1.129503l0,-34.638081a1.5,1.129503 0 0 0 -0.7,-0.9533zm-46.8,0.576799l43.975,0l-33.051,9.036021c-0.5,0.032379 -0.746,0.587341 -4.734,10.157994c-2.29,5.504443 -5.09,12.217453 -6.69,15.415452l0,-34.232966a0.5,0.376501 0 0 1 0.5,-0.376501zm46.5,35.014582a0.5,0.376501 0 0 1 -0.5,0.376501l-45.828,0c1.549,-2.954779 4.423,-9.849263 6.973,-15.969661c1.837,-4.410331 3.735,-8.965992 4.194,-9.695651l35.043,-9.583453a0.492,0.370477 0 0 1 0.118,0.234184l0,34.638081z"/></g></svg>