<svg id="图层_1" data-name="图层 1" xmlns="http://www.w3.org/2000/svg" viewBox="0 0 24 24">
<defs><style>.cls-1{fill:#808fa3;fill-rule:evenodd;}</style></defs>
<title></title>
<g id="Page-1"><g id="社区"><g id="navigation">
<path id="Fill-1" class="cls-1" d="M16.89,6.18l2.17-2.3a.38.38,0,0,0-.27-.64H8.12a.36.36,0,0,0-.26.11L5.56,5.66a.37.37,0,0,0,.26.64h10.8a.36.36,0,0,0,.27-.12"/>
<path id="Fill-3" class="cls-1" d="M18.13,7.77v9.94a.38.38,0,0,0,.68.23l2.07-2.59a.36.36,0,0,0,.09-.24V5.57a.38.38,0,0,0-.66-.26l-2.07,2.2a.36.36,0,0,0-.11.26"/>
<path id="Fill-5" class="cls-1" d="M14.35,8.19H5.85A1.89,1.89,0,0,0,4,10.08v8.28a1.88,1.88,0,0,0,1.88,1.88h8.5a1.88,1.88,0,0,0,1.89-1.88V10.08a1.89,1.89,0,0,0-1.89-1.89"/></g></g></g></svg>