<?xml version="1.0" encoding="UTF-8"?>
<svg width="21px" height="22px" viewBox="0 0 21 22" version="1.1" xmlns="http://www.w3.org/2000/svg" xmlns:xlink="http://www.w3.org/1999/xlink">
    <!-- Generator: Sketch 52.4 (67378) - http://www.bohemiancoding.com/sketch -->
    <desc>Created with Sketch.</desc>
    <defs>
        <linearGradient x1="63.5004851%" y1="15.3494657%" x2="36.8656391%" y2="100%" id="linearGradient-1">
            <stop stop-color="#56E7FF" offset="0%"></stop>
            <stop stop-color="#1591FF" offset="100%"></stop>
        </linearGradient>
    </defs>
    <g id="Page-1" stroke="none" stroke-width="1" fill="none" fill-rule="evenodd">
        <g id="教学视频首页" transform="translate(-107.000000, -2268.000000)" fill="url(#linearGradient-1)">
            <g id="猜你喜欢" transform="translate(100.000000, 2254.000000)">
                <path d="M9.76315789,31.6 C8.24342105,31.6 7,30.3625 7,28.85 L7,24.45 C7,22.9375 8.24342105,21.7 9.76315789,21.7 C11.2828947,21.7 12.5263158,22.9375 12.5263158,24.45 L12.5263158,28.85 C12.5263158,30.3625 11.2828947,31.6 9.76315789,31.6 Z M17.5,31.6 C15.9802632,31.6 14.7368421,30.3625 14.7368421,28.85 L14.7368421,21.15 C14.7368421,19.6375 15.9802632,18.4 17.5,18.4 C19.0197368,18.4 20.2631579,19.6375 20.2631579,21.15 L20.2631579,28.85 C20.2631579,30.3625 19.0197368,31.6 17.5,31.6 Z M25.2368421,31.6 C23.7171053,31.6 22.4736842,30.3625 22.4736842,28.85 L22.4736842,16.75 C22.4736842,15.2375 23.7171053,14 25.2368421,14 C26.7565789,14 28,15.2375 28,16.75 L28,28.85 C28,30.3625 26.7565789,31.6 25.2368421,31.6 Z M26.8947368,36 L8.10526316,36 C7.49736842,36 7,35.505 7,34.9 C7,34.295 7.49736842,33.8 8.10526316,33.8 L26.8947368,33.8 C27.5026316,33.8 28,34.295 28,34.9 C28,35.505 27.5026316,36 26.8947368,36 Z" id="合并形状"></path>
            </g>
        </g>
    </g>
</svg>