<?xml version="1.0" encoding="UTF-8"?>
<svg width="20px" height="20px" viewBox="0 0 20 20" version="1.1" xmlns="http://www.w3.org/2000/svg" xmlns:xlink="http://www.w3.org/1999/xlink">
    <!-- Generator: Sketch 51.2 (57519) - http://www.bohemiancoding.com/sketch -->
    <title></title>
    <desc>Created with Sketch.</desc>
    <defs></defs>
    <g id="Page-1" stroke="none" stroke-width="1" fill="none" fill-rule="evenodd">
        <g id="设计案例" transform="translate(-161.000000, -894.000000)">
            <g id="筛选项" transform="translate(90.000000, 714.000000)">
                <g id="面积" transform="translate(71.000000, 180.000000)">
                    <g id="Group-12" transform="translate(2.000000, 2.000000)" fill="#4387FF">
                        <path d="M3,2 C2.449,2 2,2.449 2,3 L2,13 C2,13.551 2.449,14 3,14 L13,14 C13.551,14 14,13.551 14,13 L14,3 C14,2.449 13.551,2 13,2 L3,2 Z M13,16 L3,16 C1.346,16 0,14.654 0,13 L0,3 C0,1.346 1.346,0 3,0 L13,0 C14.654,0 16,1.346 16,3 L16,13 C16,14.654 14.654,16 13,16 Z" id="Fill-1"></path>
                        <path d="M5,12 C4.744,12 4.488,11.902 4.293,11.707 C3.902,11.316 3.902,10.684 4.293,10.293 L10.293,4.293 C10.684,3.902 11.316,3.902 11.707,4.293 C12.098,4.684 12.098,5.316 11.707,5.707 L5.707,11.707 C5.512,11.902 5.256,12 5,12" id="Fill-3"></path>
                    </g>
                    <g id="Group-11" transform="translate(1.000000, 1.000000)" fill="#74D3FF">
                        <path d="M18.1557667,4.23550588 L15.6224333,4.23550588 C15.1579889,4.23550588 14.7779889,3.85432941 14.7779889,3.38844706 L14.7779889,0.847270588 C14.7779889,0.381388235 15.1579889,0.000211764706 15.6224333,0.000211764706 L18.1557667,0.000211764706 C18.6202111,0.000211764706 19.0002111,0.381388235 19.0002111,0.847270588 L19.0002111,3.38844706 C19.0002111,3.85432941 18.6202111,4.23550588 18.1557667,4.23550588" id="Fill-5"></path>
                        <path d="M18.1557667,17.9444118 L15.6224333,17.9444118 C15.1579889,17.9444118 14.7779889,17.5632353 14.7779889,17.0973529 L14.7779889,14.5561765 C14.7779889,14.0902941 15.1579889,13.7091176 15.6224333,13.7091176 L18.1557667,13.7091176 C18.6202111,13.7091176 19.0002111,14.0902941 19.0002111,14.5561765 L19.0002111,17.0973529 C19.0002111,17.5632353 18.6202111,17.9444118 18.1557667,17.9444118" id="Fill-8"></path>
                        <path d="M3.37798889,4.23550588 L0.844655556,4.23550588 C0.380211111,4.23550588 0.000211111111,3.85432941 0.000211111111,3.38844706 L0.000211111111,0.847270588 C0.000211111111,0.381388235 0.380211111,0.000211764706 0.844655556,0.000211764706 L3.37798889,0.000211764706 C3.84243333,0.000211764706 4.22243333,0.381388235 4.22243333,0.847270588 L4.22243333,3.38844706 C4.22243333,3.85432941 3.84243333,4.23550588 3.37798889,4.23550588" id="Fill-1"></path>
                        <path d="M3.37798889,17.9444118 L0.844655556,17.9444118 C0.380211111,17.9444118 0.000211111111,17.5632353 0.000211111111,17.0973529 L0.000211111111,14.5561765 C0.000211111111,14.0902941 0.380211111,13.7091176 0.844655556,13.7091176 L3.37798889,13.7091176 C3.84243333,13.7091176 4.22243333,14.0902941 4.22243333,14.5561765 L4.22243333,17.0973529 C4.22243333,17.5632353 3.84243333,17.9444118 3.37798889,17.9444118" id="Fill-3"></path>
                    </g>
                    <g id="Group-6" fill="#4387FF">
                        <path d="M2.1,4.21084211 L4.2,4.21084211 L4.2,2.10557895 L2.1,2.10557895 L2.1,4.21084211 Z M4.41,6.31610526 L1.89,6.31610526 C0.8484,6.31610526 0,5.46557895 0,4.42031579 L0,1.89505263 C0,0.849789474 0.8484,0.000315789474 1.89,0.000315789474 L4.41,0.000315789474 C5.4516,0.000315789474 6.3,0.849789474 6.3,1.89505263 L6.3,4.42031579 C6.3,5.46557895 5.4516,6.31610526 4.41,6.31610526 Z" id="Fill-1"></path>
                        <path d="M2.1,17.8392632 L4.2,17.8392632 L4.2,15.734 L2.1,15.734 L2.1,17.8392632 Z M4.41,19.9445263 L1.89,19.9445263 C0.8484,19.9445263 0,19.094 0,18.0497895 L0,15.5234737 C0,14.4792632 0.8484,13.6287368 1.89,13.6287368 L4.41,13.6287368 C5.4516,13.6287368 6.3,14.4792632 6.3,15.5234737 L6.3,18.0497895 C6.3,19.094 5.4516,19.9445263 4.41,19.9445263 Z" id="Fill-3"></path>
                        <path d="M15.8,4.21084211 L17.9,4.21084211 L17.9,2.10557895 L15.8,2.10557895 L15.8,4.21084211 Z M18.11,6.31610526 L15.59,6.31610526 C14.5484,6.31610526 13.7,5.46557895 13.7,4.42031579 L13.7,1.89505263 C13.7,0.849789474 14.5484,0.000315789474 15.59,0.000315789474 L18.11,0.000315789474 C19.1516,0.000315789474 20,0.849789474 20,1.89505263 L20,4.42031579 C20,5.46557895 19.1516,6.31610526 18.11,6.31610526 Z" id="Fill-4"></path>
                        <path d="M15.8,17.8392632 L17.9,17.8392632 L17.9,15.734 L15.8,15.734 L15.8,17.8392632 Z M18.11,19.9445263 L15.59,19.9445263 C14.5484,19.9445263 13.7,19.094 13.7,18.0497895 L13.7,15.5234737 C13.7,14.4792632 14.5484,13.6287368 15.59,13.6287368 L18.11,13.6287368 C19.1516,13.6287368 20,14.4792632 20,15.5234737 L20,18.0497895 C20,19.094 19.1516,19.9445263 18.11,19.9445263 Z" id="Fill-5"></path>
                    </g>
                </g>
            </g>
        </g>
    </g>
</svg>