<svg id="图层_1" data-name="图层 1" xmlns="http://www.w3.org/2000/svg" viewBox="0 0 24 24">
<defs><style>.cls-1{fill:#808fa3;fill-rule:evenodd;}</style></defs>
<title></title>
<g id="Page-1"><g id="社区"><g id="navigation">
<path id="Fill-1" class="cls-1" d="M17.63,13.83a.86.86,0,0,0-.24.76l1,6.21a.17.17,0,0,1-.25.18l-5.2-2.9a.86.86,0,0,0-.85,0L6.86,21a.17.17,0,0,1-.25-.18l1-6.21a.93.93,0,0,0-.24-.76L3.05,9.32A.17.17,0,0,1,3.15,9l5.92-.86.18-.05a.83.83,0,0,0,.51-.46L12.37,2.1a.18.18,0,0,1,.32,0l2.59,5.57a.89.89,0,0,0,.66.51l5.91.91a.18.18,0,0,1,.1.3Z"/></g></g></g></svg>