<svg id="图层_1" data-name="图层 1" xmlns="http://www.w3.org/2000/svg" viewBox="0 0 24 24"><defs>
<style>.cls-1{fill:#808fa3;fill-rule:evenodd;}</style></defs><title></title>
<g id="Page-1"><g id="社区"><g id="navigation"><g id="评论">
<path id="Fill-1" class="cls-1" d="M4,13.75a9.26,9.26,0,0,1,9.36-9,7.92,7.92,0,0,0-3.86-1,7.26,7.26,0,0,0-7.5,7A6.72,6.72,0,0,0,3.91,15.4l.3.21A8.91,8.91,0,0,1,4,13.75"/>
<path id="Fill-3" class="cls-1" d="M17.5,14.76a1,1,0,1,1,1-1,1,1,0,0,1-1,1m-4,0a1,1,0,1,1,1-1,1,1,0,0,1-1,1m-4,0a1,1,0,1,1,1-1,1,1,0,0,1-1,1m4-8a7.26,7.26,0,0,0-7.5,7A6.72,6.72,0,0,0,7.91,18.4l-.24,2.46a.12.12,0,0,0,.17.13l2.5-.91a7.87,7.87,0,0,0,3.16.66,7.26,7.26,0,0,0,7.5-7,7.26,7.26,0,0,0-7.5-7"/></g></g></g></g></svg>