<svg id="图层_1" data-name="图层 1" xmlns="http://www.w3.org/2000/svg" viewBox="0 0 24 24">
<defs><style>.cls-1{fill:#808fa3;fill-rule:evenodd;}</style></defs>
<title></title>
<g id="Page-1"><g id="社区"><g id="navigation"><g id="综合"><path id="Fill-1" class="cls-1" d="M8.67,11.56H4.89A1.89,1.89,0,0,1,3,9.67V5.89A1.89,1.89,0,0,1,4.89,4H8.67a1.89,1.89,0,0,1,1.89,1.89V9.67a1.89,1.89,0,0,1-1.89,1.89"/><path id="Fill-3" class="cls-1" d="M18.11,11.56H14.33a1.89,1.89,0,0,1-1.89-1.89V5.89A1.89,1.89,0,0,1,14.33,4h3.78A1.89,1.89,0,0,1,20,5.89V9.67a1.89,1.89,0,0,1-1.89,1.89"/><path id="Fill-5" class="cls-1" d="M8.67,21H4.89A1.89,1.89,0,0,1,3,19.11V15.33a1.89,1.89,0,0,1,1.89-1.89H8.67a1.89,1.89,0,0,1,1.89,1.89v3.78A1.89,1.89,0,0,1,8.67,21"/><path id="Fill-7" class="cls-1" d="M18.11,21H14.33a1.89,1.89,0,0,1-1.89-1.89V15.33a1.89,1.89,0,0,1,1.89-1.89h3.78A1.89,1.89,0,0,1,20,15.33v3.78A1.89,1.89,0,0,1,18.11,21"/></g></g></g></g></svg>