<svg id="图层_1" data-name="图层 1" xmlns="http://www.w3.org/2000/svg" viewBox="0 0 24 24"><defs><style>.cls-1{fill:#1d9390;}</style></defs><g id="Page-1"><g id="视频播放展开详情"><g id="Group-3"><g id="分组-copy"><path id="Fill-1" class="cls-1" d="M10,4V6.47A3.54,3.54,0,0,1,6.47,10H4A1,1,0,0,1,4,8H6.47A1.54,1.54,0,0,0,8,6.47V4a1,1,0,0,1,2,0"/><path id="Fill-3" class="cls-1" d="M17.53,10H20a1,1,0,0,0,0-2H17.53A1.54,1.54,0,0,1,16,6.47V4a1,1,0,0,0-2,0V6.47A3.54,3.54,0,0,0,17.53,10"/><path id="Fill-5" class="cls-1" d="M4,16H6.47A1.54,1.54,0,0,1,8,17.53V20a1,1,0,0,0,2,0V17.53A3.54,3.54,0,0,0,6.47,14H4a1,1,0,0,0,0,2"/><path id="Fill-7" class="cls-1" d="M15,21a1,1,0,0,0,1-1V17.53A1.54,1.54,0,0,1,17.53,16H20a1,1,0,0,0,0-2H17.53A3.53,3.53,0,0,0,14,17.53V20a1,1,0,0,0,1,1"/></g></g></g></g></svg>