<svg id="图层_1" data-name="图层 1" xmlns="http://www.w3.org/2000/svg" viewBox="0 0 24 24"><defs><style>.cls-1{fill:#1d9390;}</style></defs><g id="Page-1"><g id="视频播放展开详情"><g id="Group-3"><g id="分组"><path id="Fill-1" class="cls-1" d="M9,3H6.53A3.54,3.54,0,0,0,3,6.53V9A1,1,0,0,0,5,9V6.53A1.54,1.54,0,0,1,6.53,5H9A1,1,0,0,0,9,3"/><path id="Fill-3" class="cls-1" d="M17.47,3H15a1,1,0,0,0,0,2h2.47A1.54,1.54,0,0,1,19,6.53V9a1,1,0,0,0,2,0V6.53A3.54,3.54,0,0,0,17.47,3"/><path id="Fill-5" class="cls-1" d="M9,19H6.53A1.54,1.54,0,0,1,5,17.47V15a1,1,0,0,0-2,0v2.47A3.54,3.54,0,0,0,6.53,21H9a1,1,0,0,0,0-2"/><path id="Fill-7" class="cls-1" d="M20,14a1,1,0,0,0-1,1v2.47A1.54,1.54,0,0,1,17.47,19H15a1,1,0,0,0,0,2h2.47A3.53,3.53,0,0,0,21,17.47V15a1,1,0,0,0-1-1"/></g></g></g></g></svg>