<svg id="图层_1" data-name="图层 1" xmlns="http://www.w3.org/2000/svg" viewBox="0 0 24 24"><defs><style>.cls-1{fill:#1d9390;}</style></defs><g id="Page-1"><g id="当前帧"><g id="Group-3"><path id="合并形状" class="cls-1" d="M6.57,8.67c-.82,0-1.51.52-1.51,1.14v4.38c0,.61.69,1.14,1.51,1.14H7.85a1,1,0,0,1,.67.25L13,19.38a.22.22,0,0,0,.22,0V4.6a.22.22,0,0,0-.22,0L8.52,8.42a1,1,0,0,1-.67.25Zm6.5,12.83A2.24,2.24,0,0,1,11.62,21L7.47,17.41h-.9A3.42,3.42,0,0,1,3,14.19V9.81A3.42,3.42,0,0,1,6.57,6.59h.9L11.62,3a2.26,2.26,0,0,1,2.43-.31,2,2,0,0,1,1.19,1.79v15a2,2,0,0,1-1.19,1.79A2.26,2.26,0,0,1,13.07,21.5Zm5-4.95a1,1,0,0,1-.81-.45,1,1,0,0,1,.29-1.32,3.31,3.31,0,0,0,0-5.56,1,1,0,0,1-.29-1.33,1,1,0,0,1,1.32-.29,5.25,5.25,0,0,1,0,8.8A1,1,0,0,1,18.1,16.55Z"/></g></g></g></svg>