<svg id="图层_1" data-name="图层 1" xmlns="http://www.w3.org/2000/svg" viewBox="0 0 24 24"><defs><style>.cls-1{fill:#808fa3;fill-rule:evenodd;}</style></defs><title></title><g id="Page-1"><g id="社区"><g id="navigation"><g id="设计交流"><polygon id="Fill-1" class="cls-1" points="13.81 17.44 16.49 20.12 18.16 18.45 20.51 16.1 18.16 13.75 17.83 13.42 13.81 17.44"/><polygon id="Fill-2" class="cls-1" points="12.47 21.46 15.15 21.46 12.47 18.78 12.47 21.46"/><path id="Fill-3" class="cls-1" d="M17.83,11.53a1.84,1.84,0,0,1,.33,0V9.63H12.47a.94.94,0,0,1-.94-1V4H4.89A1.89,1.89,0,0,0,3,5.84V19.11A1.89,1.89,0,0,0,4.89,21h5.69V18.78a2,2,0,0,1,.07-.49l0-.12a1.63,1.63,0,0,1,.21-.44h0a2.26,2.26,0,0,1,.23-.29l5.36-5.36a1.89,1.89,0,0,1,1.34-.55"/><path id="Fill-5" class="cls-1" d="M13.42,7.74h3.79L13.7,4.22A1,1,0,0,0,13.42,4Z"/></g></g></g></g></svg>