<?xml version="1.0" encoding="UTF-8"?>
<svg width="19px" height="19px" viewBox="0 0 19 19" version="1.1" xmlns="http://www.w3.org/2000/svg" xmlns:xlink="http://www.w3.org/1999/xlink">
    <!-- Generator: Sketch 51.2 (57519) - http://www.bohemiancoding.com/sketch -->
    <title></title>
    <desc>Created with Sketch.</desc>
    <defs></defs>
    <g id="Page-1" stroke="none" stroke-width="1" fill="none" fill-rule="evenodd">
        <g id="设计案例" transform="translate(-161.000000, -848.000000)">
            <g id="筛选项" transform="translate(90.000000, 714.000000)">
                <g id="户型" transform="translate(71.000000, 134.000000)">
                    <polygon id="Fill-1" fill="#74D3FF" points="11 1 2 1.437 2 11 6.12873538 11 6.12873538 7 11 7"></polygon>
                    <path d="M16,17 L9,17 L9,13.304 C9,12.752 8.552,12.304 8,12.304 C7.448,12.304 7,12.752 7,13.304 L7,17 L3,17 C2.449,17 2,16.551 2,16 L2,12 L5,12 C5.552,12 6,11.552 6,11 C6,10.448 5.552,10 5,10 L2,10 L2,3 C2,2.449 2.449,2 3,2 L10,2 L10,6 L9,6 C8.448,6 8,6.448 8,7 C8,7.552 8.448,8 9,8 L13,8 C13.552,8 14,7.552 14,7 C14,6.448 13.552,6 13,6 L12,6 L12,2 L16,2 C16.551,2 17,2.449 17,3 L17,10 L14,10 C13.448,10 13,10.448 13,11 C13,11.552 13.448,12 14,12 L17,12 L17,16 C17,16.551 16.551,17 16,17 M16,0 L3,0 C1.346,0 0,1.346 0,3 L0,16 C0,17.654 1.346,19 3,19 L16,19 C17.654,19 19,17.654 19,16 L19,3 C19,1.346 17.654,0 16,0" id="Fill-1" fill="#4387FF"></path>
                </g>
            </g>
        </g>
    </g>
</svg>