<?xml version="1.0" encoding="UTF-8"?>
<svg width="16px" height="16px" viewBox="0 0 16 16" version="1.1" xmlns="http://www.w3.org/2000/svg" xmlns:xlink="http://www.w3.org/1999/xlink">
    <!-- Generator: Sketch 52.4 (67378) - http://www.bohemiancoding.com/sketch -->
    <desc>Created with Sketch.</desc>
    <g id="Page-1" stroke="none" stroke-width="1" fill="none" fill-rule="evenodd">
        <g id="教学视频首页" transform="translate(-1194.000000, -2273.000000)" fill="#4387FF">
            <g id="猜你喜欢" transform="translate(100.000000, 2254.000000)">
                <path d="M1101.11125,31.7840255 L1102.88903,32.6729162 L1102.88903,26.1111253 C1102.88903,25.8986805 1102.96459,25.6933467 1103.10326,25.5324575 L1107.17882,20.7777813 L1096.82147,20.7777813 L1100.89703,25.5324575 C1101.0357,25.6933467 1101.11125,25.8986805 1101.11125,26.1111253 L1101.11125,31.7840255 Z M1103.77792,35.000032 C1103.64192,35.000032 1103.50592,34.9689208 1103.38059,34.9066985 L1099.82503,33.1289171 C1099.52369,32.9778057 1099.33347,32.6702495 1099.33347,32.33336 L1099.33347,26.4400149 L1094.21435,20.4675585 C1093.98857,20.2044469 1093.93613,19.8328906 1094.08102,19.5173344 C1094.22679,19.2026671 1094.54146,19 1094.88902,19 L1109.11127,19 C1109.45882,19 1109.77349,19.2026671 1109.91927,19.5173344 C1110.06416,19.8328906 1110.01171,20.2044469 1109.78594,20.4675585 L1104.66681,26.4400149 L1104.66681,34.1111413 C1104.66681,34.4195864 1104.50681,34.7058092 1104.24548,34.8675873 C1104.10237,34.9555874 1103.94059,35.000032 1103.77792,35.000032 Z" id="Fill-1"></path>
            </g>
        </g>
    </g>
</svg>