<?xml version="1.0" encoding="UTF-8"?>
<svg width="28px" height="27px" viewBox="0 0 28 27" version="1.1" xmlns="http://www.w3.org/2000/svg" xmlns:xlink="http://www.w3.org/1999/xlink">
    <!-- Generator: Sketch 52.4 (67378) - http://www.bohemiancoding.com/sketch -->
    <desc>Created with Sketch.</desc>
    <defs>
        <linearGradient x1="82.427478%" y1="15.5068032%" x2="50%" y2="100%" id="linearGradient-1">
            <stop stop-color="#AAE76F" offset="0%"></stop>
            <stop stop-color="#6CB029" offset="100%"></stop>
        </linearGradient>
    </defs>
    <g id="Page-1" stroke="none" stroke-width="1" fill="none" fill-rule="evenodd">
        <g id="教学视频首页" transform="translate(-103.000000, -1474.000000)" fill="url(#linearGradient-1)">
            <g id="分组-3" transform="translate(100.000000, 1461.000000)">
                <g id="成长课程" transform="translate(3.000000, 0.000000)">
                    <path d="M27.2298266,16.4861786 C25.0173705,16.6416888 18.4334183,17.4844542 16.0296985,21.9307101 C13.9705981,14.3374614 3.55103284,13.1769869 0.694138648,13.0014108 C0.297826426,12.9763285 -0.0243926416,13.2890212 0.00145380761,13.6736165 C0.218563981,17.0279563 1.92615273,31.1258818 15.0647644,28.5925693 C14.895901,30.3449861 14.3669103,34.8062915 13.1280038,37.6589852 C12.6455368,38.7726394 13.4709001,40 14.7166989,40 L14.8062999,40 C15.7092026,40 16.4621958,39.3328108 16.5328428,38.4582745 C16.7085986,36.2527042 16.9257088,32.0974029 16.5035501,28.7029315 C26.2528308,30.3316089 27.7174629,20.0144223 27.9294038,17.1634007 C27.9569733,16.7754611 27.6313081,16.457752 27.2298266,16.4861786" id="Fill-1"></path>
                </g>
            </g>
        </g>
    </g>
</svg>