<?xml version="1.0" encoding="UTF-8"?>
<svg width="80px" height="40px" viewBox="0 0 80 40" version="1.1" xmlns="http://www.w3.org/2000/svg" xmlns:xlink="http://www.w3.org/1999/xlink">
    <!-- Generator: Sketch 52.2 (67145) - http://www.bohemiancoding.com/sketch -->
    <g id="Page-1" stroke="none" stroke-width="1" fill="none" fill-rule="evenodd">
        <g id="官网首页-copy" transform="translate(-846.000000, -360.000000)">
            <g id="第六屏" transform="translate(102.000000, 70.000000)">
                <g id="分组" transform="translate(744.000000, 290.000000)">
                    <rect id="矩形" fill="#4387FF" fill-rule="nonzero" x="0" y="0" width="80" height="40" rx="20"></rect>
                    <path d="M58.60024,27.5714286 C59.009799,27.5714286 59.4193581,27.4174334 59.7313269,27.1110144 L64.5308469,22.396876 C65.1563844,21.7824666 65.1563844,20.7893548 64.5308469,20.1749454 L59.7313269,15.460807 C59.1057894,14.8463977 58.0946905,14.8463977 57.4691531,15.460807 C56.8436156,16.0752164 56.8436156,17.0683282 57.4691531,17.6827376 L61.1375862,21.2859107 L57.4691531,24.8890838 C56.8436156,25.5034932 56.8436156,26.496605 57.4691531,27.1110144 C57.7811219,27.4174334 58.1906809,27.5714286 58.60024,27.5714286" id="Fill-1" fill="#FFFFFF"></path>
                    <path d="M19.60024,27.5714286 C20.009799,27.5714286 20.4193581,27.4174334 20.7313269,27.1110144 L25.5308469,22.396876 C26.1563844,21.7824666 26.1563844,20.7893548 25.5308469,20.1749454 L20.7313269,15.460807 C20.1057894,14.8463977 19.0946905,14.8463977 18.4691531,15.460807 C17.8436156,16.0752164 17.8436156,17.0683282 18.4691531,17.6827376 L22.1375862,21.2859107 L18.4691531,24.8890838 C17.8436156,25.5034932 17.8436156,26.496605 18.4691531,27.1110144 C18.7811219,27.4174334 19.1906809,27.5714286 19.60024,27.5714286" id="Fill-1-Copy" fill="#FFFFFF" transform="translate(22.000000, 21.285714) scale(-1, 1) translate(-22.000000, -21.285714) "></path>
                </g>
            </g>
        </g>
    </g>
</svg>