<svg id="图层_1" data-name="图层 1" xmlns="http://www.w3.org/2000/svg" viewBox="0 0 24 24"><defs><style>.cls-1{fill:#808fa3;fill-rule:evenodd;}</style></defs><title></title><g id="Page-1"><g id="社区"><g id="navigation"><g id="户型改造"><path id="Fill-1" class="cls-1" d="M16.34,17.34a.89.89,0,0,1-1.28,0l-2.69-2.69A2.71,2.71,0,0,1,8.75,11L9.91,12.2a.91.91,0,0,0,1.29-1.29L10,9.75a2.71,2.71,0,0,1,3.62,3.62l2.69,2.69a.89.89,0,0,1,0,1.28m5.32-6.87L12.57,3.2a.9.9,0,0,0-1.14,0L2.34,10.47a.91.91,0,0,0,.57,1.62H4.73v7.27a.9.9,0,0,0,.91.91H18.36a.9.9,0,0,0,.91-.91V12.09h1.82a.91.91,0,0,0,.57-1.62"/></g></g></g></g></svg>