<?xml version="1.0" encoding="UTF-8"?>
<svg width="21px" height="23px" viewBox="0 0 21 23" version="1.1" xmlns="http://www.w3.org/2000/svg" xmlns:xlink="http://www.w3.org/1999/xlink">
    <!-- Generator: Sketch 51.2 (57519) - http://www.bohemiancoding.com/sketch -->
    <title></title>
    <desc>Created with Sketch.</desc>
    <defs>
        <linearGradient x1="100%" y1="0%" x2="29.5247944%" y2="84.0500982%" id="linearGradient-1">
            <stop stop-color="#FFAE09" offset="0%"></stop>
            <stop stop-color="#FF4504" offset="100%"></stop>
        </linearGradient>
    </defs>
    <g id="Page-1" stroke="none" stroke-width="1" fill="none" fill-rule="evenodd">
        <g id="设计案例" transform="translate(-108.000000, -1077.000000)" fill="url(#linearGradient-1)">
            <g id="最火案例" transform="translate(100.000000, 1064.000000)">
                <path d="M21.4320322,32.1726295 C19.3445747,33.6564946 15.7934446,32.9618972 13.4763311,31.5264148 C11.1591679,30.0909324 9.13168116,26.4668442 13.9107712,23 C13.9107712,23 12.2212155,28.0071877 16.8554425,25.6919104 C21.4897192,23.3766332 22.6000214,23.3766332 22.6000214,23.3766332 C22.6000214,23.3766332 18.9200138,26.7592361 20.0117985,27.915708 C21.1035833,29.0722276 24,26.2012152 24,26.2012152 C24,26.2012152 23.3485135,30.8102451 21.4320322,32.1726295 M27.1467833,13.0143572 C27.0015889,12.731913 25.1432309,16.7157066 22.3550717,16.2620534 C19.5669623,15.8084002 22.1131144,14.1439885 22.1131144,14.1439885 C22.1131144,14.1439885 10.6023449,14.8500263 8.29088298,23.5979048 C6.53197588,30.2546317 12.9169923,38.478379 22.9225093,35.2924478 C33.2813308,31.9941197 27.2919776,13.2967529 27.1467833,13.0143572" id="Fill-1"></path>
            </g>
        </g>
    </g>
</svg>