<svg id="图层_1" data-name="图层 1" xmlns="http://www.w3.org/2000/svg" viewBox="0 0 24 24"><defs><style>.cls-1{fill:#808fa3;fill-rule:evenodd;}</style></defs><title></title><g id="Page-1"><g id="社区"><g id="navigation"><g id="帖子"><path id="Fill-1" class="cls-1" d="M17,12a1,1,0,0,1-1,1H8a1,1,0,0,1,0-2h8a1,1,0,0,1,1,1m-1,5H8a1,1,0,0,1,0-2h8a1,1,0,0,1,0,2M13,8V3H6A2,2,0,0,0,4,5V19a2,2,0,0,0,2,2H18a2,2,0,0,0,2-2V9H14a1,1,0,0,1-1-1"/><path id="Fill-3" class="cls-1" d="M15,7h4L15.29,3.29A1,1,0,0,0,15,3.1Z"/></g></g></g></g></svg>