<svg id="图层_1" data-name="图层 1" xmlns="http://www.w3.org/2000/svg" viewBox="0 0 24 24"><defs><style>.cls-1{fill:#81878e;fill-rule:evenodd;}</style></defs><title></title><g id="Page-1"><g id="评论和关注状态"><g id="分组-3-copy-10"><g id="分组-4"><g id="分组-3"><g id="分组-2"><path id="Fill-1" class="cls-1" d="M6.2,10A1.2,1.2,0,0,0,5,11.2v6.91a1.2,1.2,0,0,0,2.4,0V11.2A1.2,1.2,0,0,0,6.2,10"/><path id="Fill-3" class="cls-1" d="M17.31,10.12H14.86a.66.66,0,0,1-.66-.69l.1-2.86h0v0A1.54,1.54,0,0,0,12.75,5c-1.3,0-1.58,1.57-1.58,1.57l-1,3.1a.67.67,0,0,1-.64.46H8.76a.76.76,0,0,0-.76.76V18a1.42,1.42,0,0,0,1.42,1.42h5.51a2.39,2.39,0,0,0,2.29-1.72l1.61-5.56a1.58,1.58,0,0,0-1.52-2"/></g></g></g></g></g></g></svg>