<svg id="图层_1" data-name="图层 1" xmlns="http://www.w3.org/2000/svg" xmlns:xlink="http://www.w3.org/1999/xlink" viewBox="0 0 24 24"><defs><style>.cls-1{fill:#fff;}.cls-1,.cls-3{fill-rule:evenodd;}.cls-2{mask:url(#mask);}.cls-3{fill:#81878e;}</style><mask id="mask" x="2.2" y="6" width="18.3" height="11.65" maskUnits="userSpaceOnUse"><g id="mask-2"><polygon id="path-1" class="cls-1" points="2.2 6 20.5 6 20.5 17.65 2.2 17.65 2.2 6"/></g></mask></defs><title></title><g id="Page-1"><g id="评论和关注状态"><g id="分组-3-copy-10"><g id="分组-4"><g id="分组-3"><g id="分组"><g class="cls-2"><path id="Fill-1" class="cls-3" d="M8.38,6.09,2.33,11.28a.37.37,0,0,0,0,.56L8.38,17A.37.37,0,0,0,9,16.75V14.9a.38.38,0,0,1,.34-.38,15.56,15.56,0,0,1,10.54,3,.37.37,0,0,0,.58-.43c-1.07-2.36-4-7-11.16-8.51A.37.37,0,0,1,9,8.26V6.37a.37.37,0,0,0-.62-.28"/></g></g></g></g></g></g></g></svg></g></g></g></g></g></g></svg>