<?xml version="1.0" encoding="UTF-8"?>
<svg width="23px" height="23px" viewBox="0 0 23 23" version="1.1" xmlns="http://www.w3.org/2000/svg" xmlns:xlink="http://www.w3.org/1999/xlink">
    <!-- Generator: Sketch 51.2 (57519) - http://www.bohemiancoding.com/sketch -->
    <title></title>
    <desc>Created with Sketch.</desc>
    <defs>
        <linearGradient x1="69.7382854%" y1="20.5015838%" x2="21.6591341%" y2="95.4270273%" id="linearGradient-1">
            <stop stop-color="#FFE92E" offset="0%"></stop>
            <stop stop-color="#FFC004" offset="100%"></stop>
        </linearGradient>
    </defs>
    <g id="Page-1" stroke="none" stroke-width="1" fill="none" fill-rule="evenodd">
        <g id="设计案例" transform="translate(-105.000000, -1925.000000)" fill="url(#linearGradient-1)">
            <g id="精选案例" transform="translate(100.000000, 1912.000000)">
                <path d="M22.7102993,27.3165927 C22.4734314,27.5603496 22.3640935,27.9041752 22.4192616,28.2414931 L23.6228659,35.7551565 C23.6507088,35.9288914 23.4671971,36.0584117 23.3142276,35.9730317 L17.0221034,32.4627088 C16.6997101,32.2821315 16.3081347,32.2821315 15.9857414,32.4605148 L9.67823518,35.9505339 C9.52493288,36.0353561 9.3419019,35.9051665 9.37033641,35.7315432 L10.6005634,28.2218587 C10.6545483,27.885582 10.5475399,27.5419052 10.310524,27.2959542 L5.05953176,21.8633169 C4.94017338,21.7397836 5.01046467,21.532209 5.17999942,21.5077032 L12.3486756,20.4700907 C12.4245133,20.4570011 12.4958399,20.4363627 12.5640235,20.4090678 C12.8290672,20.3176636 13.0572828,20.1240712 13.1859591,19.8499701 L16.3468855,13.1207541 C16.4226862,12.9593651 16.6512346,12.9598485 16.7263697,13.1216094 L19.8597121,19.8683774 C20.0112026,20.1936469 20.3141096,20.4221574 20.6678216,20.4776396 L27.8221141,21.5878399 C27.9907614,21.6140191 28.0593148,21.8210731 27.9399565,21.9437139 L22.7102993,27.3165927 Z" id="Fill-1"></path>
            </g>
        </g>
    </g>
</svg>