<svg id="图层_1" data-name="图层 1" xmlns="http://www.w3.org/2000/svg" viewBox="0 0 24 24"><defs><style>.cls-1{fill:#808fa3;fill-rule:evenodd;}</style></defs><title></title><g id="Page-1"><g id="社区"><g id="navigation"><g id="共享"><path id="Fill-1" class="cls-1" d="M7.87,17.85A2.86,2.86,0,0,0,8,16.61a3,3,0,0,0-2.4-2.54,6.42,6.42,0,0,1-.13-1.32A6.56,6.56,0,0,1,9.53,6.68,3,3,0,0,0,12.39,8a2.94,2.94,0,0,0,2.08-1.29,6.56,6.56,0,0,1,4.09,6.07,6.42,6.42,0,0,1-.13,1.32,3,3,0,0,0-2.3,3.77A6.5,6.5,0,0,1,12,19.31a6.57,6.57,0,0,1-4.13-1.46M22,16.61a3,3,0,0,0-1.68-2.31,8.76,8.76,0,0,0,.15-1.55A8.44,8.44,0,0,0,15,4.87a1.13,1.13,0,0,0,0-.26,3,3,0,0,0-6,.26,8.44,8.44,0,0,0-5.45,7.88,9,9,0,0,0,.15,1.56A3,3,0,0,0,2,17.39,3,3,0,0,0,5.39,20a2.89,2.89,0,0,0,1.41-.6,8.38,8.38,0,0,0,10.39,0A3,3,0,0,0,22,16.61"/></g></g></g></g></svg>