<svg id="图层_1" data-name="图层 1" xmlns="http://www.w3.org/2000/svg" viewBox="0 0 24 24"><defs><style>.cls-1{fill:#808fa3;fill-rule:evenodd;}</style></defs><title></title><g id="Page-1"><g id="社区"><g id="navigation"><g id="软装与配色"><path id="Fill-1" class="cls-1" d="M19.1,10.65V5.9A1.9,1.9,0,0,0,17.2,4h-.95V7.8a.95.95,0,1,1-1.9,0V4h-1.9V7.8a1,1,0,0,1-1.9,0V4H8.65V7.8a1,1,0,0,1-1.9,0V4h-1A1.9,1.9,0,0,0,3.9,5.9v4.75A1.9,1.9,0,0,0,2,12.55v1.9a1.9,1.9,0,0,0,1.9,1.9H8.65v1.9a2.85,2.85,0,0,0,5.7,0v-1.9H19.1a1.9,1.9,0,0,0,1.9-1.9v-1.9a1.9,1.9,0,0,0-1.9-1.9"/></g></g></g></g></svg>