<?xml version="1.0" encoding="UTF-8"?>
<svg width="20px" height="20px" viewBox="0 0 20 20" version="1.1" xmlns="http://www.w3.org/2000/svg" xmlns:xlink="http://www.w3.org/1999/xlink">
    <!-- Generator: Sketch 51.2 (57519) - http://www.bohemiancoding.com/sketch -->
    <title></title>
    <desc>Created with Sketch.</desc>
    <defs></defs>
    <g id="Page-1" stroke="none" stroke-width="1" fill="none" fill-rule="evenodd">
        <g id="设计案例" transform="translate(-161.000000, -802.000000)">
            <g id="筛选项" transform="translate(90.000000, 714.000000)">
                <g id="空间" transform="translate(71.000000, 88.000000)">
                    <polygon id="Fill-1" fill="#74D3FF" points="12 18 18 18 18 11 12 11"></polygon>
                    <path d="M3,2 C2.449,2 2,2.449 2,3 L2,17 C2,17.551 2.449,18 3,18 L17.753,18 C17.887,18 18,17.887 18,17.753 L18,11.247 C18,11.113 17.887,11 17.753,11 L12,11 L12,3 C12,2.449 11.551,2 11,2 L3,2 Z M17.753,20 L3,20 C1.346,20 0,18.654 0,17 L0,3 C0,1.346 1.346,0 3,0 L11,0 C12.654,0 14,1.346 14,3 L14,9 L17.753,9 C18.992,9 20,10.008 20,11.247 L20,17.753 C20,18.992 18.992,20 17.753,20 Z" id="Fill-1" fill="#4387FF"></path>
                    <polygon id="Fill-3" fill="#4387FF" points="3 6 5 6 5 4 3 4"></polygon>
                    <polygon id="Fill-5" fill="#4387FF" points="6 6 8 6 8 4 6 4"></polygon>
                    <polygon id="Fill-6" fill="#4387FF" points="9 6 11 6 11 4 9 4"></polygon>
                    <polygon id="Fill-7" fill="#4387FF" points="3 10 5 10 5 8 3 8"></polygon>
                    <polygon id="Fill-8" fill="#4387FF" points="6 10 8 10 8 8 6 8"></polygon>
                    <polygon id="Fill-9" fill="#4387FF" points="9 10 11 10 11 8 9 8"></polygon>
                    <polygon id="Fill-10" fill="#4387FF" points="3 14 5 14 5 12 3 12"></polygon>
                    <polygon id="Fill-11" fill="#4387FF" points="6 14 8 14 8 12 6 12"></polygon>
                    <polygon id="Fill-12" fill="#4387FF" points="9 14 11 14 11 12 9 12"></polygon>
                </g>
            </g>
        </g>
    </g>
</svg>