<svg id="图层_1" data-name="图层 1" xmlns="http://www.w3.org/2000/svg" viewBox="0 0 24 24"><defs><style>.cls-1{fill:#808fa3;fill-rule:evenodd;}</style></defs><title></title><g id="Page-1"><g id="社区"><g id="navigation"><g id="攻略"><path id="Fill-1" class="cls-1" d="M4,19.12A1.88,1.88,0,0,0,5.88,21H19V17.25H5.88A1.88,1.88,0,0,0,4,19.12"/><path id="Fill-3" class="cls-1" d="M17.12,4.12H11.5V9.3a.19.19,0,0,1-.32.13L9.29,7.54a.2.2,0,0,0-.27,0L7.13,9.43a.19.19,0,0,1-.32-.13V4.12H5.88A1.88,1.88,0,0,0,4,6V16a3.64,3.64,0,0,1,1.88-.53H19V6a1.88,1.88,0,0,0-1.88-1.88"/></g></g></g></g></svg>