<?xml version="1.0" encoding="UTF-8"?>
<svg width="22px" height="22px" viewBox="0 0 22 22" version="1.1" xmlns="http://www.w3.org/2000/svg" xmlns:xlink="http://www.w3.org/1999/xlink">
    <!-- Generator: Sketch 51.2 (57519) - http://www.bohemiancoding.com/sketch -->
    <title></title>
    <desc>Created with Sketch.</desc>
    <defs>
        <polygon id="path-1" points="0.00040235602 -7.50600576e-05 21.863 -7.50600576e-05 21.863 21.9879 0.00040235602 21.9879"></polygon>
    </defs>
    <g id="Page-1" stroke="none" stroke-width="1" fill="none" fill-rule="evenodd">
        <g id="设计案例" transform="translate(-161.000000, -755.000000)">
            <g id="筛选项" transform="translate(90.000000, 714.000000)">
                <g id="风格" transform="translate(71.000000, 41.000000)">
                    <mask id="mask-2" fill="white">
                        <use xlink:href="#path-1"></use>
                    </mask>
                    <g id="Clip-2"></g>
                    <path d="M7.699,5 C7.699,5 11.815,5.001 11.815,8.001 C11.815,11.001 13.815,11.001 13.815,11.001 C13.815,11.001 16.886,12.072 16.351,15.037 L13.871,17.03 L5,8.318 L7.699,5 Z" id="Fill-1" fill="#74D3FF" mask="url(#mask-2)"></path>
                    <path d="M14.2599,15.5343 C13.9159,15.8783 13.3569,15.8783 13.0129,15.5343 L9.9689,12.4903 L7.0859,9.6073 L6.3299,8.8513 C5.9869,8.5073 5.9869,7.9483 6.3299,7.6043 L11.9349,1.9993 L19.8639,9.9303 L14.2599,15.5343 Z M10.0099,15.8583 C9.5699,16.2823 9.3729,16.3943 8.9959,16.2573 C6.6349,15.4043 5.7809,16.4383 5.2069,17.6813 C5.0929,17.9293 4.0439,20.0993 2.5319,19.9833 C2.2789,19.9653 2.0229,19.7093 2.0049,19.4563 C1.8939,17.9383 4.0589,16.8953 4.3069,16.7813 C5.5509,16.2073 6.5839,15.3513 5.7309,12.9923 C5.5949,12.6163 5.7059,12.4193 6.1609,11.9463 C6.2129,11.8913 6.2899,11.8143 6.3769,11.7263 L8.4049,13.7543 L10.2609,15.6113 C10.1629,15.7083 10.0739,15.7963 10.0099,15.8583 Z M21.2789,8.5153 L13.3489,0.5853 C12.5689,-0.1957 11.2989,-0.1947 10.5199,0.5853 L4.9159,6.1903 C3.7929,7.3133 3.7929,9.1413 4.9159,10.2653 L4.9629,10.3123 C4.8549,10.4213 4.7569,10.5213 4.6889,10.5923 C4.2639,11.0333 3.2699,12.0653 3.8499,13.6723 C4.1969,14.6293 4.1689,14.6423 3.4689,14.9653 C1.6929,15.7833 -0.1481,17.4303 0.0099,19.6013 C0.0999,20.8443 1.1439,21.8883 2.3859,21.9783 C2.4739,21.9853 2.5609,21.9883 2.6469,21.9883 C4.6889,21.9883 6.2379,20.2233 7.0229,18.5193 C7.3459,17.8183 7.3599,17.7923 8.3159,18.1383 C9.9219,18.7183 10.9539,17.7233 11.4269,17.2693 C11.4889,17.2103 11.5809,17.1193 11.6829,17.0173 C12.2339,17.5283 12.9329,17.7913 13.6359,17.7913 C14.3739,17.7913 15.1129,17.5103 15.6739,16.9483 L21.2789,11.3443 C22.0579,10.5643 22.0579,9.2953 21.2789,8.5153 Z" id="Fill-1" fill="#4387FF" mask="url(#mask-2)"></path>
                </g>
            </g>
        </g>
    </g>
</svg>