<svg id="图层_1" data-name="图层 1" xmlns="http://www.w3.org/2000/svg" viewBox="0 0 24 24"><defs><style>.cls-1{fill:#808fa3;fill-rule:evenodd;}</style></defs><title></title><g id="Page-1"><g id="社区"><g id="navigation"><g id="更新日志"><path id="Fill-1" class="cls-1" d="M6,19V6c0-1.1-.1-2,1-2H5A2,2,0,0,0,3,6V19a2,2,0,0,0,2,2H7c-1.1,0-1-.9-1-2"/><path id="Fill-3" class="cls-1" d="M18.14,15.3a4.58,4.58,0,0,1-5.6.65l-.22.23a.83.83,0,0,1-.91.16.81.81,0,0,1-.46-.8l.11-1.28a.8.8,0,0,1,.73-.72l1.28-.11a.78.78,0,0,1,.79.46.8.8,0,0,1-.14.88,3,3,0,1,0-.9-4.8A2.92,2.92,0,0,0,12,11.7a.82.82,0,0,1-.9.69.79.79,0,0,1-.69-.89,4.56,4.56,0,1,1,7.75,3.8M18.88,4h-8.8A2.08,2.08,0,0,0,8,6.08V18.92A2.08,2.08,0,0,0,10.08,21h8.8A2.08,2.08,0,0,0,21,18.92V6.08A2.08,2.08,0,0,0,18.88,4"/></g></g></g></g></svg>